{
.appVersion = "1346";
classes = (
{
automatic = 1;
code = "zero
one
two
three
four
five
six
seven
eight
nine";
name = figures;
},
{
automatic = 1;
code = "zero.dnom
one.dnom
two.dnom
three.dnom
four.dnom
five.dnom
six.dnom
seven.dnom
eight.dnom
nine.dnom";
name = dnom;
},
{
automatic = 1;
code = "zero.numr
one.numr
two.numr
three.numr
four.numr
five.numr
six.numr
seven.numr
eight.numr
nine.numr";
name = numr;
},
{
automatic = 1;

glyphs = (
{
glyphname = A;
layers = (
{
anchors = (
{
name = bottom;
position = "{320, 0}";
},
{
name = ogonek;
position = "{640, 0}";
},
{
name = top;
position = "{491, 660}";
}
);
background = {
paths = (
{
closed = 1;
nodes = (
"510 170 LINE",
"506 239 LINE",
"277 239 LINE",
"251 170 LINE"
);
},
{
closed = 1;
nodes = (
"434 545 LINE",
"452 545 LINE",
"475 -39 OFFCURVE",
"508 -160 OFFCURVE",
"606 -160 CURVE SMOOTH",
"636 -160 OFFCURVE",
"662 -142 OFFCURVE",
"672 -120 CURVE",
"547 9 OFFCURVE",
"546 528 OFFCURVE",
"542 660 CURVE",
"419 660 LINE"
);
},
{
closed = 1;
nodes = (
"413 660 LINE",
"204 137 OFFCURVE",
"165 51 OFFCURVE",
"51 51 CURVE",
"40 15 OFFCURVE",
"58 -22 OFFCURVE",
"115 -22 CURVE SMOOTH",
"199 -22 OFFCURVE",
"268 36 OFFCURVE",
"463 581 CURVE"
);
},
{
closed = 1;
nodes = (
"606 -160 OFFCURVE",
"634 -142 OFFCURVE",
"645 -120 CURVE",
"529 9 OFFCURVE",
"564 528 OFFCURVE",
"570 660 CURVE",
"441 660 LINE",
"195 137 OFFCURVE",
"150 51 OFFCURVE",
"36 51 CURVE",
"34 44 OFFCURVE",
"32 38 OFFCURVE",
"32 31 CURVE SMOOTH",
"30 3 OFFCURVE",
"48 -22 OFFCURVE",
"95 -22 CURVE SMOOTH",
"177 -22 OFFCURVE",
"249 33 OFFCURVE",
"470 545 CURVE",
"472 545 LINE",
"454 -39 OFFCURVE",
"478 -160 OFFCURVE",
"576 -160 CURVE SMOOTH"
);
},
{
closed = 1;
nodes = (
"503 170 LINE",
"504 239 LINE",
"275 239 LINE",
"244 170 LINE"
);
},
{
closed = 1;
nodes = (
"180 384 OFFCURVE",
"197 388 OFFCURVE",
"213 396 CURVE",
"193 428 OFFCURVE",
"184 469 OFFCURVE",
"187 509 CURVE SMOOTH",
"192 578 OFFCURVE",
"237 642 OFFCURVE",
"318 642 CURVE SMOOTH",
"354 642 OFFCURVE",
"392 631 OFFCURVE",
"414 625 CURVE",
"420 618 LINE",
"473 600 LINE",
"567 660 LINE",
"491 660 OFFCURVE",
"370 690 OFFCURVE",
"307 690 CURVE SMOOTH",
"166 690 OFFCURVE",
"86 591 OFFCURVE",
"79 501 CURVE SMOOTH",
"74 422 OFFCURVE",
"112 384 OFFCURVE",
"164 384 CURVE SMOOTH"
);
},
{
closed = 1;
nodes = (
"184 384 OFFCURVE",
"197 387 OFFCURVE",
"209 392 CURVE",
"190 424 OFFCURVE",
"180 461 OFFCURVE",
"180 498 CURVE SMOOTH",
"180 589 OFFCURVE",
"229 642 OFFCURVE",
"314 642 CURVE SMOOTH",
"367 642 OFFCURVE",
"383 627 OFFCURVE",
"387 624 CURVE",
"388 622 LINE",
"462 647 LINE",
"431 654 OFFCURVE",
"376 690 OFFCURVE",
"302 690 CURVE SMOOTH",
"152 690 OFFCURVE",
"84 592 OFFCURVE",
"84 494 CURVE SMOOTH",
"84 426 OFFCURVE",
"119 384 OFFCURVE",
"170 384 CURVE SMOOTH"
);
}
);
};
layerId = "1252CFB8-7EB2-4C2F-9C11-14383990C0AA";
paths = (
{
closed = 1;
nodes = (
"602 -160 OFFCURVE",
"623 -145 OFFCURVE",
"636 -120 CURVE",
"570 -46 OFFCURVE",
"554 151 OFFCURVE",
"554 333 CURVE SMOOTH",
"554 473 OFFCURVE",
"563 603 OFFCURVE",
"566 660 CURVE",
"503 660 OFFCURVE",
"358 690 OFFCURVE",
"307 690 CURVE SMOOTH",
"162 690 OFFCURVE",
"84 590 OFFCURVE",
"84 495 CURVE SMOOTH",
"84 431 OFFCURVE",
"114 384 OFFCURVE",
"166 384 CURVE SMOOTH",
"182 384 OFFCURVE",
"197 388 OFFCURVE",
"209 394 CURVE",
"188 423 OFFCURVE",
"179 458 OFFCURVE",
"179 494 CURVE SMOOTH",
"179 580 OFFCURVE",
"225 642 OFFCURVE",
"318 642 CURVE SMOOTH",
"357 642 OFFCURVE",
"397 630 OFFCURVE",
"417 624 CURVE",
"422 614 LINE",
"188 116 OFFCURVE",
"145 51 OFFCURVE",
"40 51 CURVE",
"38 44 OFFCURVE",
"36 37 OFFCURVE",
"36 27 CURVE SMOOTH",
"36 0 OFFCURVE",
"53 -22 OFFCURVE",
"98 -22 CURVE SMOOTH",
"146 -22 OFFCURVE",
"201 1 OFFCURVE",
"291 170 CURVE",
"468 170 LINE",
"473 -47 OFFCURVE",
"506 -160 OFFCURVE",
"576 -160 CURVE SMOOTH"
);
},
{
closed = 1;
nodes = (
"359 316 OFFCURVE",
"420 429 OFFCURVE",
"475 566 CURVE",
"478 566 LINE",
"473 437 OFFCURVE",
"467 295 OFFCURVE",
"467 239 CURVE",
"323 239 LINE"
);
}
);
width = 686;
},
{
anchors = (
{
name = bottom;
position = "{415, 0}";
},
{
name = ogonek;
position = "{647, 0}";
},
{
name = top;
position = "{564, 696}";
}
);
hints = (
{
horizontal = 1;
place = "{-18, 21}";
target = up;
type = BottomGhost;
},
{
horizontal = 1;
place = "{174, 76.8}";
type = Stem;
},
{
horizontal = 1;
place = "{774, -20}";
target = down;
type = TopGhost;
},
{
place = "{-90, 730.8}";
type = Stem;
},
{
horizontal = 1;
place = "{-42, 21}";
target = up;
type = BottomGhost;
},
{
horizontal = 1;
place = "{606, 150}";
type = Stem;
}
);
layerId = "E87290C6-23CF-4B1A-9291-A4CEFD7391A8";
paths = (
{
closed = 1;
nodes = (
"726 -160 OFFCURVE",
"787 -99 OFFCURVE",
"791 -62 CURVE",
"730 -12 OFFCURVE",
"712 92 OFFCURVE",
"708 259 CURVE SMOOTH",
"704 363 OFFCURVE",
"707 494 OFFCURVE",
"706 660 CURVE",
"574 660 OFFCURVE",
"473 689 OFFCURVE",
"336 689 CURVE SMOOTH",
"161 689 OFFCURVE",
"83 579 OFFCURVE",
"77 484 CURVE SMOOTH",
"72 408 OFFCURVE",
"115 337 OFFCURVE",
"215 337 CURVE SMOOTH",
"238 337 OFFCURVE",
"274 347 OFFCURVE",
"297 372 CURVE",
"277 421 OFFCURVE",
"275 451 OFFCURVE",
"277 490 CURVE SMOOTH",
"282 573 OFFCURVE",
"337 619 OFFCURVE",
"400 619 CURVE SMOOTH",
"412 619 OFFCURVE",
"426 618 OFFCURVE",
"442 612 CURVE",
"447 603 LINE",
"394 447 OFFCURVE",
"233 80 OFFCURVE",
"69 71 CURVE",
"62 62 OFFCURVE",
"60 53 OFFCURVE",
"59 43 CURVE SMOOTH",
"58 8 OFFCURVE",
"87 -26 OFFCURVE",
"139 -26 CURVE SMOOTH",
"193 -26 OFFCURVE",
"263 24 OFFCURVE",
"344 158 CURVE",
"494 158 LINE",
"507 -111 OFFCURVE",
"560 -160 OFFCURVE",
"649 -160 CURVE SMOOTH"
);
},
{
closed = 1;
nodes = (
"425 311 OFFCURVE",
"460 399 OFFCURVE",
"498 508 CURVE",
"499 508 LINE",
"493 403 OFFCURVE",
"492 321 OFFCURVE",
"493 239 CURVE",
"388 239 LINE"
);
}
);
width = 794;
}
);
leftKerningGroup = A;
note = A;
rightKerningGroup = A;
unicode = 0041;
},
{
glyphname = Aogonek;
layers = (
{
anchors = (
{
name = top;
position = "{480, 660}";
}
);
background = {
paths = (
{
closed = 1;
nodes = (
"170 -22 OFFCURVE",
"218 2 OFFCURVE",
"299 170 CURVE",
"471 170 LINE",
"485 10 OFFCURVE",
"506 -21 OFFCURVE",
"556 -21 CURVE SMOOTH",
"586 -21 OFFCURVE",
"606 -3 OFFCURVE",
"616 19 CURVE",
"575 59 OFFCURVE",
"556 189 OFFCURVE",
"542 660 CURVE",
"539 660 LINE SMOOTH",
"463 660 OFFCURVE",
"340 690 OFFCURVE",
"277 690 CURVE SMOOTH",
"136 690 OFFCURVE",
"63 591 OFFCURVE",
"63 501 CURVE SMOOTH",
"63 422 OFFCURVE",
"104 384 OFFCURVE",
"156 384 CURVE SMOOTH",
"172 384 OFFCURVE",
"188 388 OFFCURVE",
"204 396 CURVE",
"182 428 OFFCURVE",
"170 469 OFFCURVE",
"170 509 CURVE SMOOTH",
"170 578 OFFCURVE",
"211 642 OFFCURVE",
"292 642 CURVE SMOOTH",
"328 642 OFFCURVE",
"366 631 OFFCURVE",
"389 625 CURVE",
"395 618 LINE",
"396 618 LINE",
"202 132 OFFCURVE",
"162 51 OFFCURVE",
"51 51 CURVE",
"49 44 OFFCURVE",
"48 38 OFFCURVE",
"48 31 CURVE SMOOTH",
"48 3 OFFCURVE",
"68 -22 OFFCURVE",
"115 -22 CURVE SMOOTH"
);
},
{
closed = 1;
nodes = (
"616 -258 OFFCURVE",
"651 -233 OFFCURVE",
"651 -201 CURVE SMOOTH",
"651 -190 OFFCURVE",
"644 -181 OFFCURVE",
"635 -176 CURVE",
"624 -194 OFFCURVE",
"602 -201 OFFCURVE",
"580 -201 CURVE SMOOTH",
"543 -201 OFFCURVE",
"524 -181 OFFCURVE",
"524 -140 CURVE SMOOTH",
"524 -93 OFFCURVE",
"556 -55 OFFCURVE",
"607 4 CURVE",
"593 22 LINE",
"542 -13 OFFCURVE",
"460 -65 OFFCURVE",
"460 -151 CURVE SMOOTH",
"460 -219 OFFCURVE",
"505 -258 OFFCURVE",
"571 -258 CURVE SMOOTH"
);
},
{
closed = 1;
nodes = (
"364 316 OFFCURVE",
"403 416 OFFCURVE",
"450 545 CURVE",
"452 545 LINE",
"457 416 OFFCURVE",
"462 317 OFFCURVE",
"466 239 CURVE",
"331 239 LINE"
);
}
);
};
layerId = "1252CFB8-7EB2-4C2F-9C11-14383990C0AA";
paths = (
{
closed = 1;
nodes = (
"197 -22 OFFCURVE",
"265 33 OFFCURVE",
"450 545 CURVE",
"452 545 LINE",
"472 51 OFFCURVE",
"479 -21 OFFCURVE",
"556 -21 CURVE SMOOTH",
"586 -21 OFFCURVE",
"606 -3 OFFCURVE",
"616 19 CURVE",
"575 59 OFFCURVE",
"556 189 OFFCURVE",
"542 660 CURVE",
"413 660 LINE",
"204 137 OFFCURVE",
"165 51 OFFCURVE",
"51 51 CURVE",
"49 44 OFFCURVE",
"48 38 OFFCURVE",
"48 31 CURVE SMOOTH",
"48 3 OFFCURVE",
"68 -22 OFFCURVE",
"115 -22 CURVE SMOOTH"
);
},
{
closed = 1;
nodes = (
"616 -258 OFFCURVE",
"651 -233 OFFCURVE",
"651 -201 CURVE SMOOTH",
"651 -190 OFFCURVE",
"644 -181 OFFCURVE",
"635 -176 CURVE",
"624 -194 OFFCURVE",
"602 -201 OFFCURVE",
"580 -201 CURVE SMOOTH",
"543 -201 OFFCURVE",
"524 -181 OFFCURVE",
"524 -140 CURVE SMOOTH",
"524 -93 OFFCURVE",
"556 -55 OFFCURVE",
"607 4 CURVE",
"593 22 LINE",
"542 -13 OFFCURVE",
"460 -65 OFFCURVE",
"460 -151 CURVE SMOOTH",
"460 -219 OFFCURVE",
"505 -258 OFFCURVE",
"571 -258 CURVE SMOOTH"
);
},
{
closed = 1;
nodes = (
"510 170 LINE",
"506 239 LINE",
"277 239 LINE",
"251 170 LINE"
);
},
{
closed = 1;
nodes = (
"172 384 OFFCURVE",
"188 388 OFFCURVE",
"204 396 CURVE",
"182 428 OFFCURVE",
"170 469 OFFCURVE",
"170 509 CURVE SMOOTH",
"170 578 OFFCURVE",
"211 642 OFFCURVE",
"292 642 CURVE SMOOTH",
"328 642 OFFCURVE",
"366 631 OFFCURVE",
"389 625 CURVE",
"395 618 LINE",
"447 603 LINE",
"539 660 LINE",
"463 660 OFFCURVE",
"340 690 OFFCURVE",
"277 690 CURVE SMOOTH",
"136 690 OFFCURVE",
"63 591 OFFCURVE",
"63 501 CURVE SMOOTH",
"63 422 OFFCURVE",
"104 384 OFFCURVE",
"156 384 CURVE SMOOTH"
);
}
);
width = 665;
},
{
anchors = (
{
name = top;
position = "{540, 696}";
}
);
hints = (
{
horizontal = 1;
place = "{-309.6, 100.8}";
type = Stem;
},
{
horizontal = 1;
place = "{0, 21}";
target = up;
type = BottomGhost;
},
{
horizontal = 1;
place = "{192, 94.8}";
type = Stem;
},
{
horizontal = 1;
place = "{792, -20}";
target = down;
type = TopGhost;
},
{
place = "{404.4, 134.4}";
type = Stem;
},
{
horizontal = 1;
place = "{-19.2, 21}";
target = up;
type = BottomGhost;
},
{
horizontal = 1;
place = "{624, 168}";
type = Stem;
},
{
horizontal = 1;
place = "{0, 21}";
target = up;
type = BottomGhost;
},
{
horizontal = 1;
place = "{192, 94.8}";
type = Stem;
},
{
horizontal = 1;
place = "{792, -20}";
target = down;
type = TopGhost;
},
{
place = "{-72, 748.8}";
type = Stem;
},
{
horizontal = 1;
place = "{-24, 21}";
target = up;
type = BottomGhost;
},
{
horizontal = 1;
place = "{624, 168}";
type = Stem;
},
{
horizontal = 1;
place = "{-309.6, 100.8}";
type = Stem;
},
{
horizontal = 1;
place = "{12, 10.8}";
type = Stem;
},
{
place = "{570, 134.4}";
type = Stem;
},
{
horizontal = 1;
place = "{0, 21}";
target = up;
type = BottomGhost;
},
{
horizontal = 1;
place = "{192, 94.8}";
type = Stem;
},
{
horizontal = 1;
place = "{792, -20}";
target = down;
type = TopGhost;
},
{
place = "{-72, 748.8}";
type = Stem;
},
{
horizontal = 1;
place = "{-24, 21}";
target = up;
type = BottomGhost;
},
{
horizontal = 1;
place = "{624, 168}";
type = Stem;
}
);
layerId = "E87290C6-23CF-4B1A-9291-A4CEFD7391A8";
paths = (
{
closed = 1;
nodes = (
"238 -26 OFFCURVE",
"365 100 OFFCURVE",
"487 513 CURVE",
"488 513 LINE",
"490 68 OFFCURVE",
"526 -20 OFFCURVE",
"650 -20 CURVE SMOOTH",
"708 -20 OFFCURVE",
"749 7 OFFCURVE",
"766 44 CURVE",
"714 113 OFFCURVE",
"712 305 OFFCURVE",
"692 660 CURVE",
"449 660 LINE",
"410 515 OFFCURVE",
"257 81 OFFCURVE",
"79 71 CURVE",
"73 62 OFFCURVE",
"71 52 OFFCURVE",
"71 42 CURVE SMOOTH",
"71 8 OFFCURVE",
"102 -26 OFFCURVE",
"153 -26 CURVE SMOOTH"
);
},
{
closed = 1;
nodes = (
"737 -258 OFFCURVE",
"775 -228 OFFCURVE",
"775 -195 CURVE SMOOTH",
"775 -172 OFFCURVE",
"769 -161 OFFCURVE",
"756 -144 CURVE",
"739 -162 OFFCURVE",
"717 -169 OFFCURVE",
"693 -169 CURVE SMOOTH",
"663 -169 OFFCURVE",
"648 -153 OFFCURVE",
"648 -120 CURVE SMOOTH",
"648 -70 OFFCURVE",
"681 -25 OFFCURVE",
"733 4 CURVE",
"690 22 LINE",
"600 0 OFFCURVE",
"526 -53 OFFCURVE",
"526 -145 CURVE SMOOTH",
"526 -220 OFFCURVE",
"577 -258 OFFCURVE",
"661 -258 CURVE SMOOTH"
);
},
{
closed = 1;
nodes = (
"580 158 LINE",
"580 239 LINE",
"302 239 LINE",
"307 158 LINE"
);
},
{
closed = 1;
nodes = (
"236 337 OFFCURVE",
"270 347 OFFCURVE",
"290 372 CURVE",
"268 420 OFFCURVE",
"265 449 OFFCURVE",
"265 487 CURVE SMOOTH",
"265 573 OFFCURVE",
"317 619 OFFCURVE",
"382 619 CURVE SMOOTH",
"395 619 OFFCURVE",
"409 618 OFFCURVE",
"426 612 CURVE",
"431 602 LINE",
"573 547 LINE",
"693 660 LINE",
"563 660 OFFCURVE",
"450 689 OFFCURVE",
"315 689 CURVE SMOOTH",
"140 689 OFFCURVE",
"67 579 OFFCURVE",
"67 483 CURVE SMOOTH",
"67 410 OFFCURVE",
"112 337 OFFCURVE",
"212 337 CURVE SMOOTH"
);
}
);
width = 798;
}
);
leftKerningGroup = A;
note = Aogonek;
rightKerningGroup = A;
unicode = 0104;
},
{
glyphname = AE;
layers = (
{
background = {
paths = (
{
closed = 1;
nodes = (
"633 596 OFFCURVE",
"681 585 OFFCURVE",
"726 585 CURVE SMOOTH",
"797 585 OFFCURVE",
"821 624 OFFCURVE",
"821 660 CURVE SMOOTH",
"821 677 OFFCURVE",
"815 694 OFFCURVE",
"806 704 CURVE",
"776 680 OFFCURVE",
"697 667 OFFCURVE",
"588 667 CURVE SMOOTH",
"446 667 OFFCURVE",
"328 690 OFFCURVE",
"278 690 CURVE SMOOTH",
"137 690 OFFCURVE",
"64 591 OFFCURVE",
"64 501 CURVE SMOOTH",
"64 422 OFFCURVE",
"105 384 OFFCURVE",
"157 384 CURVE SMOOTH",
"173 384 OFFCURVE",
"189 388 OFFCURVE",
"205 396 CURVE",
"183 428 OFFCURVE",
"171 469 OFFCURVE",
"171 509 CURVE SMOOTH",
"171 578 OFFCURVE",
"212 642 OFFCURVE",
"293 642 CURVE SMOOTH",
"329 642 OFFCURVE",
"372 635 OFFCURVE",
"395 629 CURVE",
"401 622 LINE",
"162 191 OFFCURVE",
"33 51 OFFCURVE",
"-78 51 CURVE",
"-83 42 OFFCURVE",
"-86 33 OFFCURVE",
"-86 24 CURVE SMOOTH",
"-86 -1 OFFCURVE",
"-64 -22 OFFCURVE",
"-21 -22 CURVE SMOOTH",
"57 -22 OFFCURVE",
"160 24 OFFCURVE",
"422 511 CURVE",
"420 501 OFFCURVE",
"419 491 OFFCURVE",
"419 481 CURVE SMOOTH",
"419 424 OFFCURVE",
"444 378 OFFCURVE",
"487 353 CURVE",
"391 304 OFFCURVE",
"350 242 OFFCURVE",
"350 170 CURVE SMOOTH",
"350 44 OFFCURVE",
"442 -22 OFFCURVE",
"585 -22 CURVE SMOOTH",
"681 -22 OFFCURVE",
"768 31 OFFCURVE",
"768 83 CURVE SMOOTH",
"768 94 OFFCURVE",
"764 108 OFFCURVE",
"752 120 CURVE",
"712 80 OFFCURVE",
"654 53 OFFCURVE",
"596 53 CURVE SMOOTH",
"519 53 OFFCURVE",
"453 90 OFFCURVE",
"453 181 CURVE SMOOTH",
"453 241 OFFCURVE",
"493 287 OFFCURVE",
"553 323 CURVE",
"580 315 OFFCURVE",
"613 307 OFFCURVE",
"658 307 CURVE SMOOTH",
"705 307 OFFCURVE",
"729 331 OFFCURVE",
"729 357 CURVE SMOOTH",
"729 365 OFFCURVE",
"727 372 OFFCURVE",
"724 379 CURVE",
"691 375 OFFCURVE",
"646 375 OFFCURVE",
"628 375 CURVE SMOOTH",
"547 376 LINE",
"516 413 OFFCURVE",
"508 454 OFFCURVE",
"508 486 CURVE SMOOTH",
"508 525 OFFCURVE",
"522 571 OFFCURVE",
"569 613 CURVE"
);
},
{
closed = 1;
nodes = (
"408 170 LINE",
"419 239 LINE",
"190 239 LINE",
"149 170 LINE"
);
}
);
};
layerId = "1252CFB8-7EB2-4C2F-9C11-14383990C0AA";
paths = (
{
closed = 1;
nodes = (
"31 -22 OFFCURVE",
"94 -1 OFFCURVE",
"215 170 CURVE",
"354 170 LINE",
"346 50 OFFCURVE",
"437 -22 OFFCURVE",
"578 -22 CURVE SMOOTH",
"679 -22 OFFCURVE",
"764 30 OFFCURVE",
"764 83 CURVE SMOOTH",
"764 95 OFFCURVE",
"760 105 OFFCURVE",
"748 112 CURVE",
"713 80 OFFCURVE",
"654 53 OFFCURVE",
"592 53 CURVE SMOOTH",
"508 53 OFFCURVE",
"452 101 OFFCURVE",
"452 175 CURVE SMOOTH",
"452 239 OFFCURVE",
"487 282 OFFCURVE",
"554 323 CURVE",
"582 315 OFFCURVE",
"614 307 OFFCURVE",
"658 307 CURVE SMOOTH",
"702 307 OFFCURVE",
"725 330 OFFCURVE",
"725 357 CURVE SMOOTH",
"725 365 OFFCURVE",
"723 373 OFFCURVE",
"721 379 CURVE",
"688 375 OFFCURVE",
"645 375 OFFCURVE",
"628 375 CURVE SMOOTH",
"544 376 LINE",
"517 408 OFFCURVE",
"504 444 OFFCURVE",
"504 486 CURVE SMOOTH",
"504 540 OFFCURVE",
"520 574 OFFCURVE",
"557 611 CURVE",
"651 594 OFFCURVE",
"702 585 OFFCURVE",
"746 585 CURVE SMOOTH",
"814 585 OFFCURVE",
"837 623 OFFCURVE",
"837 660 CURVE SMOOTH",
"837 675 OFFCURVE",
"832 692 OFFCURVE",
"825 701 CURVE",
"794 680 OFFCURVE",
"715 667 OFFCURVE",
"588 667 CURVE SMOOTH",
"446 667 OFFCURVE",
"327 690 OFFCURVE",
"278 690 CURVE SMOOTH",
"140 690 OFFCURVE",
"68 592 OFFCURVE",
"68 501 CURVE SMOOTH",
"68 429 OFFCURVE",
"103 384 OFFCURVE",
"157 384 CURVE SMOOTH",
"173 384 OFFCURVE",
"189 388 OFFCURVE",
"202 396 CURVE",
"176 429 OFFCURVE",
"164 469 OFFCURVE",
"164 509 CURVE SMOOTH",
"164 577 OFFCURVE",
"206 642 OFFCURVE",
"293 642 CURVE SMOOTH",
"331 642 OFFCURVE",
"377 634 OFFCURVE",
"399 628 CURVE",
"404 622 LINE",
"180 216 OFFCURVE",
"42 51 OFFCURVE",
"-75 51 CURVE",
"-79 43 OFFCURVE",
"-82 34 OFFCURVE",
"-82 24 CURVE SMOOTH",
"-82 -2 OFFCURVE",
"-61 -22 OFFCURVE",
"-21 -22 CURVE SMOOTH"
);
},
{
closed = 1;
nodes = (
"306 310 OFFCURVE",
"367 414 OFFCURVE",
"426 525 CURVE",
"429 525 LINE",
"425 507 OFFCURVE",
"423 492 OFFCURVE",
"423 481 CURVE SMOOTH",
"423 425 OFFCURVE",
"441 386 OFFCURVE",
"480 358 CURVE",
"420 330 OFFCURVE",
"388 283 OFFCURVE",
"368 239 CURVE",
"261 239 LINE"
);
}
);
width = 835;
},
{
hints = (
{
horizontal = 1;
place = "{0, 21}";
target = up;
type = BottomGhost;
},
{
horizontal = 1;
place = "{212.4, 92.4}";
type = Stem;
},
{
horizontal = 1;
place = "{642, 150}";
type = Stem;
},
{
place = "{396, 219.6}";
type = Stem;
},
{
horizontal = 1;
place = "{-24, 170.4}";
type = Stem;
},
{
horizontal = 1;
place = "{330, 134.4}";
type = Stem;
},
{
horizontal = 1;
place = "{674.4, 117.6}";
type = Stem;
}
);
layerId = "E87290C6-23CF-4B1A-9291-A4CEFD7391A8";
paths = (
{
closed = 1;
nodes = (
"115 -26 OFFCURVE",
"194 24 OFFCURVE",
"288 158 CURVE",
"383 158 LINE",
"384 44 OFFCURVE",
"466 -21 OFFCURVE",
"610 -21 CURVE SMOOTH",
"735 -21 OFFCURVE",
"866 35 OFFCURVE",
"866 136 CURVE SMOOTH",
"866 165 OFFCURVE",
"851 188 OFFCURVE",
"828 197 CURVE",
"785 154 OFFCURVE",
"739 133 OFFCURVE",
"694 133 CURVE SMOOTH",
"634 133 OFFCURVE",
"613 171 OFFCURVE",
"613 207 CURVE SMOOTH",
"613 232 OFFCURVE",
"623 264 OFFCURVE",
"640 283 CURVE",
"676 273 OFFCURVE",
"705 269 OFFCURVE",
"728 269 CURVE SMOOTH",
"793 269 OFFCURVE",
"837 295 OFFCURVE",
"837 364 CURVE SMOOTH",
"837 371 OFFCURVE",
"836 379 OFFCURVE",
"835 389 CURVE",
"826 388 OFFCURVE",
"772 388 OFFCURVE",
"747 388 CURVE SMOOTH",
"678 388 LINE",
"671 406 OFFCURVE",
"666 430 OFFCURVE",
"666 451 CURVE SMOOTH",
"666 482 OFFCURVE",
"676 519 OFFCURVE",
"696 545 CURVE",
"728 532 OFFCURVE",
"780 525 OFFCURVE",
"810 525 CURVE SMOOTH",
"899 525 OFFCURVE",
"938 580 OFFCURVE",
"938 635 CURVE SMOOTH",
"938 669 OFFCURVE",
"923 703 OFFCURVE",
"896 724 CURVE",
"854 681 OFFCURVE",
"716 659 OFFCURVE",
"610 659 CURVE SMOOTH",
"516 659 OFFCURVE",
"465 689 OFFCURVE",
"327 689 CURVE SMOOTH",
"151 689 OFFCURVE",
"78 579 OFFCURVE",
"78 483 CURVE SMOOTH",
"78 409 OFFCURVE",
"125 337 OFFCURVE",
"224 337 CURVE SMOOTH",
"247 337 OFFCURVE",
"281 347 OFFCURVE",
"303 372 CURVE",
"282 419 OFFCURVE",
"278 449 OFFCURVE",
"278 487 CURVE SMOOTH",
"278 573 OFFCURVE",
"330 619 OFFCURVE",
"394 619 CURVE SMOOTH",
"407 619 OFFCURVE",
"419 617 OFFCURVE",
"436 611 CURVE",
"440 603 LINE",
"361 428 OFFCURVE",
"163 80 OFFCURVE",
"1 71 CURVE",
"-8 60 OFFCURVE",
"-12 46 OFFCURVE",
"-12 34 CURVE SMOOTH",
"-12 3 OFFCURVE",
"13 -26 OFFCURVE",
"62 -26 CURVE SMOOTH"
);
},
{
closed = 1;
nodes = (
"389 314 OFFCURVE",
"437 404 OFFCURVE",
"490 519 CURVE",
"490 519 LINE",
"486 502 OFFCURVE",
"483 482 OFFCURVE",
"483 463 CURVE SMOOTH",
"483 412 OFFCURVE",
"499 358 OFFCURVE",
"538 335 CURVE",
"479 316 OFFCURVE",
"434 282 OFFCURVE",
"409 239 CURVE",
"343 239 LINE"
);
}
);
width = 801;
}
);
leftKerningGroup = A;
note = AE;
rightKerningGroup = E;
unicode = 00C6;
},
{
glyphname = B;
layers = (
{
background = {
paths = (
{
closed = 1;
nodes = (
"152 299 OFFCURVE",
"170 307 OFFCURVE",
"182 319 CURVE",
"158 357 OFFCURVE",
"149 386 OFFCURVE",
"149 430 CURVE SMOOTH",
"149 575 OFFCURVE",
"294 621 OFFCURVE",
"399 621 CURVE SMOOTH",
"525 621 OFFCURVE",
"585 583 OFFCURVE",
"585 507 CURVE SMOOTH",
"585 419 OFFCURVE",
"545 373 OFFCURVE",
"429 370 CURVE SMOOTH",
"350 368 LINE",
"350 333 LINE",
"370 331 OFFCURVE",
"389 329 OFFCURVE",
"408 329 CURVE SMOOTH",
"591 329 OFFCURVE",
"690 392 OFFCURVE",
"690 510 CURVE SMOOTH",
"690 617 OFFCURVE",
"600 680 OFFCURVE",
"415 680 CURVE SMOOTH",
"171 680 OFFCURVE",
"37 555 OFFCURVE",
"37 421 CURVE SMOOTH",
"37 353 OFFCURVE",
"65 299 OFFCURVE",
"128 299 CURVE SMOOTH"
);
},
{
closed = 1;
nodes = (
"515 -22 OFFCURVE",
"683 39 OFFCURVE",
"683 201 CURVE SMOOTH",
"683 320 OFFCURVE",
"568 369 OFFCURVE",
"450 369 CURVE SMOOTH",
"435 369 OFFCURVE",
"431 367 OFFCURVE",
"416 367 CURVE SMOOTH",
"410 367 OFFCURVE",
"404 366 OFFCURVE",
"398 366 CURVE SMOOTH",
"382 366 OFFCURVE",
"370 368 OFFCURVE",
"350 368 CURVE",
"341 302 LINE",
"380 302 LINE SMOOTH",
"474 302 OFFCURVE",
"569 296 OFFCURVE",
"569 200 CURVE SMOOTH",
"569 108 OFFCURVE",
"504 44 OFFCURVE",
"389 44 CURVE SMOOTH",
"317 44 OFFCURVE",
"274 50 OFFCURVE",
"241 58 CURVE",
"187 22 LINE",
"227 -11 OFFCURVE",
"291 -22 OFFCURVE",
"374 -22 CURVE SMOOTH"
);
},
{
closed = 1;
nodes = (
"278 24 OFFCURVE",
"310 40 OFFCURVE",
"318 79 CURVE SMOOTH",
"395 457 LINE SMOOTH",
"401 489 OFFCURVE",
"408 528 OFFCURVE",
"443 545 CURVE",
"439 563 OFFCURVE",
"421 580 OFFCURVE",
"387 580 CURVE SMOOTH",
"336 580 OFFCURVE",
"316 551 OFFCURVE",
"305 493 CURVE SMOOTH",
"234 128 LINE SMOOTH",
"224 78 OFFCURVE",
"209 52 OFFCURVE",
"187 22 CURVE",
"199 20 OFFCURVE",
"213 19 OFFCURVE",
"225 19 CURVE SMOOTH",
"235 19 OFFCURVE",
"245 20 OFFCURVE",
"253 21 CURVE SMOOTH"
);
},
{
closed = 0;
nodes = (
"278 615 LINE SMOOTH",
"133 615 OFFCURVE",
"55 515 OFFCURVE",
"55 420 CURVE SMOOTH",
"55 356 OFFCURVE",
"85 309 OFFCURVE",
"137 309 CURVE SMOOTH",
"153 309 OFFCURVE",
"168 313 OFFCURVE",
"180 319 CURVE",
"159 348 OFFCURVE",
"150 383 OFFCURVE",
"150 419 CURVE SMOOTH",
"150 505 OFFCURVE",
"196 567 OFFCURVE",
"289 567 CURVE SMOOTH",
"328 567 OFFCURVE",
"368 555 OFFCURVE",
"388 549 CURVE"
);
}
);
};
layerId = "1252CFB8-7EB2-4C2F-9C11-14383990C0AA";
paths = (
{
closed = 1;
nodes = (
"495 -22 OFFCURVE",
"664 38 OFFCURVE",
"672 197 CURVE SMOOTH",
"676 275 OFFCURVE",
"629 326 OFFCURVE",
"555 346 CURVE",
"650 378 OFFCURVE",
"696 442 OFFCURVE",
"697 516 CURVE SMOOTH",
"698 620 OFFCURVE",
"605 680 OFFCURVE",
"436 680 CURVE SMOOTH",
"192 680 OFFCURVE",
"49 553 OFFCURVE",
"49 412 CURVE SMOOTH",
"49 343 OFFCURVE",
"83 304 OFFCURVE",
"128 304 CURVE SMOOTH",
"147 304 OFFCURVE",
"164 309 OFFCURVE",
"176 319 CURVE",
"155 355 OFFCURVE",
"148 380 OFFCURVE",
"149 416 CURVE SMOOTH",
"150 571 OFFCURVE",
"289 621 OFFCURVE",
"417 621 CURVE SMOOTH",
"538 621 OFFCURVE",
"600 587 OFFCURVE",
"600 512 CURVE SMOOTH",
"599 431 OFFCURVE",
"555 373 OFFCURVE",
"431 370 CURVE SMOOTH",
"377 369 LINE",
"395 457 LINE SMOOTH",
"401 489 OFFCURVE",
"408 528 OFFCURVE",
"443 545 CURVE",
"439 563 OFFCURVE",
"421 580 OFFCURVE",
"387 580 CURVE SMOOTH",
"336 580 OFFCURVE",
"316 551 OFFCURVE",
"305 493 CURVE SMOOTH",
"234 128 LINE SMOOTH",
"223 71 OFFCURVE",
"205 39 OFFCURVE",
"186 13 CURVE",
"216 -4 OFFCURVE",
"270 -22 OFFCURVE",
"356 -22 CURVE SMOOTH"
);
},
{
closed = 1;
nodes = (
"346 44 OFFCURVE",
"323 44 OFFCURVE",
"302 46 CURVE",
"310 55 OFFCURVE",
"315 65 OFFCURVE",
"318 79 CURVE SMOOTH",
"364 309 LINE",
"508 308 OFFCURVE",
"569 285 OFFCURVE",
"569 207 CURVE SMOOTH",
"569 110 OFFCURVE",
"493 44 OFFCURVE",
"374 44 CURVE SMOOTH"
);
}
);
width = 716;
},
{
hints = (
{
horizontal = 1;
place = "{-6, 86.4}";
type = Stem;
},
{
horizontal = 1;
place = "{380.4, 81.6}";
type = Stem;
},
{
horizontal = 1;
place = "{720, 78}";
type = Stem;
},
{
place = "{454.8, 234}";
type = Stem;
},
{
horizontal = 1;
place = "{0, 21}";
target = up;
type = BottomGhost;
},
{
place = "{500.4, 202.8}";
type = Stem;
}
);
layerId = "E87290C6-23CF-4B1A-9291-A4CEFD7391A8";
paths = (
{
closed = 1;
nodes = (
"736 -24 OFFCURVE",
"830 99 OFFCURVE",
"828 231 CURVE SMOOTH",
"827 327 OFFCURVE",
"751 360 OFFCURVE",
"704 376 CURVE",
"753 402 OFFCURVE",
"815 455 OFFCURVE",
"815 524 CURVE SMOOTH",
"814 657 OFFCURVE",
"613 691 OFFCURVE",
"447 691 CURVE SMOOTH",
"164 691 OFFCURVE",
"8 579 OFFCURVE",
"8 429 CURVE SMOOTH",
"8 354 OFFCURVE",
"58 281 OFFCURVE",
"157 281 CURVE SMOOTH",
"179 281 OFFCURVE",
"213 291 OFFCURVE",
"235 315 CURVE",
"213 362 OFFCURVE",
"208 394 OFFCURVE",
"208 434 CURVE SMOOTH",
"208 561 OFFCURVE",
"337 625 OFFCURVE",
"449 625 CURVE SMOOTH",
"564 625 OFFCURVE",
"638 577 OFFCURVE",
"638 502 CURVE SMOOTH",
"639 450 OFFCURVE",
"601 387 OFFCURVE",
"495 388 CURVE SMOOTH",
"493 388 LINE",
"499 421 LINE SMOOTH",
"508 464 OFFCURVE",
"512 506 OFFCURVE",
"550 519 CURVE",
"546 553 OFFCURVE",
"500 574 OFFCURVE",
"446 574 CURVE SMOOTH",
"334 574 OFFCURVE",
"286 514 OFFCURVE",
"267 409 CURVE SMOOTH",
"216 141 LINE SMOOTH",
"203 69 OFFCURVE",
"200 45 OFFCURVE",
"166 33 CURVE",
"170 -9 OFFCURVE",
"275 -24 OFFCURVE",
"386 -24 CURVE SMOOTH"
);
},
{
closed = 1;
nodes = (
"416 45 OFFCURVE",
"406 46 OFFCURVE",
"396 48 CURVE",
"416 56 OFFCURVE",
"437 93 OFFCURVE",
"454 176 CURVE SMOOTH",
"480 319 LINE",
"564 313 OFFCURVE",
"611 286 OFFCURVE",
"611 215 CURVE SMOOTH",
"611 124 OFFCURVE",
"549 45 OFFCURVE",
"423 45 CURVE SMOOTH"
);
}
);
width = 850;
}
);
leftKerningGroup = H;
note = B;
rightKerningGroup = B;
unicode = 0042;
},
{
glyphname = C;
layers = (
{
anchors = (
{
name = bottom;
position = "{201, 0}";
},
{
name = top;
position = "{338, 660}";
}
);
background = {
paths = (
{
closed = 1;
nodes = (
"130 680 OFFCURVE",
"25 412 OFFCURVE",
"25 217 CURVE SMOOTH",
"25 63 OFFCURVE",
"92 -20 OFFCURVE",
"212 -20 CURVE SMOOTH",
"311 -20 OFFCURVE",
"421 40 OFFCURVE",
"421 136 CURVE SMOOTH",
"421 166 OFFCURVE",
"410 177 OFFCURVE",
"388 188 CURVE",
"353 121 OFFCURVE",
"310 64 OFFCURVE",
"235 64 CURVE SMOOTH",
"150 64 OFFCURVE",
"131 138 OFFCURVE",
"131 221 CURVE SMOOTH",
"131 359 OFFCURVE",
"188 609 OFFCURVE",
"328 609 CURVE SMOOTH",
"371 609 OFFCURVE",
"400 587 OFFCURVE",
"400 544 CURVE SMOOTH",
"400 527 OFFCURVE",
"393 493 OFFCURVE",
"383 471 CURVE",
"392 458 OFFCURVE",
"414 452 OFFCURVE",
"433 452 CURVE SMOOTH",
"475 452 OFFCURVE",
"510 482 OFFCURVE",
"510 545 CURVE SMOOTH",
"510 628 OFFCURVE",
"452 680 OFFCURVE",
"353 680 CURVE SMOOTH"
);
},
{
closed = 1;
nodes = (
"353 -21 OFFCURVE",
"431 65 OFFCURVE",
"436 136 CURVE SMOOTH",
"439 183 OFFCURVE",
"410 217 OFFCURVE",
"379 216 CURVE",
"373 160 OFFCURVE",
"328 63 OFFCURVE",
"235 63 CURVE SMOOTH",
"150 63 OFFCURVE",
"131 137 OFFCURVE",
"131 220 CURVE SMOOTH",
"131 358 OFFCURVE",
"188 609 OFFCURVE",
"328 609 CURVE SMOOTH",
"371 609 OFFCURVE",
"400 587 OFFCURVE",
"400 544 CURVE SMOOTH",
"400 527 OFFCURVE",
"387 464 OFFCURVE",
"322 461 CURVE SMOOTH",
"321 461 OFFCURVE",
"320 461 OFFCURVE",
"319 461 CURVE",
"317 456 OFFCURVE",
"317 451 OFFCURVE",
"317 446 CURVE SMOOTH",
"317 420 OFFCURVE",
"342 402 OFFCURVE",
"383 402 CURVE SMOOTH",
"439 402 OFFCURVE",
"498 456 OFFCURVE",
"498 540 CURVE SMOOTH",
"498 624 OFFCURVE",
"439 680 OFFCURVE",
"353 680 CURVE SMOOTH",
"130 680 OFFCURVE",
"25 411 OFFCURVE",
"25 216 CURVE SMOOTH",
"25 62 OFFCURVE",
"92 -21 OFFCURVE",
"230 -21 CURVE SMOOTH"
);
}
);
};
layerId = "1252CFB8-7EB2-4C2F-9C11-14383990C0AA";
paths = (
{
closed = 1;
nodes = (
"350 -21 OFFCURVE",
"432 75 OFFCURVE",
"432 143 CURVE SMOOTH",
"432 182 OFFCURVE",
"410 214 OFFCURVE",
"383 216 CURVE",
"377 155 OFFCURVE",
"332 57 OFFCURVE",
"235 57 CURVE SMOOTH",
"147 57 OFFCURVE",
"128 131 OFFCURVE",
"128 214 CURVE SMOOTH",
"128 352 OFFCURVE",
"186 612 OFFCURVE",
"329 612 CURVE SMOOTH",
"376 612 OFFCURVE",
"404 585 OFFCURVE",
"404 544 CURVE SMOOTH",
"404 527 OFFCURVE",
"391 464 OFFCURVE",
"322 461 CURVE",
"322 461 OFFCURVE",
"322 461 OFFCURVE",
"323 461 CURVE",
"321 458 OFFCURVE",
"321 453 OFFCURVE",
"321 446 CURVE SMOOTH",
"321 419 OFFCURVE",
"344 402 OFFCURVE",
"383 402 CURVE SMOOTH",
"436 402 OFFCURVE",
"494 455 OFFCURVE",
"494 540 CURVE SMOOTH",
"494 623 OFFCURVE",
"438 680 OFFCURVE",
"353 680 CURVE SMOOTH",
"134 680 OFFCURVE",
"29 412 OFFCURVE",
"29 216 CURVE SMOOTH",
"29 60 OFFCURVE",
"97 -21 OFFCURVE",
"224 -21 CURVE SMOOTH"
);
}
);
width = 479;
},
{
anchors = (
{
name = bottom;
position = "{280, 0}";
},
{
name = top;
position = "{418, 696}";
}
);
hints = (
{
horizontal = 1;
place = "{-24, 182.4}";
type = Stem;
},
{
horizontal = 1;
place = "{730.8, 85.2}";
type = Stem;
},
{
place = "{25.2, 258}";
type = Stem;
},
{
place = "{540, 210}";
type = Stem;
}
);
layerId = "E87290C6-23CF-4B1A-9291-A4CEFD7391A8";
paths = (
{
closed = 1;
nodes = (
"504 -20 OFFCURVE",
"593 75 OFFCURVE",
"593 159 CURVE SMOOTH",
"593 194 OFFCURVE",
"574 225 OFFCURVE",
"532 242 CURVE",
"495 169 OFFCURVE",
"430 146 OFFCURVE",
"383 146 CURVE SMOOTH",
"296 146 OFFCURVE",
"256 196 OFFCURVE",
"256 320 CURVE SMOOTH",
"256 478 OFFCURVE",
"322 608 OFFCURVE",
"408 608 CURVE SMOOTH",
"447 608 OFFCURVE",
"465 578 OFFCURVE",
"465 546 CURVE SMOOTH",
"465 493 OFFCURVE",
"428 463 OFFCURVE",
"383 463 CURVE",
"374 463 OFFCURVE",
"364 465 OFFCURVE",
"353 467 CURVE",
"351 458 OFFCURVE",
"350 449 OFFCURVE",
"350 441 CURVE SMOOTH",
"350 382 OFFCURVE",
"403 336 OFFCURVE",
"479 336 CURVE SMOOTH",
"584 336 OFFCURVE",
"649 429 OFFCURVE",
"649 514 CURVE SMOOTH",
"649 595 OFFCURVE",
"589 680 OFFCURVE",
"432 680 CURVE SMOOTH",
"172 680 OFFCURVE",
"19 502 OFFCURVE",
"19 270 CURVE SMOOTH",
"19 78 OFFCURVE",
"119 -20 OFFCURVE",
"298 -20 CURVE SMOOTH"
);
}
);
width = 629;
}
);
leftKerningGroup = O;
note = C;
rightKerningGroup = C;
unicode = 0043;
},
{
glyphname = D;
layers = (
{
anchors = (
{
name = center;
position = "{322, 308}";
},
{
name = top;
position = "{397, 660}";
}
);
background = {
paths = (
{
closed = 1;
nodes = (
"287 37 OFFCURVE",
"307 45 OFFCURVE",
"313 74 CURVE SMOOTH",
"414 574 LINE SMOOTH",
"420 606 OFFCURVE",
"434 621 OFFCURVE",
"456 623 CURVE",
"449 633 OFFCURVE",
"420 635 OFFCURVE",
"406 635 CURVE SMOOTH",
"390 635 OFFCURVE",
"359 627 OFFCURVE",
"346 620 CURVE",
"346 620 OFFCURVE",
"352 613 OFFCURVE",
"352 613 CURVE",
"332 590 OFFCURVE",
"315 556 OFFCURVE",
"305 507 CURVE SMOOTH",
"229 120 LINE SMOOTH",
"219 70 OFFCURVE",
"204 44 OFFCURVE",
"182 14 CURVE",
"207 17 OFFCURVE",
"222 30 OFFCURVE",
"258 34 CURVE SMOOTH"
);
},
{
closed = 1;
nodes = (
"724 176 OFFCURVE",
"724 428 CURVE SMOOTH",
"724 587 OFFCURVE",
"633 679 OFFCURVE",
"427 679 CURVE SMOOTH",
"183 679 OFFCURVE",
"42 554 OFFCURVE",
"42 421 CURVE SMOOTH",
"42 353 OFFCURVE",
"70 299 OFFCURVE",
"133 299 CURVE SMOOTH",
"157 299 OFFCURVE",
"175 307 OFFCURVE",
"187 319 CURVE",
"163 357 OFFCURVE",
"154 386 OFFCURVE",
"154 430 CURVE SMOOTH",
"154 574 OFFCURVE",
"299 618 OFFCURVE",
"404 618 CURVE SMOOTH",
"537 618 OFFCURVE",
"615 568 OFFCURVE",
"615 424 CURVE SMOOTH",
"615 212 OFFCURVE",
"525 46 OFFCURVE",
"328 46 CURVE SMOOTH",
"275 46 OFFCURVE",
"247 62 OFFCURVE",
"236 65 CURVE",
"182 14 LINE",
"216 -14 OFFCURVE",
"260 -22 OFFCURVE",
"324 -22 CURVE SMOOTH",
"569 -22 OFFCURVE"
);
},
{
closed = 1;
nodes = (
"567 -22 OFFCURVE",
"723 179 OFFCURVE",
"725 405 CURVE SMOOTH",
"727 602 OFFCURVE",
"622 679 OFFCURVE",
"421 679 CURVE SMOOTH",
"189 679 OFFCURVE",
"51 550 OFFCURVE",
"51 417 CURVE SMOOTH",
"51 350 OFFCURVE",
"77 299 OFFCURVE",
"135 299 CURVE SMOOTH",
"158 299 OFFCURVE",
"174 306 OFFCURVE",
"187 319 CURVE",
"162 359 OFFCURVE",
"155 386 OFFCURVE",
"156 430 CURVE SMOOTH",
"159 573 OFFCURVE",
"309 621 OFFCURVE",
"415 618 CURVE SMOOTH",
"568 613 OFFCURVE",
"624 544 OFFCURVE",
"624 420 CURVE SMOOTH",
"624 224 OFFCURVE",
"532 46 OFFCURVE",
"324 46 CURVE SMOOTH",
"274 46 OFFCURVE",
"245 60 OFFCURVE",
"234 64 CURVE",
"179 14 LINE",
"211 -13 OFFCURVE",
"248 -22 OFFCURVE",
"318 -22 CURVE SMOOTH"
);
}
);
};
layerId = "1252CFB8-7EB2-4C2F-9C11-14383990C0AA";
paths = (
{
closed = 1;
nodes = (
"574 -22 OFFCURVE",
"724 193 OFFCURVE",
"724 419 CURVE SMOOTH",
"724 590 OFFCURVE",
"620 679 OFFCURVE",
"421 679 CURVE SMOOTH",
"190 679 OFFCURVE",
"53 551 OFFCURVE",
"53 417 CURVE SMOOTH",
"53 350 OFFCURVE",
"79 299 OFFCURVE",
"135 299 CURVE SMOOTH",
"157 299 OFFCURVE",
"172 306 OFFCURVE",
"185 319 CURVE",
"162 357 OFFCURVE",
"154 383 OFFCURVE",
"154 422 CURVE SMOOTH",
"154 524 OFFCURVE",
"225 580 OFFCURVE",
"306 604 CURVE SMOOTH",
"321 608 OFFCURVE",
"336 612 OFFCURVE",
"352 614 CURVE",
"353 613 LINE",
"334 591 OFFCURVE",
"317 557 OFFCURVE",
"307 507 CURVE SMOOTH",
"231 120 LINE SMOOTH",
"221 70 OFFCURVE",
"206 37 OFFCURVE",
"182 8 CURVE",
"214 -12 OFFCURVE",
"254 -22 OFFCURVE",
"332 -22 CURVE SMOOTH"
);
},
{
closed = 1;
nodes = (
"315 46 OFFCURVE",
"305 46 OFFCURVE",
"297 47 CURVE",
"303 52 OFFCURVE",
"308 61 OFFCURVE",
"311 74 CURVE SMOOTH",
"412 574 LINE SMOOTH",
"416 595 OFFCURVE",
"423 608 OFFCURVE",
"437 617 CURVE",
"563 608 OFFCURVE",
"630 542 OFFCURVE",
"630 424 CURVE SMOOTH",
"630 221 OFFCURVE",
"524 46 OFFCURVE",
"324 46 CURVE SMOOTH"
);
}
);
width = 751;
},
{
anchors = (
{
name = center;
position = "{401, 322}";
},
{
name = top;
position = "{582, 696}";
}
);
hints = (
{
horizontal = 1;
place = "{-6, 86.4}";
type = Stem;
},
{
horizontal = 1;
place = "{712.8, 85.2}";
type = Stem;
},
{
place = "{548.4, 234}";
type = Stem;
},
{
horizontal = 1;
place = "{0, 21}";
target = up;
type = BottomGhost;
}
);
layerId = "E87290C6-23CF-4B1A-9291-A4CEFD7391A8";
paths = (
{
closed = 1;
nodes = (
"680 -24 OFFCURVE",
"885 141 OFFCURVE",
"885 388 CURVE SMOOTH",
"885 610 OFFCURVE",
"728 678 OFFCURVE",
"449 678 CURVE SMOOTH",
"128 678 OFFCURVE",
"9 580 OFFCURVE",
"9 428 CURVE SMOOTH",
"9 352 OFFCURVE",
"60 282 OFFCURVE",
"157 282 CURVE SMOOTH",
"179 282 OFFCURVE",
"213 292 OFFCURVE",
"234 315 CURVE",
"212 362 OFFCURVE",
"208 394 OFFCURVE",
"208 433 CURVE SMOOTH",
"208 546 OFFCURVE",
"265 629 OFFCURVE",
"377 624 CURVE SMOOTH",
"385 624 OFFCURVE",
"392 622 OFFCURVE",
"401 620 CURVE",
"403 612 LINE",
"326 568 OFFCURVE",
"287 515 OFFCURVE",
"273 441 CURVE SMOOTH",
"218 143 LINE SMOOTH",
"204 69 OFFCURVE",
"201 45 OFFCURVE",
"168 34 CURVE",
"172 -7 OFFCURVE",
"279 -24 OFFCURVE",
"392 -24 CURVE SMOOTH"
);
},
{
closed = 1;
nodes = (
"416 46 OFFCURVE",
"402 47 OFFCURVE",
"393 48 CURVE",
"413 57 OFFCURVE",
"435 93 OFFCURVE",
"451 177 CURVE SMOOTH",
"520 539 LINE SMOOTH",
"525 565 OFFCURVE",
"537 597 OFFCURVE",
"558 607 CURVE",
"612 608 OFFCURVE",
"660 574 OFFCURVE",
"660 465 CURVE SMOOTH",
"660 274 OFFCURVE",
"595 46 OFFCURVE",
"424 46 CURVE SMOOTH"
);
}
);
width = 906;
}
);
leftKerningGroup = H;
note = D;
rightKerningGroup = O;
unicode = 0044;
},
{
glyphname = Eth;
layers = (
{
anchors = (
{
name = top;
position = "{325, 660}";
}
);
background = {
paths = (
{
closed = 0;
nodes = (
"433 679 LINE SMOOTH",
"189 679 OFFCURVE",
"48 554 OFFCURVE",
"48 421 CURVE SMOOTH",
"48 353 OFFCURVE",
"76 299 OFFCURVE",
"139 299 CURVE SMOOTH",
"163 299 OFFCURVE",
"181 307 OFFCURVE",
"193 319 CURVE",
"169 357 OFFCURVE",
"160 386 OFFCURVE",
"160 430 CURVE SMOOTH",
"160 545 OFFCURVE",
"252 596 OFFCURVE",
"343 612 CURVE SMOOTH"
);
}
);
};
layerId = "1252CFB8-7EB2-4C2F-9C11-14383990C0AA";
paths = (
{
closed = 1;
nodes = (
"575 -22 OFFCURVE",
"730 176 OFFCURVE",
"730 428 CURVE SMOOTH",
"730 587 OFFCURVE",
"639 679 OFFCURVE",
"433 679 CURVE SMOOTH",
"189 679 OFFCURVE",
"48 554 OFFCURVE",
"48 421 CURVE SMOOTH",
"48 365 OFFCURVE",
"74 312 OFFCURVE",
"128 312 CURVE SMOOTH",
"147 312 OFFCURVE",
"160 320 OFFCURVE",
"169 332 CURVE",
"154 359 OFFCURVE",
"147 388 OFFCURVE",
"147 416 CURVE SMOOTH",
"147 507 OFFCURVE",
"220 595 OFFCURVE",
"343 612 CURVE SMOOTH",
"348 613 OFFCURVE",
"356 614 OFFCURVE",
"357 614 CURVE",
"358 613 LINE",
"338 590 OFFCURVE",
"321 556 OFFCURVE",
"311 507 CURVE SMOOTH",
"235 120 LINE SMOOTH",
"225 70 OFFCURVE",
"210 44 OFFCURVE",
"188 14 CURVE",
"222 -14 OFFCURVE",
"266 -22 OFFCURVE",
"330 -22 CURVE SMOOTH"
);
},
{
closed = 1;
nodes = (
"472.323 295 LINE SMOOTH",
"510.806 295 OFFCURVE",
"524.489 312 OFFCURVE",
"524.489 339 CURVE SMOOTH",
"524.489 345 OFFCURVE",
"523.634 355 OFFCURVE",
"521.924 362 CURVE",
"267.077 362 LINE SMOOTH",
"237.145 362 OFFCURVE",
"222.607 347 OFFCURVE",
"221.752 318 CURVE SMOOTH",
"221.752 313 OFFCURVE",
"221.752 302 OFFCURVE",
"223.462 295 CURVE"
);
},
{
closed = 1;
nodes = (
"323 46 OFFCURVE",
"314 47 OFFCURVE",
"305 48 CURVE",
"312 54 OFFCURVE",
"317 62 OFFCURVE",
"319 74 CURVE SMOOTH",
"420 574 LINE SMOOTH",
"424 596 OFFCURVE",
"432 610 OFFCURVE",
"443 617 CURVE",
"556 609 OFFCURVE",
"621 556 OFFCURVE",
"621 424 CURVE SMOOTH",
"621 212 OFFCURVE",
"531 46 OFFCURVE",
"334 46 CURVE SMOOTH"
);
}
);
width = 765;
},
{
anchors = (
{
name = top;
position = "{619, 696}";
}
);
hints = (
{
horizontal = 1;
place = "{-6, 86.4}";
type = Stem;
},
{
horizontal = 1;
place = "{349.2, 110.4}";
type = Stem;
},
{
horizontal = 1;
place = "{712.8, 85.2}";
type = Stem;
},
{
place = "{547.2, 235.2}";
type = Stem;
},
{
horizontal = 1;
place = "{0, 21}";
target = up;
type = BottomGhost;
},
{
horizontal = 1;
place = "{-6, 86.4}";
type = Stem;
},
{
horizontal = 1;
place = "{712.8, 85.2}";
type = Stem;
},
{
place = "{548.4, 234}";
type = Stem;
},
{
horizontal = 1;
place = "{0, 21}";
target = up;
type = BottomGhost;
},
{
horizontal = 1;
place = "{328.8, 110.4}";
type = Stem;
},
{
place = "{162, 471.6}";
type = Stem;
}
);
layerId = "E87290C6-23CF-4B1A-9291-A4CEFD7391A8";
paths = (
{
closed = 1;
nodes = (
"712 -24 OFFCURVE",
"897 128 OFFCURVE",
"897 402 CURVE SMOOTH",
"897 616 OFFCURVE",
"765 678 OFFCURVE",
"469 678 CURVE SMOOTH",
"151 678 OFFCURVE",
"8 568 OFFCURVE",
"8 427 CURVE SMOOTH",
"8 319 OFFCURVE",
"63 293 OFFCURVE",
"116 293 CURVE SMOOTH",
"145 293 OFFCURVE",
"176 301 OFFCURVE",
"200 313 CURVE",
"190 343 OFFCURVE",
"185 374 OFFCURVE",
"185 405 CURVE SMOOTH",
"185 520 OFFCURVE",
"252 626 OFFCURVE",
"349 623 CURVE SMOOTH",
"366 623 OFFCURVE",
"384 620 OFFCURVE",
"403 614 CURVE",
"405 603 LINE",
"348 567 OFFCURVE",
"309 515 OFFCURVE",
"295 441 CURVE SMOOTH",
"240 143 LINE SMOOTH",
"226 69 OFFCURVE",
"223 44 OFFCURVE",
"189 33 CURVE",
"193 -7 OFFCURVE",
"300 -24 OFFCURVE",
"415 -24 CURVE SMOOTH"
);
},
{
closed = 1;
nodes = (
"538 270 LINE SMOOTH",
"591 270 OFFCURVE",
"619 300 OFFCURVE",
"619 338 CURVE SMOOTH",
"619 349 OFFCURVE",
"616 359 OFFCURVE",
"614 367 CURVE",
"280 367 LINE SMOOTH",
"239 367 OFFCURVE",
"209 339 OFFCURVE",
"208 298 CURVE SMOOTH",
"208 290 OFFCURVE",
"208 279 OFFCURVE",
"211 270 CURVE"
);
},
{
closed = 1;
nodes = (
"437 46 OFFCURVE",
"428 47 OFFCURVE",
"419 48 CURVE",
"439 56 OFFCURVE",
"461 93 OFFCURVE",
"477 177 CURVE SMOOTH",
"558 608 LINE SMOOTH",
"568 604 OFFCURVE",
"577 603 OFFCURVE",
"586 601 CURVE",
"627 603 OFFCURVE",
"685 582 OFFCURVE",
"685 485 CURVE SMOOTH",
"685 276 OFFCURVE",
"616 46 OFFCURVE",
"444 46 CURVE SMOOTH"
);
}
);
width = 916;
}
);
leftKerningGroup = H;
note = Eth;
rightKerningGroup = O;
unicode = 00D0;
},
{
glyphname = E;
layers = (
{
anchors = (
{
name = bottom;
position = "{189, 0}";
},
{
name = ogonek;
position = "{425, 0}";
},
{
name = top;
position = "{557, 698}";
}
);
background = {
paths = (
{
closed = 1;
nodes = (
"566 -22 OFFCURVE",
"659 33 OFFCURVE",
"659 86 CURVE SMOOTH",
"659 97 OFFCURVE",
"655 109 OFFCURVE",
"645 120 CURVE",
"602 80 OFFCURVE",
"542 53 OFFCURVE",
"484 53 CURVE SMOOTH",
"410 53 OFFCURVE",
"349 87 OFFCURVE",
"349 170 CURVE SMOOTH",
"349 236 OFFCURVE",
"394 285 OFFCURVE",
"460 323 CURVE",
"487 315 OFFCURVE",
"519 307 OFFCURVE",
"564 307 CURVE SMOOTH",
"613 307 OFFCURVE",
"639 332 OFFCURVE",
"639 360 CURVE SMOOTH",
"639 367 OFFCURVE",
"638 373 OFFCURVE",
"635 379 CURVE",
"602 375 OFFCURVE",
"557 375 OFFCURVE",
"539 375 CURVE SMOOTH",
"512 375 OFFCURVE",
"485 376 OFFCURVE",
"458 376 CURVE",
"432 409 OFFCURVE",
"426 445 OFFCURVE",
"426 475 CURVE SMOOTH",
"426 520 OFFCURVE",
"445 578 OFFCURVE",
"515 627 CURVE",
"457 637 LINE",
"390 618 OFFCURVE",
"332 544 OFFCURVE",
"332 479 CURVE SMOOTH",
"332 428 OFFCURVE",
"349 381 OFFCURVE",
"396 353 CURVE",
"290 301 OFFCURVE",
"246 233 OFFCURVE",
"246 155 CURVE SMOOTH",
"246 39 OFFCURVE",
"331 -22 OFFCURVE",
"468 -22 CURVE SMOOTH"
);
},
{
closed = 1;
nodes = (
"174 397 OFFCURVE",
"189 400 OFFCURVE",
"203 406 CURVE",
"184 436 OFFCURVE",
"174 474 OFFCURVE",
"174 511 CURVE SMOOTH",
"174 595 OFFCURVE",
"216 660 OFFCURVE",
"322 660 CURVE SMOOTH",
"361 660 OFFCURVE",
"400 648 OFFCURVE",
"442 635 CURVE",
"443 632 LINE",
"533 602 OFFCURVE",
"595 585 OFFCURVE",
"643 585 CURVE SMOOTH",
"717 585 OFFCURVE",
"744 627 OFFCURVE",
"744 664 CURVE SMOOTH",
"744 680 OFFCURVE",
"737 695 OFFCURVE",
"727 707 CURVE",
"690 672 OFFCURVE",
"652 670 OFFCURVE",
"599 670 CURVE SMOOTH",
"502 670 OFFCURVE",
"403 703 OFFCURVE",
"295 703 CURVE SMOOTH",
"135 703 OFFCURVE",
"65 604 OFFCURVE",
"65 508 CURVE SMOOTH",
"65 434 OFFCURVE",
"106 397 OFFCURVE",
"160 397 CURVE SMOOTH"
);
}
);
};
layerId = "1252CFB8-7EB2-4C2F-9C11-14383990C0AA";
paths = (
{
closed = 1;
nodes = (
"566 -22 OFFCURVE",
"656 31 OFFCURVE",
"656 86 CURVE SMOOTH",
"656 98 OFFCURVE",
"652 109 OFFCURVE",
"643 116 CURVE",
"603 80 OFFCURVE",
"542 53 OFFCURVE",
"484 53 CURVE SMOOTH",
"413 53 OFFCURVE",
"352 88 OFFCURVE",
"352 170 CURVE SMOOTH",
"352 230 OFFCURVE",
"387 280 OFFCURVE",
"459 323 CURVE",
"504 311 OFFCURVE",
"531 307 OFFCURVE",
"564 307 CURVE SMOOTH",
"611 307 OFFCURVE",
"636 331 OFFCURVE",
"636 360 CURVE SMOOTH",
"636 368 OFFCURVE",
"635 374 OFFCURVE",
"632 379 CURVE",
"600 375 OFFCURVE",
"556 375 OFFCURVE",
"539 375 CURVE SMOOTH",
"514 375 OFFCURVE",
"468 376 OFFCURVE",
"456 376 CURVE",
"435 404 OFFCURVE",
"425 436 OFFCURVE",
"426 475 CURVE SMOOTH",
"427 520 OFFCURVE",
"448 577 OFFCURVE",
"521 627 CURVE",
"464 635 LINE",
"399 616 OFFCURVE",
"337 544 OFFCURVE",
"335 479 CURVE SMOOTH",
"333 420 OFFCURVE",
"355 377 OFFCURVE",
"397 353 CURVE",
"298 304 OFFCURVE",
"249 238 OFFCURVE",
"249 155 CURVE SMOOTH",
"249 50 OFFCURVE",
"328 -22 OFFCURVE",
"460 -22 CURVE SMOOTH"
);
},
{
closed = 1;
nodes = (
"178 397 OFFCURVE",
"189 401 OFFCURVE",
"200 406 CURVE",
"181 436 OFFCURVE",
"170 473 OFFCURVE",
"170 511 CURVE SMOOTH",
"170 606 OFFCURVE",
"225 660 OFFCURVE",
"322 660 CURVE SMOOTH",
"363 660 OFFCURVE",
"406 647 OFFCURVE",
"448 633 CURVE",
"449 630 LINE",
"538 600 OFFCURVE",
"602 585 OFFCURVE",
"649 585 CURVE SMOOTH",
"721 585 OFFCURVE",
"748 626 OFFCURVE",
"749 664 CURVE SMOOTH",
"750 679 OFFCURVE",
"744 694 OFFCURVE",
"736 705 CURVE",
"699 672 OFFCURVE",
"659 670 OFFCURVE",
"607 670 CURVE SMOOTH",
"509 670 OFFCURVE",
"403 703 OFFCURVE",
"295 703 CURVE SMOOTH",
"140 703 OFFCURVE",
"71 605 OFFCURVE",
"71 508 CURVE SMOOTH",
"71 440 OFFCURVE",
"106 397 OFFCURVE",
"160 397 CURVE SMOOTH"
);
}
);
width = 717;
},
{
anchors = (
{
name = bottom;
position = "{435, 0}";
},
{
name = ogonek;
position = "{552, 0}";
},
{
name = top;
position = "{491, 702}";
}
);
hints = (
{
horizontal = 1;
place = "{0, 144}";
type = Stem;
},
{
horizontal = 1;
place = "{330, 134.4}";
type = Stem;
},
{
horizontal = 1;
place = "{642, 150}";
type = Stem;
},
{
place = "{-3.6, 663.6}";
type = Stem;
},
{
horizontal = 1;
place = "{674.4, 117.6}";
type = Stem;
}
);
layerId = "E87290C6-23CF-4B1A-9291-A4CEFD7391A8";
paths = (
{
closed = 1;
nodes = (
"558 -21 OFFCURVE",
"687 35 OFFCURVE",
"687 135 CURVE SMOOTH",
"687 164 OFFCURVE",
"672 187 OFFCURVE",
"649 196 CURVE",
"607 154 OFFCURVE",
"561 133 OFFCURVE",
"515 133 CURVE SMOOTH",
"453 133 OFFCURVE",
"432 173 OFFCURVE",
"432 208 CURVE SMOOTH",
"432 234 OFFCURVE",
"442 264 OFFCURVE",
"459 283 CURVE",
"491 274 OFFCURVE",
"521 269 OFFCURVE",
"546 269 CURVE SMOOTH",
"611 269 OFFCURVE",
"654 295 OFFCURVE",
"654 364 CURVE SMOOTH",
"654 370 OFFCURVE",
"653 379 OFFCURVE",
"652 389 CURVE",
"643 388 OFFCURVE",
"626 388 OFFCURVE",
"600 388 CURVE SMOOTH",
"575 388 OFFCURVE",
"536 389 OFFCURVE",
"496 389 CURVE",
"487 408 OFFCURVE",
"481 431 OFFCURVE",
"481 453 CURVE SMOOTH",
"481 495 OFFCURVE",
"496 535 OFFCURVE",
"522 561 CURVE",
"427 629 LINE",
"326 594 OFFCURVE",
"283 521 OFFCURVE",
"283 451 CURVE SMOOTH",
"284 407 OFFCURVE",
"305 363 OFFCURVE",
"345 336 CURVE",
"248 305 OFFCURVE",
"195 224 OFFCURVE",
"195 150 CURVE SMOOTH",
"195 27 OFFCURVE",
"318 -21 OFFCURVE",
"434 -21 CURVE SMOOTH"
);
},
{
closed = 1;
nodes = (
"190 353 OFFCURVE",
"225 363 OFFCURVE",
"247 388 CURVE",
"224 436 OFFCURVE",
"220 466 OFFCURVE",
"220 505 CURVE SMOOTH",
"220 578 OFFCURVE",
"256 625 OFFCURVE",
"309 625 CURVE SMOOTH",
"325 625 OFFCURVE",
"334 623 OFFCURVE",
"366 609 CURVE",
"370 602 LINE",
"434 568 OFFCURVE",
"529 524 OFFCURVE",
"624 524 CURVE SMOOTH",
"713 524 OFFCURVE",
"755 579 OFFCURVE",
"755 634 CURVE SMOOTH",
"755 668 OFFCURVE",
"740 702 OFFCURVE",
"713 723 CURVE",
"673 683 OFFCURVE",
"627 669 OFFCURVE",
"576 669 CURVE SMOOTH",
"493 669 OFFCURVE",
"393 704 OFFCURVE",
"267 704 CURVE SMOOTH",
"94 704 OFFCURVE",
"21 594 OFFCURVE",
"21 500 CURVE SMOOTH",
"21 424 OFFCURVE",
"68 353 OFFCURVE",
"167 353 CURVE SMOOTH"
);
}
);
width = 718;
}
);
leftKerningGroup = H;
note = E;
rightKerningGroup = E;
unicode = 0045;
},
{
glyphname = F;
layers = (
{
background = {
paths = (
{
closed = 1;
nodes = (
"162 397 OFFCURVE",
"177 400 OFFCURVE",
"190 406 CURVE",
"172 436 OFFCURVE",
"162 474 OFFCURVE",
"162 511 CURVE SMOOTH",
"162 595 OFFCURVE",
"203 660 OFFCURVE",
"304 660 CURVE SMOOTH",
"391 660 OFFCURVE",
"492 585 OFFCURVE",
"593 585 CURVE SMOOTH",
"660 585 OFFCURVE",
"685 627 OFFCURVE",
"685 664 CURVE SMOOTH",
"685 680 OFFCURVE",
"679 695 OFFCURVE",
"670 707 CURVE",
"636 672 OFFCURVE",
"602 670 OFFCURVE",
"554 670 CURVE SMOOTH",
"466 670 OFFCURVE",
"376 703 OFFCURVE",
"280 703 CURVE SMOOTH",
"124 703 OFFCURVE",
"55 604 OFFCURVE",
"55 507 CURVE SMOOTH",
"55 434 OFFCURVE",
"95 397 OFFCURVE",
"148 397 CURVE SMOOTH"
);
},
{
closed = 1;
nodes = (
"267 -49 OFFCURVE",
"296 -28 OFFCURVE",
"310 35 CURVE SMOOTH",
"446 650 LINE",
"370 652 OFFCURVE",
"338 584 OFFCURVE",
"323 516 CURVE SMOOTH",
"226 63 LINE SMOOTH",
"215 13 OFFCURVE",
"199 -13 OFFCURVE",
"174 -29 CURVE",
"181 -43 OFFCURVE",
"201 -49 OFFCURVE",
"221 -49 CURVE SMOOTH"
);
},
{
closed = 1;
nodes = (
"531 300 OFFCURVE",
"568 318 OFFCURVE",
"569 355 CURVE SMOOTH",
"569 361 OFFCURVE",
"567 368 OFFCURVE",
"565 376 CURVE",
"530 373 OFFCURVE",
"498 372 OFFCURVE",
"466 372 CURVE SMOOTH",
"433 372 OFFCURVE",
"404 373 OFFCURVE",
"366 376 CURVE",
"351 321 LINE",
"401 307 OFFCURVE",
"442 300 OFFCURVE",
"485 300 CURVE SMOOTH"
);
}
);
};
layerId = "1252CFB8-7EB2-4C2F-9C11-14383990C0AA";
paths = (
{
closed = 1;
nodes = (
"157 397 OFFCURVE",
"175 400 OFFCURVE",
"188 405 CURVE",
"170 436 OFFCURVE",
"162 472 OFFCURVE",
"163 511 CURVE SMOOTH",
"165 605 OFFCURVE",
"216 660 OFFCURVE",
"302 660 CURVE SMOOTH",
"340 660 OFFCURVE",
"362 659 OFFCURVE",
"401 645 CURVE",
"402 642 LINE",
"484 612 OFFCURVE",
"549 585 OFFCURVE",
"598 585 CURVE SMOOTH",
"664 585 OFFCURVE",
"689 626 OFFCURVE",
"690 664 CURVE SMOOTH",
"690 679 OFFCURVE",
"685 694 OFFCURVE",
"678 704 CURVE",
"645 672 OFFCURVE",
"608 670 OFFCURVE",
"559 670 CURVE SMOOTH",
"468 670 OFFCURVE",
"378 703 OFFCURVE",
"278 703 CURVE SMOOTH",
"133 703 OFFCURVE",
"66 605 OFFCURVE",
"64 516 CURVE SMOOTH",
"62 441 OFFCURVE",
"93 397 OFFCURVE",
"145 397 CURVE SMOOTH"
);
},
{
closed = 1;
nodes = (
"267 -49 OFFCURVE",
"296 -28 OFFCURVE",
"310 35 CURVE SMOOTH",
"446 650 LINE",
"370 652 OFFCURVE",
"338 584 OFFCURVE",
"323 516 CURVE SMOOTH",
"226 63 LINE SMOOTH",
"215 13 OFFCURVE",
"199 -13 OFFCURVE",
"174 -29 CURVE",
"181 -43 OFFCURVE",
"201 -49 OFFCURVE",
"221 -49 CURVE SMOOTH"
);
},
{
closed = 1;
nodes = (
"531 300 OFFCURVE",
"568 318 OFFCURVE",
"569 355 CURVE SMOOTH",
"569 361 OFFCURVE",
"567 368 OFFCURVE",
"565 376 CURVE",
"530 373 OFFCURVE",
"498 372 OFFCURVE",
"466 372 CURVE SMOOTH",
"433 372 OFFCURVE",
"404 373 OFFCURVE",
"366 376 CURVE",
"351 321 LINE",
"401 307 OFFCURVE",
"442 300 OFFCURVE",
"485 300 CURVE SMOOTH"
);
}
);
width = 646;
},
{
hints = (
{
horizontal = 1;
place = "{0, 21}";
target = up;
type = BottomGhost;
},
{
horizontal = 1;
place = "{330, 144}";
type = Stem;
},
{
horizontal = 1;
place = "{636, 156}";
type = Stem;
},
{
place = "{-3.6, 679.2}";
type = Stem;
},
{
horizontal = 1;
place = "{668.4, 123.6}";
type = Stem;
}
);
layerId = "E87290C6-23CF-4B1A-9291-A4CEFD7391A8";
paths = (
{
closed = 1;
nodes = (
"194 353 OFFCURVE",
"228 363 OFFCURVE",
"249 388 CURVE",
"226 436 OFFCURVE",
"222 466 OFFCURVE",
"222 505 CURVE SMOOTH",
"221 579 OFFCURVE",
"258 625 OFFCURVE",
"313 625 CURVE SMOOTH",
"329 625 OFFCURVE",
"351 619 OFFCURVE",
"372 608 CURVE",
"374 596 LINE",
"491 538 OFFCURVE",
"551 525 OFFCURVE",
"639 525 CURVE SMOOTH",
"729 525 OFFCURVE",
"767 579 OFFCURVE",
"767 634 CURVE SMOOTH",
"767 668 OFFCURVE",
"752 702 OFFCURVE",
"725 723 CURVE",
"683 683 OFFCURVE",
"637 669 OFFCURVE",
"585 669 CURVE SMOOTH",
"502 669 OFFCURVE",
"398 704 OFFCURVE",
"271 704 CURVE SMOOTH",
"96 704 OFFCURVE",
"22 594 OFFCURVE",
"22 498 CURVE SMOOTH",
"22 424 OFFCURVE",
"70 353 OFFCURVE",
"170 353 CURVE SMOOTH"
);
},
{
closed = 1;
nodes = (
"394 -50 OFFCURVE",
"429 15 OFFCURVE",
"449 131 CURVE SMOOTH",
"543 662 LINE",
"404 634 OFFCURVE",
"297 578 OFFCURVE",
"271 439 CURVE SMOOTH",
"213 121 LINE SMOOTH",
"199 47 OFFCURVE",
"197 22 OFFCURVE",
"163 8 CURVE",
"167 -27 OFFCURVE",
"219 -50 OFFCURVE",
"276 -50 CURVE SMOOTH"
);
},
{
closed = 1;
nodes = (
"649 256 OFFCURVE",
"684 299 OFFCURVE",
"684 359 CURVE SMOOTH",
"684 367 OFFCURVE",
"683 375 OFFCURVE",
"683 384 CURVE",
"661 384 OFFCURVE",
"636 384 OFFCURVE",
"611 384 CURVE SMOOTH",
"576 384 OFFCURVE",
"498 385 OFFCURVE",
"474 387 CURVE",
"453 269 LINE",
"485 260 OFFCURVE",
"556 256 OFFCURVE",
"579 256 CURVE SMOOTH"
);
}
);
width = 713;
}
);
leftKerningGroup = H;
note = F;
rightKerningGroup = F;
unicode = 0046;
},
{
glyphname = G;
layers = (
{
anchors = (
{
name = bottom;
position = "{220, 0}";
},
{
name = top;
position = "{345, 660}";
}
);
background = {
paths = (
{
closed = 0;
nodes = (
"484 323 LINE",
"373 305 LINE"
);
},
{
closed = 0;
nodes = (
"353 680 LINE SMOOTH",
"134 680 OFFCURVE",
"29 412 OFFCURVE",
"29 216 CURVE SMOOTH",
"29 60 OFFCURVE",
"97 -21 OFFCURVE",
"230 -21 CURVE SMOOTH"
);
},
{
closed = 0;
nodes = (
"235 57 LINE SMOOTH",
"147 57 OFFCURVE",
"128 131 OFFCURVE",
"128 214 CURVE SMOOTH",
"128 352 OFFCURVE",
"186 612 OFFCURVE",
"329 612 CURVE SMOOTH"
);
}
);
};
layerId = "1252CFB8-7EB2-4C2F-9C11-14383990C0AA";
paths = (
{
closed = 1;
nodes = (
"273 -20 OFFCURVE",
"327 24 OFFCURVE",
"352 43 CURVE",
"351 99 LINE",
"328 76 OFFCURVE",
"281 57 OFFCURVE",
"238 57 CURVE SMOOTH",
"151 57 OFFCURVE",
"128 113 OFFCURVE",
"128 221 CURVE SMOOTH",
"128 354 OFFCURVE",
"187 613 OFFCURVE",
"331 613 CURVE SMOOTH",
"383 613 OFFCURVE",
"422 588 OFFCURVE",
"422 535 CURVE SMOOTH",
"422 510 OFFCURVE",
"413 486 OFFCURVE",
"400 471 CURVE",
"409 458 OFFCURVE",
"431 452 OFFCURVE",
"445 452 CURVE SMOOTH",
"484 452 OFFCURVE",
"516 486 OFFCURVE",
"516 545 CURVE SMOOTH",
"516 622 OFFCURVE",
"451 680 OFFCURVE",
"355 680 CURVE SMOOTH",
"136 680 OFFCURVE",
"29 417 OFFCURVE",
"29 214 CURVE SMOOTH",
"29 68 OFFCURVE",
"89 -20 OFFCURVE",
"204 -20 CURVE SMOOTH"
);
},
{
closed = 1;
nodes = (
"346 -200 OFFCURVE",
"382 -156 OFFCURVE",
"409 0 CURVE SMOOTH",
"440 176 OFFCURVE",
"453 254 OFFCURVE",
"484 323 CURVE",
"373 305 LINE",
"343 95 LINE SMOOTH",
"330 8 OFFCURVE",
"324 -133 OFFCURVE",
"206 -134 CURVE SMOOTH",
"204 -134 OFFCURVE",
"201 -134 OFFCURVE",
"199 -134 CURVE",
"199 -177 OFFCURVE",
"237 -200 OFFCURVE",
"275 -200 CURVE SMOOTH"
);
}
);
width = 507;
},
{
anchors = (
{
name = bottom;
position = "{285, 0}";
},
{
name = top;
position = "{421, 696}";
}
);
hints = (
{
horizontal = 1;
place = "{-24, 142.8}";
type = Stem;
},
{
horizontal = 1;
place = "{730.8, 85.2}";
type = Stem;
},
{
place = "{25.2, 256.8}";
type = Stem;
},
{
place = "{480, 193.2}";
type = Stem;
},
{
place = "{546, 210}";
type = Stem;
}
);
layerId = "E87290C6-23CF-4B1A-9291-A4CEFD7391A8";
paths = (
{
closed = 1;
nodes = (
"291 -20 OFFCURVE",
"358 -16 OFFCURVE",
"414 38 CURVE",
"416 140 LINE",
"416 114 OFFCURVE",
"376 107 OFFCURVE",
"353 107 CURVE SMOOTH",
"271 107 OFFCURVE",
"256 209 OFFCURVE",
"256 273 CURVE SMOOTH",
"256 415 OFFCURVE",
"324 608 OFFCURVE",
"414 608 CURVE SMOOTH",
"467 608 OFFCURVE",
"462 544 OFFCURVE",
"462 516 CURVE SMOOTH",
"462 480 OFFCURVE",
"460 457 OFFCURVE",
"458 435 CURVE",
"473 432 OFFCURVE",
"490 430 OFFCURVE",
"504 430 CURVE SMOOTH",
"582 430 OFFCURVE",
"653 484 OFFCURVE",
"653 562 CURVE SMOOTH",
"653 662 OFFCURVE",
"537 680 OFFCURVE",
"441 680 CURVE SMOOTH",
"174 680 OFFCURVE",
"19 509 OFFCURVE",
"19 258 CURVE SMOOTH",
"19 91 OFFCURVE",
"88 -20 OFFCURVE",
"244 -20 CURVE SMOOTH"
);
},
{
closed = 1;
nodes = (
"555 -200 OFFCURVE",
"567 -37 OFFCURVE",
"595 114 CURVE SMOOTH",
"608 183 OFFCURVE",
"623 276 OFFCURVE",
"651 343 CURVE",
"443 325 LINE",
"405 94 LINE SMOOTH",
"406 -66 OFFCURVE",
"347 -113 OFFCURVE",
"298 -112 CURVE SMOOTH",
"288 -112 OFFCURVE",
"277 -111 OFFCURVE",
"266 -108 CURVE",
"279 -176 OFFCURVE",
"333 -200 OFFCURVE",
"393 -200 CURVE SMOOTH"
);
}
);
width = 667;
}
);
leftKerningGroup = O;
note = G;
rightKerningGroup = G;
unicode = 0047;
},
{
glyphname = Gcommaaccent;
layers = (
{
anchors = (
{
name = bottom;
position = "{220, 0}";
},
{
name = top;
position = "{345, 660}";
}
);
components = (
{
alignment = -1;
name = commaaccentcomb;
transform = "{1, 0, 0, 1, 310, -6}";
}
);
layerId = "1252CFB8-7EB2-4C2F-9C11-14383990C0AA";
paths = (
{
closed = 1;
nodes = (
"273 -20 OFFCURVE",
"327 24 OFFCURVE",
"352 43 CURVE",
"351 99 LINE",
"328 76 OFFCURVE",
"283 71 OFFCURVE",
"253 71 CURVE SMOOTH",
"162 71 OFFCURVE",
"138 131 OFFCURVE",
"138 221 CURVE SMOOTH",
"138 354 OFFCURVE",
"191 609 OFFCURVE",
"335 609 CURVE SMOOTH",
"376 609 OFFCURVE",
"406 588 OFFCURVE",
"406 544 CURVE SMOOTH",
"406 527 OFFCURVE",
"399 493 OFFCURVE",
"389 471 CURVE",
"398 458 OFFCURVE",
"420 452 OFFCURVE",
"439 452 CURVE SMOOTH",
"481 452 OFFCURVE",
"516 482 OFFCURVE",
"516 545 CURVE SMOOTH",
"516 628 OFFCURVE",
"458 680 OFFCURVE",
"359 680 CURVE SMOOTH",
"136 680 OFFCURVE",
"32 413 OFFCURVE",
"32 214 CURVE SMOOTH",
"32 68 OFFCURVE",
"89 -20 OFFCURVE",
"197 -20 CURVE SMOOTH"
);
},
{
closed = 1;
nodes = (
"346 -228 OFFCURVE",
"382 -184 OFFCURVE",
"409 -28 CURVE SMOOTH",
"440 148 OFFCURVE",
"453 247 OFFCURVE",
"484 316 CURVE",
"373 303 LINE",
"343 95 LINE SMOOTH",
"317 -82 OFFCURVE",
"267 -184 OFFCURVE",
"241 -213 CURVE",
"248 -223 OFFCURVE",
"267 -228 OFFCURVE",
"281 -228 CURVE SMOOTH"
);
}
);
width = 512;
},
{
anchors = (
{
name = bottom;
position = "{220, 0}";
},
{
name = top;
position = "{421, 696}";
}
);
components = (
{
alignment = -1;
name = commaaccentcomb;
transform = "{1, 0, 0, 1, 413, -4}";
}
);
hints = (
{
horizontal = 1;
place = "{-24, 142.8}";
type = Stem;
},
{
horizontal = 1;
place = "{730.8, 85.2}";
type = Stem;
},
{
place = "{25.2, 256.8}";
type = Stem;
},
{
place = "{480, 193.2}";
type = Stem;
},
{
place = "{546, 210}";
type = Stem;
},
{
horizontal = 1;
place = "{-1.2, 21}";
target = up;
type = BottomGhost;
},
{
place = "{265.2, 160.8}";
type = Stem;
},
{
horizontal = 1;
place = "{-24, 142.8}";
type = Stem;
},
{
horizontal = 1;
place = "{730.8, 85.2}";
type = Stem;
},
{
place = "{25.2, 256.8}";
type = Stem;
},
{
place = "{480, 193.2}";
type = Stem;
},
{
place = "{546, 210}";
type = Stem;
},
{
horizontal = 1;
place = "{-309.6, 248.4}";
type = Stem;
},
{
place = "{238.8, 160.8}";
type = Stem;
},
{
horizontal = 1;
place = "{-309.6, 248.4}";
type = Stem;
},
{
place = "{-42, 160.8}";
type = Stem;
}
);
layerId = "E87290C6-23CF-4B1A-9291-A4CEFD7391A8";
paths = (
{
closed = 1;
nodes = (
"291 -20 OFFCURVE",
"358 -16 OFFCURVE",
"414 38 CURVE",
"416 140 LINE",
"416 114 OFFCURVE",
"375 105 OFFCURVE",
"350 105 CURVE SMOOTH",
"269 105 OFFCURVE",
"254 205 OFFCURVE",
"254 273 CURVE SMOOTH",
"254 415 OFFCURVE",
"323 609 OFFCURVE",
"413 609 CURVE SMOOTH",
"468 609 OFFCURVE",
"465 544 OFFCURVE",
"465 514 CURVE SMOOTH",
"465 477 OFFCURVE",
"463 456 OFFCURVE",
"460 435 CURVE",
"475 432 OFFCURVE",
"492 430 OFFCURVE",
"505 430 CURVE SMOOTH",
"583 430 OFFCURVE",
"653 484 OFFCURVE",
"653 562 CURVE SMOOTH",
"653 660 OFFCURVE",
"536 680 OFFCURVE",
"441 680 CURVE SMOOTH",
"174 680 OFFCURVE",
"19 510 OFFCURVE",
"19 258 CURVE SMOOTH",
"19 91 OFFCURVE",
"88 -20 OFFCURVE",
"245 -20 CURVE SMOOTH"
);
},
{
closed = 1;
nodes = (
"556 -227 OFFCURVE",
"570 -11 OFFCURVE",
"595 120 CURVE SMOOTH",
"608 189 OFFCURVE",
"623 277 OFFCURVE",
"651 345 CURVE",
"443 326 LINE",
"405 97 LINE SMOOTH",
"413 38 OFFCURVE",
"379 -143 OFFCURVE",
"314 -219 CURVE",
"340 -224 OFFCURVE",
"362 -227 OFFCURVE",
"382 -227 CURVE SMOOTH"
);
}
);
width = 666;
}
);
leftKerningGroup = O;
note = Gcommaaccent;
rightKerningGroup = G;
unicode = 0122;
},
{
glyphname = H;
layers = (
{
anchors = (
{
name = bottom;
position = "{444, 0}";
},
{
name = center;
position = "{347, 528}";
},
{
name = top;
position = "{369, 660}";
}
);
background = {
paths = (
{
closed = 1;
nodes = (
"779 660 LINE",
"681 660 LINE",
"625 359 LINE",
"392 359 LINE",
"452 660 LINE",
"354 660 LINE",
"227 0 LINE",
"323 0 LINE",
"379 291 LINE",
"613 291 LINE",
"584 125 LINE SMOOTH",
"574 67 OFFCURVE",
"573 53 OFFCURVE",
"573 40 CURVE SMOOTH",
"573 2 OFFCURVE",
"584 -20 OFFCURVE",
"624 -20 CURVE SMOOTH",
"644 -20 OFFCURVE",
"661 -14 OFFCURVE",
"680 2 CURVE",
"670 17 OFFCURVE",
"668 31 OFFCURVE",
"668 42 CURVE SMOOTH",
"668 55 OFFCURVE",
"671 73 OFFCURVE",
"672 80 CURVE SMOOTH"
);
},
{
closed = 1;
nodes = (
"172 397 OFFCURVE",
"185 400 OFFCURVE",
"197 405 CURVE",
"178 437 OFFCURVE",
"168 474 OFFCURVE",
"168 511 CURVE SMOOTH",
"168 602 OFFCURVE",
"217 655 OFFCURVE",
"302 655 CURVE SMOOTH",
"355 655 OFFCURVE",
"371 640 OFFCURVE",
"375 637 CURVE",
"376 635 LINE",
"450 660 LINE",
"419 667 OFFCURVE",
"364 703 OFFCURVE",
"290 703 CURVE SMOOTH",
"140 703 OFFCURVE",
"72 605 OFFCURVE",
"72 507 CURVE SMOOTH",
"72 439 OFFCURVE",
"107 397 OFFCURVE",
"158 397 CURVE SMOOTH"
);
}
);
};
layerId = "1252CFB8-7EB2-4C2F-9C11-14383990C0AA";
paths = (
{
closed = 1;
nodes = (
"655 6 LINE",
"767 608 LINE SMOOTH",
"776 658 OFFCURVE",
"792 684 OFFCURVE",
"814 700 CURVE",
"806 714 OFFCURVE",
"786 720 OFFCURVE",
"766 720 CURVE SMOOTH",
"720 720 OFFCURVE",
"690 697 OFFCURVE",
"679 636 CURVE SMOOTH",
"560 -7 LINE"
);
},
{
closed = 1;
nodes = (
"288 -49 OFFCURVE",
"317 -28 OFFCURVE",
"329 35 CURVE SMOOTH",
"451 660 LINE",
"374 660 OFFCURVE",
"345 618 OFFCURVE",
"329 532 CURVE SMOOTH",
"241 63 LINE SMOOTH",
"232 13 OFFCURVE",
"216 -13 OFFCURVE",
"194 -29 CURVE",
"202 -43 OFFCURVE",
"222 -49 OFFCURVE",
"242 -49 CURVE SMOOTH"
);
},
{
closed = 1;
nodes = (
"172 397 OFFCURVE",
"185 400 OFFCURVE",
"197 405 CURVE",
"178 437 OFFCURVE",
"168 474 OFFCURVE",
"168 511 CURVE SMOOTH",
"168 602 OFFCURVE",
"217 655 OFFCURVE",
"302 655 CURVE SMOOTH",
"355 655 OFFCURVE",
"371 640 OFFCURVE",
"375 637 CURVE",
"376 635 LINE",
"450 660 LINE",
"419 667 OFFCURVE",
"364 703 OFFCURVE",
"290 703 CURVE SMOOTH",
"140 703 OFFCURVE",
"72 605 OFFCURVE",
"72 507 CURVE SMOOTH",
"72 439 OFFCURVE",
"107 397 OFFCURVE",
"158 397 CURVE SMOOTH"
);
},
{
closed = 1;
nodes = (
"655 291 LINE",
"667 359 LINE",
"357 359 LINE",
"347 291 LINE"
);
}
);
width = 780;
},
{
anchors = (
{
name = bottom;
position = "{479, 0}";
},
{
name = center;
position = "{623, 528}";
},
{
name = top;
position = "{645, 696}";
}
);
hints = (
{
horizontal = 1;
place = "{0, 21}";
target = up;
type = BottomGhost;
},
{
horizontal = 1;
place = "{342, 96}";
type = Stem;
},
{
horizontal = 1;
place = "{792, -20}";
target = down;
type = TopGhost;
},
{
place = "{-8.4, 831.6}";
type = Stem;
},
{
horizontal = 1;
place = "{-24, 21}";
target = up;
type = BottomGhost;
},
{
place = "{452.4, 246}";
type = Stem;
}
);
layerId = "E87290C6-23CF-4B1A-9291-A4CEFD7391A8";
paths = (
{
closed = 1;
nodes = (
"783 13 LINE",
"856 385 LINE SMOOTH",
"885 536 OFFCURVE",
"888 611 OFFCURVE",
"935 663 CURVE",
"932 700 OFFCURVE",
"886 722 OFFCURVE",
"831 722 CURVE SMOOTH",
"716 722 OFFCURVE",
"677 657 OFFCURVE",
"655 550 CURVE SMOOTH",
"549 -9 LINE"
);
},
{
closed = 1;
nodes = (
"388 -50 OFFCURVE",
"419 14 OFFCURVE",
"442 131 CURVE SMOOTH",
"546 660 LINE",
"406 632 OFFCURVE",
"296 571 OFFCURVE",
"270 436 CURVE SMOOTH",
"210 121 LINE SMOOTH",
"196 47 OFFCURVE",
"193 22 OFFCURVE",
"159 8 CURVE",
"162 -27 OFFCURVE",
"211 -50 OFFCURVE",
"268 -50 CURVE SMOOTH"
);
},
{
closed = 1;
nodes = (
"191 353 OFFCURVE",
"226 363 OFFCURVE",
"247 388 CURVE",
"225 436 OFFCURVE",
"221 466 OFFCURVE",
"221 505 CURVE SMOOTH",
"221 579 OFFCURVE",
"258 626 OFFCURVE",
"313 626 CURVE SMOOTH",
"326 626 OFFCURVE",
"349 623 OFFCURVE",
"377 609 CURVE",
"380 598 LINE",
"546 660 LINE",
"399 659 OFFCURVE",
"345 704 OFFCURVE",
"232 704 CURVE SMOOTH",
"94 704 OFFCURVE",
"20 594 OFFCURVE",
"20 500 CURVE SMOOTH",
"20 425 OFFCURVE",
"67 353 OFFCURVE",
"168 353 CURVE SMOOTH"
);
},
{
closed = 1;
nodes = (
"644 284 LINE",
"660 366 LINE",
"457 366 LINE",
"439 284 LINE"
);
}
);
width = 900;
}
);
leftKerningGroup = H;
note = H;
rightKerningGroup = H;
unicode = 0048;
},
{
glyphname = Hbar;
layers = (
{
anchors = (
{
name = bottom;
position = "{444, 0}";
},
{
name = center;
position = "{543, 528}";
},
{
name = top;
position = "{549, 660}";
}
);
components = (
{
alignment = -1;
name = baraccentlong;
transform = "{1, 0, 0, 1, 207, 233}";
}
);
layerId = "1252CFB8-7EB2-4C2F-9C11-14383990C0AA";
paths = (
{
closed = 1;
nodes = (
"655 6 LINE",
"767 608 LINE SMOOTH",
"776 658 OFFCURVE",
"792 684 OFFCURVE",
"814 700 CURVE",
"806 714 OFFCURVE",
"786 720 OFFCURVE",
"766 720 CURVE SMOOTH",
"720 720 OFFCURVE",
"690 697 OFFCURVE",
"679 636 CURVE SMOOTH",
"560 -7 LINE"
);
},
{
closed = 1;
nodes = (
"288 -49 OFFCURVE",
"317 -28 OFFCURVE",
"329 35 CURVE SMOOTH",
"451 660 LINE",
"374 660 OFFCURVE",
"345 618 OFFCURVE",
"329 532 CURVE SMOOTH",
"241 63 LINE SMOOTH",
"232 13 OFFCURVE",
"216 -13 OFFCURVE",
"194 -29 CURVE",
"202 -43 OFFCURVE",
"222 -49 OFFCURVE",
"242 -49 CURVE SMOOTH"
);
},
{
closed = 1;
nodes = (
"172 397 OFFCURVE",
"187 400 OFFCURVE",
"200 406 CURVE",
"182 436 OFFCURVE",
"172 474 OFFCURVE",
"172 511 CURVE SMOOTH",
"172 595 OFFCURVE",
"213 655 OFFCURVE",
"302 655 CURVE SMOOTH",
"347 655 OFFCURVE",
"363 644 OFFCURVE",
"371 638 CURVE",
"373 634 LINE",
"451 660 LINE",
"422 666 OFFCURVE",
"366 703 OFFCURVE",
"290 703 CURVE SMOOTH",
"134 703 OFFCURVE",
"65 604 OFFCURVE",
"65 507 CURVE SMOOTH",
"65 434 OFFCURVE",
"105 397 OFFCURVE",
"158 397 CURVE SMOOTH"
);
},
{
closed = 1;
nodes = (
"655 291 LINE",
"667 359 LINE",
"357 359 LINE",
"347 291 LINE"
);
}
);
width = 802;
},
{
anchors = (
{
name = bottom;
position = "{481, 0}";
},
{
name = center;
position = "{575, 515}";
},
{
name = top;
position = "{625, 660}";
}
);
components = (
{
alignment = -1;
name = baraccentlong;
transform = "{1, 0, 0, 1, 171, 205}";
}
);
hints = (
{
horizontal = 1;
place = "{0, 21}";
target = up;
type = BottomGhost;
},
{
horizontal = 1;
place = "{342, 96}";
type = Stem;
},
{
horizontal = 1;
place = "{579.6, 212.4}";
type = Stem;
},
{
place = "{-7.2, 880.8}";
type = Stem;
},
{
horizontal = 1;
place = "{579.6, 109.2}";
type = Stem;
},
{
horizontal = 1;
place = "{-24, 21}";
target = up;
type = BottomGhost;
},
{
place = "{452.4, 246}";
type = Stem;
},
{
horizontal = 1;
place = "{0, 21}";
target = up;
type = BottomGhost;
},
{
horizontal = 1;
place = "{342, 96}";
type = Stem;
},
{
horizontal = 1;
place = "{792, -20}";
target = down;
type = TopGhost;
},
{
place = "{-8.4, 831.6}";
type = Stem;
},
{
horizontal = 1;
place = "{-24, 21}";
target = up;
type = BottomGhost;
},
{
place = "{452.4, 246}";
type = Stem;
},
{
horizontal = 1;
place = "{582, 110.4}";
type = Stem;
},
{
place = "{204, 842.4}";
type = Stem;
}
);
layerId = "E87290C6-23CF-4B1A-9291-A4CEFD7391A8";
paths = (
{
closed = 1;
nodes = (
"783 13 LINE",
"856 385 LINE SMOOTH",
"885 536 OFFCURVE",
"888 611 OFFCURVE",
"935 663 CURVE",
"932 700 OFFCURVE",
"886 722 OFFCURVE",
"831 722 CURVE SMOOTH",
"716 722 OFFCURVE",
"677 657 OFFCURVE",
"655 550 CURVE SMOOTH",
"549 -9 LINE"
);
},
{
closed = 1;
nodes = (
"388 -50 OFFCURVE",
"419 14 OFFCURVE",
"442 131 CURVE SMOOTH",
"546 660 LINE",
"406 632 OFFCURVE",
"303 611 OFFCURVE",
"277 476 CURVE SMOOTH",
"210 121 LINE SMOOTH",
"196 47 OFFCURVE",
"193 22 OFFCURVE",
"159 8 CURVE",
"162 -27 OFFCURVE",
"211 -50 OFFCURVE",
"268 -50 CURVE SMOOTH"
);
},
{
closed = 1;
nodes = (
"167 353 OFFCURVE",
"201 363 OFFCURVE",
"223 388 CURVE",
"200 436 OFFCURVE",
"195 466 OFFCURVE",
"195 505 CURVE SMOOTH",
"195 581 OFFCURVE",
"235 626 OFFCURVE",
"289 626 CURVE SMOOTH",
"304 626 OFFCURVE",
"332 627 OFFCURVE",
"359 614 CURVE",
"361 603 LINE",
"546 660 LINE",
"398 659 OFFCURVE",
"320 704 OFFCURVE",
"208 704 CURVE SMOOTH",
"72 704 OFFCURVE",
"-2 594 OFFCURVE",
"-2 500 CURVE SMOOTH",
"-2 426 OFFCURVE",
"44 353 OFFCURVE",
"144 353 CURVE SMOOTH"
);
},
{
closed = 1;
nodes = (
"639 284 LINE",
"655 366 LINE",
"454 366 LINE",
"438 284 LINE"
);
}
);
width = 920;
}
);
leftKerningGroup = H;
note = Hbar;
rightKerningGroup = H;
unicode = 0126;
},
{
glyphname = I;
layers = (
{
anchors = (
{
name = bottom;
position = "{164, 0}";
},
{
name = ogonek;
position = "{274, -10}";
},
{
name = top;
position = "{344, 720}";
}
);
layerId = "1252CFB8-7EB2-4C2F-9C11-14383990C0AA";
paths = (
{
closed = 1;
nodes = (
"293 -22 OFFCURVE",
"322 -1 OFFCURVE",
"334 62 CURVE SMOOTH",
"451 660 LINE",
"375 660 OFFCURVE",
"346 618 OFFCURVE",
"330 532 CURVE SMOOTH",
"247 90 LINE SMOOTH",
"238 40 OFFCURVE",
"222 14 OFFCURVE",
"200 -2 CURVE",
"208 -16 OFFCURVE",
"227 -22 OFFCURVE",
"247 -22 CURVE SMOOTH"
);
},
{
closed = 1;
nodes = (
"172 397 OFFCURVE",
"185 400 OFFCURVE",
"197 405 CURVE",
"178 437 OFFCURVE",
"168 474 OFFCURVE",
"168 511 CURVE SMOOTH",
"168 602 OFFCURVE",
"217 655 OFFCURVE",
"302 655 CURVE SMOOTH",
"355 655 OFFCURVE",
"371 640 OFFCURVE",
"375 637 CURVE",
"376 635 LINE",
"450 660 LINE",
"419 667 OFFCURVE",
"364 703 OFFCURVE",
"290 703 CURVE SMOOTH",
"140 703 OFFCURVE",
"72 605 OFFCURVE",
"72 507 CURVE SMOOTH",
"72 439 OFFCURVE",
"107 397 OFFCURVE",
"158 397 CURVE SMOOTH"
);
}
);
width = 436;
},
{
anchors = (
{
name = bottom;
position = "{210, 0}";
},
{
name = ogonek;
position = "{306, -6}";
},
{
name = top;
position = "{415, 684}";
}
);
hints = (
{
horizontal = 1;
place = "{0, 21}";
target = up;
type = BottomGhost;
},
{
horizontal = 1;
place = "{792, -20}";
target = down;
type = TopGhost;
},
{
place = "{-8.4, 415.2}";
type = Stem;
},
{
horizontal = 1;
place = "{0, 21}";
target = up;
type = BottomGhost;
},
{
horizontal = 1;
place = "{342, 96}";
type = Stem;
},
{
horizontal = 1;
place = "{792, -20}";
target = down;
type = TopGhost;
},
{
place = "{-8.4, 831.6}";
type = Stem;
},
{
horizontal = 1;
place = "{-24, 21}";
target = up;
type = BottomGhost;
},
{
place = "{452.4, 246}";
type = Stem;
}
);
layerId = "E87290C6-23CF-4B1A-9291-A4CEFD7391A8";
paths = (
{
closed = 1;
nodes = (
"393 -22 OFFCURVE",
"424 42 OFFCURVE",
"447 159 CURVE SMOOTH",
"546 660 LINE",
"406 632 OFFCURVE",
"296 571 OFFCURVE",
"270 436 CURVE SMOOTH",
"215 149 LINE SMOOTH",
"201 75 OFFCURVE",
"198 50 OFFCURVE",
"164 36 CURVE",
"167 1 OFFCURVE",
"216 -22 OFFCURVE",
"273 -22 CURVE SMOOTH"
);
},
{
closed = 1;
nodes = (
"191 353 OFFCURVE",
"226 363 OFFCURVE",
"247 388 CURVE",
"225 436 OFFCURVE",
"221 466 OFFCURVE",
"221 505 CURVE SMOOTH",
"221 579 OFFCURVE",
"258 626 OFFCURVE",
"313 626 CURVE SMOOTH",
"326 626 OFFCURVE",
"349 623 OFFCURVE",
"377 609 CURVE",
"380 598 LINE",
"546 660 LINE",
"399 659 OFFCURVE",
"345 704 OFFCURVE",
"232 704 CURVE SMOOTH",
"94 704 OFFCURVE",
"20 594 OFFCURVE",
"20 500 CURVE SMOOTH",
"20 425 OFFCURVE",
"67 353 OFFCURVE",
"168 353 CURVE SMOOTH"
);
}
);
width = 544;
}
);
leftKerningGroup = H;
leftMetricsKey = H;
note = I;
rightKerningGroup = H;
unicode = 0049;
},
{
glyphname = Iogonek;
layers = (
{
anchors = (
{
name = _ogonek;
position = "{275, -10}";
}
);
components = (
{
name = I;
}
);
layerId = "1252CFB8-7EB2-4C2F-9C11-14383990C0AA";
paths = (
{
closed = 1;
nodes = (
"302 -268 OFFCURVE",
"337 -243 OFFCURVE",
"337 -211 CURVE SMOOTH",
"337 -200 OFFCURVE",
"330 -191 OFFCURVE",
"321 -186 CURVE",
"310 -204 OFFCURVE",
"288 -211 OFFCURVE",
"266 -211 CURVE SMOOTH",
"229 -211 OFFCURVE",
"210 -191 OFFCURVE",
"210 -150 CURVE SMOOTH",
"210 -93 OFFCURVE",
"242 -45 OFFCURVE",
"299 -7 CURVE",
"310 16 LINE",
"279 12 LINE",
"220 -11 OFFCURVE",
"146 -75 OFFCURVE",
"146 -161 CURVE SMOOTH",
"146 -229 OFFCURVE",
"191 -268 OFFCURVE",
"257 -268 CURVE SMOOTH"
);
}
);
width = 446;
},
{
anchors = (
{
name = _ogonek;
position = "{306, -6}";
}
);
components = (
{
alignment = -1;
name = I;
}
);
hints = (
{
horizontal = 1;
place = "{-309.6, 100.8}";
type = Stem;
},
{
horizontal = 1;
place = "{0, 21}";
target = up;
type = BottomGhost;
},
{
horizontal = 1;
place = "{792, -20}";
target = down;
type = TopGhost;
},
{
place = "{10.8, 134.4}";
type = Stem;
},
{
horizontal = 1;
place = "{-318, 100.8}";
type = Stem;
},
{
horizontal = 1;
place = "{3.6, 10.8}";
type = Stem;
},
{
place = "{187.2, 134.4}";
type = Stem;
}
);
layerId = "E87290C6-23CF-4B1A-9291-A4CEFD7391A8";
paths = (
{
closed = 1;
nodes = (
"369 -264 OFFCURVE",
"407 -235 OFFCURVE",
"407 -201 CURVE SMOOTH",
"407 -178 OFFCURVE",
"401 -167 OFFCURVE",
"388 -150 CURVE",
"371 -168 OFFCURVE",
"349 -175 OFFCURVE",
"325 -175 CURVE SMOOTH",
"295 -175 OFFCURVE",
"280 -160 OFFCURVE",
"280 -126 CURVE SMOOTH",
"280 -77 OFFCURVE",
"324 -27 OFFCURVE",
"371 5 CURVE",
"369 8 LINE",
"322 16 LINE",
"233 -9 OFFCURVE",
"158 -59 OFFCURVE",
"158 -151 CURVE SMOOTH",
"158 -227 OFFCURVE",
"209 -264 OFFCURVE",
"293 -264 CURVE SMOOTH"
);
}
);
width = 542;
}
);
leftKerningGroup = H;
note = Iogonek;
rightKerningGroup = H;
unicode = 012E;
},
{
glyphname = J;
layers = (
{
anchors = (
{
name = top;
position = "{335, 660}";
}
);
background = {
paths = (
{
closed = 1;
nodes = (
"288 -49 OFFCURVE",
"317 -28 OFFCURVE",
"329 35 CURVE SMOOTH",
"449 650 LINE",
"370 652 OFFCURVE",
"338 584 OFFCURVE",
"326 516 CURVE SMOOTH",
"241 63 LINE SMOOTH",
"232 13 OFFCURVE",
"216 -13 OFFCURVE",
"194 -29 CURVE",
"202 -43 OFFCURVE",
"222 -49 OFFCURVE",
"242 -49 CURVE SMOOTH"
);
},
{
closed = 1;
nodes = (
"172 397 OFFCURVE",
"187 400 OFFCURVE",
"200 406 CURVE",
"182 436 OFFCURVE",
"172 474 OFFCURVE",
"172 511 CURVE SMOOTH",
"172 595 OFFCURVE",
"213 655 OFFCURVE",
"302 655 CURVE SMOOTH",
"331 655 OFFCURVE",
"359 645 OFFCURVE",
"379 633 CURVE",
"380 630 LINE",
"451 660 LINE",
"420 666 OFFCURVE",
"366 703 OFFCURVE",
"290 703 CURVE SMOOTH",
"134 703 OFFCURVE",
"65 604 OFFCURVE",
"65 507 CURVE SMOOTH",
"65 434 OFFCURVE",
"105 397 OFFCURVE",
"158 397 CURVE SMOOTH"
);
}
);
};
guideLines = (
{
position = "{347, 516}";
}
);
layerId = "1252CFB8-7EB2-4C2F-9C11-14383990C0AA";
paths = (
{
closed = 1;
nodes = (
"283 -153 OFFCURVE",
"313 -45 OFFCURVE",
"332 52 CURVE SMOOTH",
"451 660 LINE",
"372 652 OFFCURVE",
"344 590 OFFCURVE",
"328 516 CURVE",
"235 27 LINE SMOOTH",
"230 2 OFFCURVE",
"212 -96 OFFCURVE",
"158 -117 CURVE",
"168 -141 OFFCURVE",
"188 -153 OFFCURVE",
"211 -153 CURVE SMOOTH"
);
},
{
closed = 1;
nodes = (
"172 397 OFFCURVE",
"185 400 OFFCURVE",
"197 405 CURVE",
"178 437 OFFCURVE",
"168 474 OFFCURVE",
"168 511 CURVE SMOOTH",
"168 602 OFFCURVE",
"217 655 OFFCURVE",
"302 655 CURVE SMOOTH",
"355 655 OFFCURVE",
"371 640 OFFCURVE",
"379 632 CURVE",
"380 630 LINE",
"450 660 LINE",
"419 667 OFFCURVE",
"364 703 OFFCURVE",
"290 703 CURVE SMOOTH",
"137 703 OFFCURVE",
"69 605 OFFCURVE",
"69 507 CURVE SMOOTH",
"69 439 OFFCURVE",
"104 397 OFFCURVE",
"158 397 CURVE SMOOTH"
);
}
);
width = 436;
},
{
anchors = (
{
name = top;
position = "{442, 660}";
}
);
hints = (
{
horizontal = 1;
place = "{792, -20}";
target = down;
type = TopGhost;
},
{
place = "{-144, 549.6}";
type = Stem;
}
);
layerId = "E87290C6-23CF-4B1A-9291-A4CEFD7391A8";
paths = (
{
closed = 1;
nodes = (
"327 -197 OFFCURVE",
"396 -107 OFFCURVE",
"451 174 CURVE SMOOTH",
"545 660 LINE",
"406 634 OFFCURVE",
"297 577 OFFCURVE",
"270 439 CURVE",
"219 179 LINE SMOOTH",
"168 -86 OFFCURVE",
"140 -109 OFFCURVE",
"61 -142 CURVE",
"77 -179 OFFCURVE",
"124 -197 OFFCURVE",
"186 -197 CURVE SMOOTH"
);
},
{
closed = 1;
nodes = (
"191 353 OFFCURVE",
"226 363 OFFCURVE",
"247 388 CURVE",
"225 436 OFFCURVE",
"221 466 OFFCURVE",
"221 505 CURVE SMOOTH",
"221 579 OFFCURVE",
"258 626 OFFCURVE",
"313 626 CURVE SMOOTH",
"326 626 OFFCURVE",
"349 623 OFFCURVE",
"377 610 CURVE",
"379 599 LINE",
"545 660 LINE",
"397 659 OFFCURVE",
"345 704 OFFCURVE",
"232 704 CURVE SMOOTH",
"95 704 OFFCURVE",
"21 594 OFFCURVE",
"21 500 CURVE SMOOTH",
"21 425 OFFCURVE",
"68 353 OFFCURVE",
"168 353 CURVE SMOOTH"
);
}
);
width = 544;
}
);
leftKerningGroup = H;
note = J;
rightKerningGroup = H;
unicode = 004A;
},
{
glyphname = K;
layers = (
{
anchors = (
{
name = bottom;
position = "{238, 0}";
}
);
background = {
paths = (
{
closed = 1;
nodes = (
"651 660 LINE",
"408 328 LINE",
"552 -25 OFFCURVE",
"593 -112 OFFCURVE",
"675 -112 CURVE SMOOTH",
"710 -112 OFFCURVE",
"737 -96 OFFCURVE",
"744 -64 CURVE",
"703 -45 OFFCURVE",
"629 47 OFFCURVE",
"506 336 CURVE",
"531 368 OFFCURVE",
"628 486 OFFCURVE",
"762 660 CURVE"
);
}
);
};
components = (
{
name = I;
}
);
layerId = "1252CFB8-7EB2-4C2F-9C11-14383990C0AA";
paths = (
{
closed = 1;
nodes = (
"540 315 OFFCURVE",
"680 637 OFFCURVE",
"765 630 CURVE SMOOTH",
"767 630 OFFCURVE",
"770 629 OFFCURVE",
"773 627 CURVE",
"780 635 OFFCURVE",
"783 650 OFFCURVE",
"783 661 CURVE SMOOTH",
"783 686 OFFCURVE",
"763 709 OFFCURVE",
"727 709 CURVE SMOOTH",
"692 709 OFFCURVE",
"677 692 OFFCURVE",
"652 660 CURVE SMOOTH",
"603 595 OFFCURVE",
"514 417 OFFCURVE",
"408 328 CURVE",
"463 323 LINE SMOOTH"
);
},
{
closed = 1;
nodes = (
"701 -112 OFFCURVE",
"722 -91 OFFCURVE",
"732 -64 CURVE",
"612 -35 OFFCURVE",
"543 302 OFFCURVE",
"482 343 CURVE",
"408 328 LINE",
"463 251 OFFCURVE",
"533 22 OFFCURVE",
"580 -53 CURVE SMOOTH",
"604 -91 OFFCURVE",
"628 -112 OFFCURVE",
"666 -112 CURVE SMOOTH"
);
}
);
width = 723;
},
{
anchors = (
{
name = bottom;
position = "{539, 0}";
}
);
components = (
{
alignment = -1;
name = I;
}
);
hints = (
{
horizontal = 1;
place = "{0, 21}";
target = up;
type = BottomGhost;
},
{
horizontal = 1;
place = "{792, -20}";
target = down;
type = TopGhost;
},
{
place = "{-6, 908.4}";
type = Stem;
},
{
horizontal = 1;
place = "{-24, 21}";
target = up;
type = BottomGhost;
}
);
layerId = "E87290C6-23CF-4B1A-9291-A4CEFD7391A8";
paths = (
{
closed = 1;
nodes = (
"772 435 OFFCURVE",
"787 581 OFFCURVE",
"890 582 CURVE SMOOTH",
"901 582 OFFCURVE",
"915 580 OFFCURVE",
"929 575 CURVE",
"953 599 OFFCURVE",
"964 625 OFFCURVE",
"964 649 CURVE SMOOTH",
"964 692 OFFCURVE",
"930 728 OFFCURVE",
"864 728 CURVE SMOOTH",
"796 728 OFFCURVE",
"744 699 OFFCURVE",
"705 658 CURVE SMOOTH",
"597 540 OFFCURVE",
"582 328 OFFCURVE",
"510 303 CURVE",
"632 299 LINE SMOOTH"
);
},
{
closed = 1;
nodes = (
"820 -143 OFFCURVE",
"876 -102 OFFCURVE",
"892 -39 CURVE",
"799 -29 OFFCURVE",
"721 217 OFFCURVE",
"628 307 CURVE",
"510 303 LINE",
"554 162 OFFCURVE",
"558 66 OFFCURVE",
"585 -17 CURVE SMOOTH",
"611 -95 OFFCURVE",
"652 -143 OFFCURVE",
"742 -143 CURVE SMOOTH"
);
}
);
width = 814;
}
);
leftKerningGroup = H;
note = K;
rightKerningGroup = K;
unicode = 004B;
},
{
glyphname = L;
layers = (
{
anchors = (
{
name = bottom;
position = "{179, 0}";
},
{
name = center;
position = "{135, 314}";
},
{
name = top;
position = "{376, 660}";
},
{
name = topright;
position = "{438, 376}";
}
);
background = {
paths = (
{
closed = 1;
nodes = (
"122 107 OFFCURVE",
"188 201 OFFCURVE",
"198 338 CURVE SMOOTH",
"205 429 OFFCURVE",
"229 622 OFFCURVE",
"354 622 CURVE SMOOTH",
"408 622 OFFCURVE",
"433 581 OFFCURVE",
"433 529 CURVE SMOOTH",
"433 491 OFFCURVE",
"419 455 OFFCURVE",
"403 443 CURVE",
"418 432 OFFCURVE",
"434 427 OFFCURVE",
"451 427 CURVE SMOOTH",
"500 427 OFFCURVE",
"549 470 OFFCURVE",
"549 546 CURVE SMOOTH",
"549 633 OFFCURVE",
"475 685 OFFCURVE",
"385 685 CURVE SMOOTH",
"225 685 OFFCURVE",
"112 551 OFFCURVE",
"96 357 CURVE SMOOTH",
"83 201 OFFCURVE",
"69 124 OFFCURVE",
"-10 64 CURVE",
"67 44 LINE"
);
},
{
closed = 1;
nodes = (
"443 -170 OFFCURVE",
"481 -129 OFFCURVE",
"481 -91 CURVE SMOOTH",
"481 -74 OFFCURVE",
"473 -56 OFFCURVE",
"459 -47 CURVE",
"439 -56 OFFCURVE",
"415 -65 OFFCURVE",
"381 -65 CURVE SMOOTH",
"253 -65 OFFCURVE",
"129 79 OFFCURVE",
"-5 79 CURVE SMOOTH",
"-53 79 OFFCURVE",
"-73 55 OFFCURVE",
"-73 23 CURVE SMOOTH",
"-73 17 OFFCURVE",
"-72 10 OFFCURVE",
"-70 3 CURVE",
"-56 6 OFFCURVE",
"-48 8 OFFCURVE",
"-25 8 CURVE SMOOTH",
"103 8 OFFCURVE",
"214 -170 OFFCURVE",
"373 -170 CURVE SMOOTH"
);
}
);
};
layerId = "1252CFB8-7EB2-4C2F-9C11-14383990C0AA";
paths = (
{
closed = 1;
nodes = (
"120 99 OFFCURVE",
"180 202 OFFCURVE",
"195 354 CURVE SMOOTH",
"213 539 OFFCURVE",
"259 624 OFFCURVE",
"354 624 CURVE SMOOTH",
"405 624 OFFCURVE",
"435 588 OFFCURVE",
"434 529 CURVE SMOOTH",
"433 493 OFFCURVE",
"421 459 OFFCURVE",
"403 443 CURVE",
"416 434 OFFCURVE",
"428 429 OFFCURVE",
"444 429 CURVE SMOOTH",
"494 429 OFFCURVE",
"533 480 OFFCURVE",
"534 546 CURVE SMOOTH",
"536 627 OFFCURVE",
"474 683 OFFCURVE",
"385 683 CURVE SMOOTH",
"233 683 OFFCURVE",
"120 553 OFFCURVE",
"99 347 CURVE SMOOTH",
"84 203 OFFCURVE",
"76 126 OFFCURVE",
"-1 65 CURVE",
"65 47 LINE"
);
},
{
closed = 1;
nodes = (
"431 -160 OFFCURVE",
"466 -121 OFFCURVE",
"466 -91 CURVE SMOOTH",
"466 -75 OFFCURVE",
"459 -58 OFFCURVE",
"449 -50 CURVE",
"432 -58 OFFCURVE",
"408 -67 OFFCURVE",
"375 -67 CURVE SMOOTH",
"249 -67 OFFCURVE",
"130 74 OFFCURVE",
"4 74 CURVE SMOOTH",
"-34 74 OFFCURVE",
"-55 59 OFFCURVE",
"-55 31 CURVE SMOOTH",
"-55 26 OFFCURVE",
"-54 20 OFFCURVE",
"-53 14 CURVE",
"-44 16 OFFCURVE",
"-34 18 OFFCURVE",
"-15 18 CURVE SMOOTH",
"112 18 OFFCURVE",
"219 -160 OFFCURVE",
"368 -160 CURVE SMOOTH"
);
}
);
width = 504;
},
{
anchors = (
{
name = bottom;
position = "{349, 0}";
},
{
name = center;
position = "{243, 232}";
},
{
name = top;
position = "{437, 682}";
},
{
name = topright;
position = "{438, 386}";
}
);
hints = (
{
horizontal = 1;
place = "{0, 144}";
type = Stem;
},
{
horizontal = 1;
place = "{792, -20}";
target = down;
type = TopGhost;
},
{
place = "{-1.2, 531.6}";
type = Stem;
}
);
layerId = "E87290C6-23CF-4B1A-9291-A4CEFD7391A8";
paths = (
{
closed = 1;
nodes = (
"258 94 OFFCURVE",
"325 206 OFFCURVE",
"337 344 CURVE SMOOTH",
"347 481 OFFCURVE",
"338 616 OFFCURVE",
"420 616 CURVE SMOOTH",
"445 616 OFFCURVE",
"471 590 OFFCURVE",
"471 528 CURVE SMOOTH",
"471 487 OFFCURVE",
"463 434 OFFCURVE",
"447 413 CURVE",
"458 400 OFFCURVE",
"487 391 OFFCURVE",
"517 391 CURVE SMOOTH",
"606 391 OFFCURVE",
"646 464 OFFCURVE",
"646 526 CURVE SMOOTH",
"645 629 OFFCURVE",
"552 682 OFFCURVE",
"445 682 CURVE SMOOTH",
"245 682 OFFCURVE",
"132 572 OFFCURVE",
"125 370 CURVE SMOOTH",
"121 240 OFFCURVE",
"101 143 OFFCURVE",
"46 93 CURVE",
"105 61 LINE"
);
},
{
closed = 1;
nodes = (
"547 -219 OFFCURVE",
"599 -158 OFFCURVE",
"599 -104 CURVE SMOOTH",
"599 -71 OFFCURVE",
"584 -41 OFFCURVE",
"550 -24 CURVE",
"520 -38 OFFCURVE",
"491 -41 OFFCURVE",
"467 -41 CURVE SMOOTH",
"358 -41 OFFCURVE",
"155 104 OFFCURVE",
"62 104 CURVE SMOOTH",
"-20 104 OFFCURVE",
"-42 66 OFFCURVE",
"-42 31 CURVE SMOOTH",
"-42 12 OFFCURVE",
"-32 -9 OFFCURVE",
"-16 -17 CURVE",
"-3 -8 OFFCURVE",
"13 -4 OFFCURVE",
"37 -4 CURVE SMOOTH",
"191 -4 OFFCURVE",
"265 -219 OFFCURVE",
"452 -219 CURVE SMOOTH"
);
}
);
width = 608;
}
);
leftKerningGroup = L;
note = L;
rightKerningGroup = L;
unicode = 004C;
},
{
glyphname = LJ;
layers = (
{
background = {
paths = (
{
closed = 1;
nodes = (
"140 91 OFFCURVE",
"189 181 OFFCURVE",
"201 338 CURVE SMOOTH",
"208 429 OFFCURVE",
"229 622 OFFCURVE",
"368 622 CURVE SMOOTH",
"412 622 OFFCURVE",
"451 598 OFFCURVE",
"451 532 CURVE SMOOTH",
"451 498 OFFCURVE",
"442 468 OFFCURVE",
"429 449 CURVE",
"437 436 OFFCURVE",
"456 428 OFFCURVE",
"480 428 CURVE SMOOTH",
"529 428 OFFCURVE",
"564 462 OFFCURVE",
"564 539 CURVE SMOOTH",
"564 642 OFFCURVE",
"472 685 OFFCURVE",
"391 685 CURVE SMOOTH",
"228 685 OFFCURVE",
"115 551 OFFCURVE",
"99 357 CURVE SMOOTH",
"86 201 OFFCURVE",
"82 112 OFFCURVE",
"14 48 CURVE",
"79 35 LINE"
);
},
{
closed = 1;
nodes = (
"419 -103 OFFCURVE",
"454 -64 OFFCURVE",
"454 -21 CURVE SMOOTH",
"454 3 OFFCURVE",
"451 15 OFFCURVE",
"440 26 CURVE",
"423 17 OFFCURVE",
"380 7 OFFCURVE",
"343 7 CURVE SMOOTH",
"230 7 OFFCURVE",
"169 34 OFFCURVE",
"24 70 CURVE SMOOTH",
"-19 82 OFFCURVE",
"-67 63 OFFCURVE",
"-67 28 CURVE SMOOTH",
"-67 23 OFFCURVE",
"-66 18 OFFCURVE",
"-64 12 CURVE",
"-50 15 OFFCURVE",
"-36 17 OFFCURVE",
"-26 17 CURVE SMOOTH",
"115 17 OFFCURVE",
"221 -103 OFFCURVE",
"352 -103 CURVE SMOOTH"
);
}
);
};
components = (
{
name = L.alt;
},
{
name = J.alt;
transform = "{1, 0, 0, 1, 482, 0}";
}
);
layerId = "1252CFB8-7EB2-4C2F-9C11-14383990C0AA";
width = 726;
},
{
components = (
{
name = L.alt;
},
{
name = J.alt;
transform = "{1, 0, 0, 1, 661, 0}";
}
);
hints = (
{
horizontal = 1;
place = "{0, 144}";
type = Stem;
},
{
horizontal = 1;
place = "{792, -20}";
target = down;
type = TopGhost;
},
{
place = "{-1.2, 936}";
type = Stem;
},
{
horizontal = 1;
place = "{0, 144}";
type = Stem;
},
{
horizontal = 1;
place = "{792, -20}";
target = down;
type = TopGhost;
},
{
place = "{-1.2, 531.6}";
type = Stem;
},
{
horizontal = 1;
place = "{792, -20}";
target = down;
type = TopGhost;
},
{
place = "{601.2, 549.6}";
type = Stem;
},
{
horizontal = 1;
place = "{0, 144}";
type = Stem;
},
{
horizontal = 1;
place = "{792, -20}";
target = down;
type = TopGhost;
},
{
place = "{-1.2, 531.6}";
type = Stem;
}
);
layerId = "E87290C6-23CF-4B1A-9291-A4CEFD7391A8";
width = 1015;
}
);
leftKerningGroup = L;
note = uni01C7;
rightKerningGroup = J;
unicode = 01C7;
},
{
glyphname = Lcaron;
layers = (
{
anchors = (
{
name = _topright;
position = "{436, 416}";
},
{
name = bottom;
position = "{182, 0}";
},
{
name = top;
position = "{207, 660}";
}
);
background = {
paths = (
{
closed = 1;
nodes = (
"489 -166 OFFCURVE",
"525 -129 OFFCURVE",
"525 -91 CURVE SMOOTH",
"525 -74 OFFCURVE",
"519 -60 OFFCURVE",
"508 -50 CURVE",
"489 -58 OFFCURVE",
"461 -65 OFFCURVE",
"429 -65 CURVE SMOOTH",
"321 -65 OFFCURVE",
"149 74 OFFCURVE",
"15 74 CURVE SMOOTH",
"-33 74 OFFCURVE",
"-61 55 OFFCURVE",
"-61 23 CURVE SMOOTH",
"-61 17 OFFCURVE",
"-60 10 OFFCURVE",
"-58 3 CURVE",
"-44 6 OFFCURVE",
"-36 8 OFFCURVE",
"-13 8 CURVE SMOOTH",
"115 8 OFFCURVE",
"281 -166 OFFCURVE",
"421 -166 CURVE SMOOTH"
);
},
{
closed = 1;
nodes = (
"124 106 OFFCURVE",
"191 201 OFFCURVE",
"201 338 CURVE SMOOTH",
"208 439 OFFCURVE",
"231 622 OFFCURVE",
"383 643 CURVE",
"391 685 LINE",
"228 685 OFFCURVE",
"115 551 OFFCURVE",
"99 357 CURVE SMOOTH",
"86 201 OFFCURVE",
"72 122 OFFCURVE",
"-7 64 CURVE",
"71 44 LINE"
);
},
{
closed = 0;
nodes = (
"349 624 LINE",
"400 624 OFFCURVE",
"430 588 OFFCURVE",
"429 529 CURVE SMOOTH",
"428 493 OFFCURVE",
"416 459 OFFCURVE",
"398 443 CURVE",
"411 434 OFFCURVE",
"423 429 OFFCURVE",
"439 429 CURVE SMOOTH",
"489 429 OFFCURVE",
"528 480 OFFCURVE",
"529 546 CURVE SMOOTH",
"531 627 OFFCURVE",
"469 683 OFFCURVE",
"380 683 CURVE"
);
},
{
closed = 1;
nodes = (
"426 -160 OFFCURVE",
"461 -121 OFFCURVE",
"461 -91 CURVE SMOOTH",
"461 -75 OFFCURVE",
"454 -58 OFFCURVE",
"444 -50 CURVE",
"427 -58 OFFCURVE",
"403 -67 OFFCURVE",
"370 -67 CURVE SMOOTH",
"244 -67 OFFCURVE",
"125 74 OFFCURVE",
"-1 74 CURVE SMOOTH",
"-39 74 OFFCURVE",
"-60 59 OFFCURVE",
"-60 31 CURVE SMOOTH",
"-60 26 OFFCURVE",
"-59 20 OFFCURVE",
"-58 14 CURVE",
"-49 16 OFFCURVE",
"-39 18 OFFCURVE",
"-20 18 CURVE SMOOTH",
"107 18 OFFCURVE",
"214 -160 OFFCURVE",
"363 -160 CURVE SMOOTH"
);
},
{
closed = 0;
nodes = (
"380 683 LINE",
"228 683 OFFCURVE",
"115 553 OFFCURVE",
"94 347 CURVE SMOOTH",
"79 203 OFFCURVE",
"71 126 OFFCURVE",
"-6 65 CURVE",
"60 47 LINE",
"115 99 OFFCURVE",
"175 202 OFFCURVE",
"190 354 CURVE SMOOTH",
"208 539 OFFCURVE",
"254 624 OFFCURVE",
"349 624 CURVE"
);
}
);
};
layerId = "1252CFB8-7EB2-4C2F-9C11-14383990C0AA";
paths = (
{
closed = 1;
nodes = (
"115 99 OFFCURVE",
"175 202 OFFCURVE",
"190 354 CURVE SMOOTH",
"208 539 OFFCURVE",
"254 624 OFFCURVE",
"373 643 CURVE",
"380 683 LINE",
"228 683 OFFCURVE",
"115 553 OFFCURVE",
"94 347 CURVE SMOOTH",
"79 203 OFFCURVE",
"71 126 OFFCURVE",
"-6 65 CURVE",
"60 47 LINE"
);
},
{
closed = 1;
nodes = (
"426 -160 OFFCURVE",
"461 -121 OFFCURVE",
"461 -91 CURVE SMOOTH",
"461 -75 OFFCURVE",
"454 -58 OFFCURVE",
"444 -50 CURVE",
"427 -58 OFFCURVE",
"403 -67 OFFCURVE",
"370 -67 CURVE SMOOTH",
"244 -67 OFFCURVE",
"125 74 OFFCURVE",
"-1 74 CURVE SMOOTH",
"-39 74 OFFCURVE",
"-60 59 OFFCURVE",
"-60 31 CURVE SMOOTH",
"-60 26 OFFCURVE",
"-59 20 OFFCURVE",
"-58 14 CURVE",
"-49 16 OFFCURVE",
"-39 18 OFFCURVE",
"-20 18 CURVE SMOOTH",
"107 18 OFFCURVE",
"214 -160 OFFCURVE",
"363 -160 CURVE SMOOTH"
);
},
{
closed = 1;
nodes = (
"508 528 OFFCURVE",
"574 577 OFFCURVE",
"574 647 CURVE SMOOTH",
"574 687 OFFCURVE",
"544 709 OFFCURVE",
"513 709 CURVE SMOOTH",
"494 709 OFFCURVE",
"482 705 OFFCURVE",
"469 699 CURVE",
"477 687 OFFCURVE",
"480 675 OFFCURVE",
"480 652 CURVE SMOOTH",
"480 603 OFFCURVE",
"457 570 OFFCURVE",
"430 533 CURVE",
"442 529 OFFCURVE",
"452 528 OFFCURVE",
"459 528 CURVE SMOOTH"
);
}
);
width = 524;
},
{
anchors = (
{
name = _topright;
position = "{446, 368}";
},
{
name = bottom;
position = "{261, 0}";
},
{
name = top;
position = "{207, 660}";
}
);
hints = (
{
horizontal = 1;
place = "{0, 144}";
type = Stem;
},
{
horizontal = 1;
place = "{628.8, 163.2}";
type = Stem;
},
{
horizontal = 1;
place = "{861.6, -20}";
target = down;
type = TopGhost;
},
{
place = "{492, 146.4}";
type = Stem;
},
{
horizontal = 1;
place = "{636, -20}";
target = down;
type = TopGhost;
},
{
horizontal = 1;
place = "{0, 144}";
type = Stem;
},
{
horizontal = 1;
place = "{792, -20}";
target = down;
type = TopGhost;
},
{
place = "{-1.2, 531.6}";
type = Stem;
},
{
horizontal = 1;
place = "{710.4, -20}";
target = down;
type = TopGhost;
},
{
place = "{871.2, 146.4}";
type = Stem;
}
);
layerId = "E87290C6-23CF-4B1A-9291-A4CEFD7391A8";
paths = (
{
closed = 1;
nodes = (
"325 94 OFFCURVE",
"350 160 OFFCURVE",
"354 344 CURVE SMOOTH",
"357 481 OFFCURVE",
"351 652 OFFCURVE",
"428 648 CURVE",
"435 682 LINE",
"292 682 OFFCURVE",
"133 597 OFFCURVE",
"137 412 CURVE SMOOTH",
"140 227 OFFCURVE",
"147 103 OFFCURVE",
"88 47 CURVE",
"150 25 LINE"
);
},
{
closed = 1;
nodes = (
"572 -219 OFFCURVE",
"624 -158 OFFCURVE",
"624 -104 CURVE SMOOTH",
"624 -71 OFFCURVE",
"609 -41 OFFCURVE",
"575 -24 CURVE",
"545 -38 OFFCURVE",
"516 -41 OFFCURVE",
"492 -41 CURVE SMOOTH",
"383 -41 OFFCURVE",
"180 104 OFFCURVE",
"87 104 CURVE SMOOTH",
"5 104 OFFCURVE",
"-17 66 OFFCURVE",
"-17 31 CURVE SMOOTH",
"-17 12 OFFCURVE",
"-7 -9 OFFCURVE",
"9 -16 CURVE",
"22 -9 OFFCURVE",
"38 -4 OFFCURVE",
"62 -4 CURVE SMOOTH",
"216 -4 OFFCURVE",
"290 -219 OFFCURVE",
"477 -219 CURVE SMOOTH"
);
},
{
closed = 1;
nodes = (
"615 523 OFFCURVE",
"668 594 OFFCURVE",
"668 640 CURVE SMOOTH",
"668 692 OFFCURVE",
"639 722 OFFCURVE",
"596 722 CURVE SMOOTH",
"573 722 OFFCURVE",
"542 713 OFFCURVE",
"530 707 CURVE",
"536 687 OFFCURVE",
"538 673 OFFCURVE",
"538 650 CURVE SMOOTH",
"538 617 OFFCURVE",
"533 578 OFFCURVE",
"490 531 CURVE",
"498 527 OFFCURVE",
"510 523 OFFCURVE",
"527 523 CURVE SMOOTH"
);
}
);
width = 580;
}
);
leftKerningGroup = L;
note = Lcaron;
rightKerningGroup = L;
unicode = 013D;
},
{
glyphname = Lcommaaccent;
layers = (
{
anchors = (
{
name = bottom;
position = "{182, 0}";
},
{
name = center;
position = "{138, 314}";
},
{
name = top;
position = "{379, 660}";
},
{
name = topright;
position = "{441, 376}";
}
);
background = {
paths = (
{
closed = 1;
nodes = (
"446 -170 OFFCURVE",
"484 -129 OFFCURVE",
"484 -91 CURVE SMOOTH",
"484 -74 OFFCURVE",
"478 -60 OFFCURVE",
"466 -50 CURVE",
"446 -58 OFFCURVE",
"418 -65 OFFCURVE",
"384 -65 CURVE SMOOTH",
"271 -65 OFFCURVE",
"149 74 OFFCURVE",
"15 74 CURVE SMOOTH",
"-33 74 OFFCURVE",
"-61 55 OFFCURVE",
"-61 23 CURVE SMOOTH",
"-61 17 OFFCURVE",
"-60 10 OFFCURVE",
"-58 3 CURVE",
"-44 6 OFFCURVE",
"-36 8 OFFCURVE",
"-13 8 CURVE SMOOTH",
"115 8 OFFCURVE",
"217 -170 OFFCURVE",
"376 -170 CURVE SMOOTH"
);
},
{
closed = 1;
nodes = (
"429 -170 OFFCURVE",
"464 -133 OFFCURVE",
"464 -95 CURVE SMOOTH",
"464 -74 OFFCURVE",
"461 -64 OFFCURVE",
"450 -54 CURVE",
"433 -62 OFFCURVE",
"400 -69 OFFCURVE",
"368 -69 CURVE SMOOTH",
"241 -69 OFFCURVE",
"123 10 OFFCURVE",
"26 10 CURVE SMOOTH",
"-22 10 OFFCURVE",
"-50 -9 OFFCURVE",
"-50 -41 CURVE SMOOTH",
"-50 -47 OFFCURVE",
"-49 -54 OFFCURVE",
"-47 -61 CURVE",
"-33 -58 OFFCURVE",
"-25 -56 OFFCURVE",
"-2 -56 CURVE SMOOTH",
"126 -56 OFFCURVE",
"231 -170 OFFCURVE",
"362 -170 CURVE SMOOTH"
);
}
);
};
layerId = "1252CFB8-7EB2-4C2F-9C11-14383990C0AA";
paths = (
{
closed = 1;
nodes = (
"141 52 OFFCURVE",
"188 175 OFFCURVE",
"201 338 CURVE SMOOTH",
"208 429 OFFCURVE",
"229 622 OFFCURVE",
"368 622 CURVE SMOOTH",
"412 622 OFFCURVE",
"451 598 OFFCURVE",
"451 532 CURVE SMOOTH",
"451 498 OFFCURVE",
"442 468 OFFCURVE",
"429 449 CURVE",
"437 436 OFFCURVE",
"456 428 OFFCURVE",
"480 428 CURVE SMOOTH",
"529 428 OFFCURVE",
"564 462 OFFCURVE",
"564 539 CURVE SMOOTH",
"564 642 OFFCURVE",
"472 685 OFFCURVE",
"391 685 CURVE SMOOTH",
"228 685 OFFCURVE",
"115 551 OFFCURVE",
"99 357 CURVE SMOOTH",
"86 201 OFFCURVE",
"76 71 OFFCURVE",
"11 14 CURVE",
"72 -4 LINE"
);
},
{
closed = 1;
nodes = (
"84 -293 OFFCURVE",
"142 -219 OFFCURVE",
"142 -163 CURVE SMOOTH",
"142 -124 OFFCURVE",
"117 -110 OFFCURVE",
"89 -110 CURVE SMOOTH",
"74 -110 OFFCURVE",
"58 -114 OFFCURVE",
"45 -120 CURVE",
"50 -133 OFFCURVE",
"50 -140 OFFCURVE",
"50 -153 CURVE SMOOTH",
"50 -202 OFFCURVE",
"23 -243 OFFCURVE",
"-2 -280 CURVE",
"5 -289 OFFCURVE",
"12 -293 OFFCURVE",
"24 -293 CURVE SMOOTH"
);
},
{
closed = 1;
nodes = (
"448 -157 OFFCURVE",
"483 -120 OFFCURVE",
"483 -82 CURVE SMOOTH",
"483 -61 OFFCURVE",
"474 -46 OFFCURVE",
"463 -37 CURVE",
"446 -46 OFFCURVE",
"419 -56 OFFCURVE",
"387 -56 CURVE SMOOTH",
"279 -56 OFFCURVE",
"133 39 OFFCURVE",
"28 39 CURVE SMOOTH",
"-20 39 OFFCURVE",
"-48 20 OFFCURVE",
"-48 -12 CURVE SMOOTH",
"-48 -18 OFFCURVE",
"-47 -25 OFFCURVE",
"-45 -32 CURVE",
"-31 -29 OFFCURVE",
"-23 -27 OFFCURVE",
"0 -27 CURVE SMOOTH",
"128 -27 OFFCURVE",
"250 -157 OFFCURVE",
"381 -157 CURVE SMOOTH"
);
}
);
width = 514;
},
{
anchors = (
{
name = bottom;
position = "{291, 0}";
},
{
name = center;
position = "{246, 282}";
},
{
name = top;
position = "{379, 660}";
},
{
name = topright;
position = "{441, 376}";
}
);
hints = (
{
horizontal = 1;
place = "{0, 144}";
type = Stem;
},
{
horizontal = 1;
place = "{792, -20}";
target = down;
type = TopGhost;
},
{
place = "{146.4, 160.8}";
type = Stem;
},
{
horizontal = 1;
place = "{0, 144}";
type = Stem;
},
{
horizontal = 1;
place = "{792, -20}";
target = down;
type = TopGhost;
},
{
place = "{-1.2, 531.6}";
type = Stem;
},
{
horizontal = 1;
place = "{-309.6, 248.4}";
type = Stem;
},
{
place = "{295.2, 160.8}";
type = Stem;
},
{
horizontal = 1;
place = "{-309.6, 248.4}";
type = Stem;
},
{
place = "{14.4, 160.8}";
type = Stem;
}
);
layerId = "E87290C6-23CF-4B1A-9291-A4CEFD7391A8";
paths = (
{
closed = 1;
nodes = (
"320 104 OFFCURVE",
"348 165 OFFCURVE",
"352 348 CURVE SMOOTH",
"357 503 OFFCURVE",
"338 616 OFFCURVE",
"411 616 CURVE SMOOTH",
"441 616 OFFCURVE",
"470 581 OFFCURVE",
"470 504 CURVE SMOOTH",
"470 468 OFFCURVE",
"460 426 OFFCURVE",
"447 399 CURVE",
"466 394 OFFCURVE",
"487 391 OFFCURVE",
"506 391 CURVE SMOOTH",
"587 391 OFFCURVE",
"644 463 OFFCURVE",
"644 527 CURVE SMOOTH",
"644 626 OFFCURVE",
"546 681 OFFCURVE",
"433 681 CURVE SMOOTH",
"298 681 OFFCURVE",
"139 598 OFFCURVE",
"142 410 CURVE SMOOTH",
"145 227 OFFCURVE",
"152 114 OFFCURVE",
"90 57 CURVE",
"148 36 LINE"
);
},
{
closed = 1;
nodes = (
"83 -327 OFFCURVE",
"185 -283 OFFCURVE",
"185 -186 CURVE SMOOTH",
"185 -147 OFFCURVE",
"153 -115 OFFCURVE",
"97 -115 CURVE SMOOTH",
"78 -115 OFFCURVE",
"41 -124 OFFCURVE",
"32 -131 CURVE",
"37 -141 OFFCURVE",
"43 -168 OFFCURVE",
"43 -185 CURVE SMOOTH",
"43 -246 OFFCURVE",
"21 -278 OFFCURVE",
"-24 -324 CURVE",
"-17 -325 OFFCURVE",
"6 -327 OFFCURVE",
"18 -327 CURVE SMOOTH"
);
},
{
closed = 1;
nodes = (
"568 -161 OFFCURVE",
"615 -97 OFFCURVE",
"615 -41 CURVE SMOOTH",
"615 -5 OFFCURVE",
"595 31 OFFCURVE",
"554 45 CURVE",
"523 20 OFFCURVE",
"490 12 OFFCURVE",
"455 12 CURVE SMOOTH",
"345 12 OFFCURVE",
"216 95 OFFCURVE",
"77 95 CURVE SMOOTH",
"-15 95 OFFCURVE",
"-44 46 OFFCURVE",
"-44 5 CURVE SMOOTH",
"-44 -22 OFFCURVE",
"-34 -45 OFFCURVE",
"-17 -58 CURVE",
"1 -46 OFFCURVE",
"25 -40 OFFCURVE",
"48 -40 CURVE SMOOTH",
"162 -40 OFFCURVE",
"339 -161 OFFCURVE",
"476 -161 CURVE SMOOTH"
);
}
);
width = 582;
}
);
leftKerningGroup = L;
note = Lcommaaccent;
rightKerningGroup = L;
unicode = 013B;
},
{
glyphname = M;
layers = (
{
background = {
paths = (
{
closed = 1;
nodes = (
"559 0 LINE",
"842 549 LINE",
"939 660 LINE",
"810 660 LINE",
"572 185 LINE",
"517 660 LINE",
"395 660 LINE",
"444 555 LINE",
"499 0 LINE"
);
},
{
closed = 1;
nodes = (
"242 -22 OFFCURVE",
"319 17 OFFCURVE",
"443 582 CURVE",
"386 660 LINE",
"256 137 OFFCURVE",
"229 51 OFFCURVE",
"94 51 CURVE",
"94 50 OFFCURVE",
"92 45 OFFCURVE",
"92 42 CURVE SMOOTH",
"90 6 OFFCURVE",
"122 -22 OFFCURVE",
"161 -22 CURVE SMOOTH"
);
},
{
closed = 1;
nodes = (
"179 397 OFFCURVE",
"194 400 OFFCURVE",
"207 406 CURVE",
"191 436 OFFCURVE",
"183 474 OFFCURVE",
"185 511 CURVE SMOOTH",
"189 595 OFFCURVE",
"233 645 OFFCURVE",
"310 645 CURVE SMOOTH",
"333 645 OFFCURVE",
"355 642 OFFCURVE",
"373 638 CURVE",
"378 631 LINE",
"459 613 LINE",
"510 660 LINE",
"415 668 OFFCURVE",
"382 693 OFFCURVE",
"300 693 CURVE SMOOTH",
"156 693 OFFCURVE",
"83 604 OFFCURVE",
"78 507 CURVE SMOOTH",
"74 434 OFFCURVE",
"112 397 OFFCURVE",
"165 397 CURVE SMOOTH"
);
},
{
closed = 1;
nodes = (
"875 -160 OFFCURVE",
"899 -148 OFFCURVE",
"913 -126 CURVE",
"875 -77 OFFCURVE",
"867 34 OFFCURVE",
"873 152 CURVE SMOOTH",
"883 346 OFFCURVE",
"930 578 OFFCURVE",
"946 660 CURVE",
"810 660 LINE",
"837 545 LINE",
"795 303 OFFCURVE",
"776 140 OFFCURVE",
"775 10 CURVE SMOOTH",
"774 -119 OFFCURVE",
"802 -160 OFFCURVE",
"849 -160 CURVE SMOOTH"
);
},
{
closed = 1;
nodes = (
"555 0 LINE",
"838 550 LINE",
"932 658 LINE",
"814 658 LINE",
"569 169 LINE",
"512 660 LINE",
"387 660 LINE",
"449 556 LINE",
"504 0 LINE"
);
},
{
closed = 1;
nodes = (
"240 -22 OFFCURVE",
"314 20 OFFCURVE",
"445 605 CURVE",
"390 660 LINE",
"262 142 OFFCURVE",
"233 51 OFFCURVE",
"98 49 CURVE",
"97 47 OFFCURVE",
"96 41 OFFCURVE",
"96 35 CURVE SMOOTH",
"96 6 OFFCURVE",
"123 -22 OFFCURVE",
"161 -22 CURVE SMOOTH"
);
},
{
closed = 1;
nodes = (
"177 399 OFFCURVE",
"190 401 OFFCURVE",
"202 406 CURVE",
"186 438 OFFCURVE",
"178 474 OFFCURVE",
"180 511 CURVE SMOOTH",
"184 597 OFFCURVE",
"231 647 OFFCURVE",
"310 647 CURVE SMOOTH",
"335 647 OFFCURVE",
"361 645 OFFCURVE",
"379 640 CURVE",
"384 633 LINE",
"457 616 LINE",
"503 659 LINE",
"411 667 OFFCURVE",
"378 691 OFFCURVE",
"300 691 CURVE SMOOTH",
"159 691 OFFCURVE",
"88 604 OFFCURVE",
"83 507 CURVE SMOOTH",
"79 440 OFFCURVE",
"111 399 OFFCURVE",
"165 399 CURVE SMOOTH"
);
},
{
closed = 1;
nodes = (
"873 -158 OFFCURVE",
"894 -147 OFFCURVE",
"908 -126 CURVE",
"874 -81 OFFCURVE",
"861 14 OFFCURVE",
"868 152 CURVE SMOOTH",
"878 344 OFFCURVE",
"924 573 OFFCURVE",
"941 658 CURVE",
"815 658 LINE",
"842 545 LINE",
"800 303 OFFCURVE",
"781 140 OFFCURVE",
"780 10 CURVE SMOOTH",
"779 -106 OFFCURVE",
"801 -158 OFFCURVE",
"849 -158 CURVE SMOOTH"
);
}
);
};
layerId = "1252CFB8-7EB2-4C2F-9C11-14383990C0AA";
paths = (
{
closed = 1;
nodes = (
"555 0 LINE",
"834 537 LINE",
"932 658 LINE",
"814 658 LINE",
"566 160 LINE",
"563 160 LINE",
"509 660 LINE",
"384 660 LINE",
"429 546 LINE",
"440 545 LINE",
"501 0 LINE"
);
},
{
closed = 1;
nodes = (
"237 -22 OFFCURVE",
"319 20 OFFCURVE",
"450 605 CURVE",
"389 660 LINE",
"261 142 OFFCURVE",
"227 47 OFFCURVE",
"98 45 CURVE",
"97 43 OFFCURVE",
"96 37 OFFCURVE",
"96 31 CURVE SMOOTH",
"96 2 OFFCURVE",
"123 -22 OFFCURVE",
"165 -22 CURVE SMOOTH"
);
},
{
closed = 1;
nodes = (
"177 399 OFFCURVE",
"190 401 OFFCURVE",
"202 406 CURVE",
"188 435 OFFCURVE",
"180 467 OFFCURVE",
"180 500 CURVE SMOOTH",
"180 593 OFFCURVE",
"227 643 OFFCURVE",
"309 643 CURVE SMOOTH",
"334 643 OFFCURVE",
"359 640 OFFCURVE",
"377 635 CURVE",
"382 626 LINE",
"457 616 LINE",
"506 660 LINE",
"437 666 OFFCURVE",
"378 691 OFFCURVE",
"300 691 CURVE SMOOTH",
"154 691 OFFCURVE",
"83 597 OFFCURVE",
"83 504 CURVE SMOOTH",
"83 436 OFFCURVE",
"114 399 OFFCURVE",
"165 399 CURVE SMOOTH"
);
},
{
closed = 1;
nodes = (
"873 -158 OFFCURVE",
"894 -147 OFFCURVE",
"908 -126 CURVE",
"880 -89 OFFCURVE",
"866 -18 OFFCURVE",
"866 84 CURVE SMOOTH",
"866 257 OFFCURVE",
"911 510 OFFCURVE",
"941 658 CURVE",
"815 658 LINE",
"831 537 LINE",
"837 537 LINE",
"791 295 OFFCURVE",
"781 97 OFFCURVE",
"781 0 CURVE SMOOTH",
"781 -112 OFFCURVE",
"805 -158 OFFCURVE",
"849 -158 CURVE SMOOTH"
);
}
);
width = 943;
},
{
hints = (
{
horizontal = 1;
place = "{-12, 21}";
target = up;
type = BottomGhost;
},
{
horizontal = 1;
place = "{780, -20}";
target = down;
type = TopGhost;
},
{
place = "{661.2, 220.8}";
type = Stem;
},
{
horizontal = 1;
place = "{-36, 21}";
target = up;
type = BottomGhost;
}
);
layerId = "E87290C6-23CF-4B1A-9291-A4CEFD7391A8";
paths = (
{
closed = 1;
nodes = (
"639 0 LINE",
"842 433 LINE",
"1063 660 LINE",
"852 660 LINE",
"682 315 LINE",
"679 315 LINE",
"627 660 LINE",
"419 660 LINE",
"459 444 LINE",
"459 431 LINE",
"527 0 LINE"
);
},
{
closed = 1;
nodes = (
"319 -26 OFFCURVE",
"429 103 OFFCURVE",
"474 503 CURVE",
"412 660 LINE",
"389 514 OFFCURVE",
"299 91 OFFCURVE",
"157 73 CURVE",
"151 62 OFFCURVE",
"148 51 OFFCURVE",
"148 41 CURVE SMOOTH",
"146 8 OFFCURVE",
"172 -26 OFFCURVE",
"215 -26 CURVE SMOOTH"
);
},
{
closed = 1;
nodes = (
"190 334 OFFCURVE",
"225 345 OFFCURVE",
"248 370 CURVE",
"225 418 OFFCURVE",
"223 449 OFFCURVE",
"224 489 CURVE SMOOTH",
"228 570 OFFCURVE",
"281 619 OFFCURVE",
"346 619 CURVE SMOOTH",
"362 619 OFFCURVE",
"377 616 OFFCURVE",
"395 610 CURVE",
"400 601 LINE",
"535 544 LINE",
"627 660 LINE",
"496 659 OFFCURVE",
"413 689 OFFCURVE",
"281 689 CURVE SMOOTH",
"106 689 OFFCURVE",
"28 578 OFFCURVE",
"24 482 CURVE SMOOTH",
"21 407 OFFCURVE",
"66 334 OFFCURVE",
"166 334 CURVE SMOOTH"
);
},
{
closed = 1;
nodes = (
"1013 -160 OFFCURVE",
"1079 -99 OFFCURVE",
"1077 -61 CURVE",
"1023 -37 OFFCURVE",
"1011 65 OFFCURVE",
"1016 200 CURVE SMOOTH",
"1022 333 OFFCURVE",
"1042 494 OFFCURVE",
"1061 660 CURVE",
"851 660 LINE",
"865 554 LINE",
"868 517 LINE",
"822 341 OFFCURVE",
"803 216 OFFCURVE",
"798 115 CURVE SMOOTH",
"789 -120 OFFCURVE",
"858 -160 OFFCURVE",
"944 -160 CURVE SMOOTH"
);
}
);
width = 1095;
}
);
leftKerningGroup = M;
note = M;
rightKerningGroup = M;
unicode = 004D;
},
{
glyphname = N;
layers = (
{
anchors = (
{
name = bottom;
position = "{261, 0}";
},
{
name = top;
position = "{388, 660}";
}
);
background = {
paths = (
{
closed = 1;
nodes = (
"814 627 OFFCURVE",
"853 755 OFFCURVE",
"961 755 CURVE SMOOTH",
"969 755 OFFCURVE",
"978 753 OFFCURVE",
"983 751 CURVE",
"987 759 OFFCURVE",
"989 768 OFFCURVE",
"989 775 CURVE SMOOTH",
"989 811 OFFCURVE",
"960 845 OFFCURVE",
"911 845 CURVE SMOOTH",
"804 845 OFFCURVE",
"735 748 OFFCURVE",
"610 78 CURVE",
"671 0 LINE"
);
},
{
closed = 1;
nodes = (
"252 -22 OFFCURVE",
"331 4 OFFCURVE",
"427 582 CURVE",
"365 660 LINE",
"256 137 OFFCURVE",
"233 51 OFFCURVE",
"98 51 CURVE",
"98 48 OFFCURVE",
"97 45 OFFCURVE",
"97 42 CURVE SMOOTH",
"97 7 OFFCURVE",
"128 -22 OFFCURVE",
"177 -22 CURVE SMOOTH"
);
},
{
closed = 1;
nodes = (
"172 397 OFFCURVE",
"187 400 OFFCURVE",
"200 406 CURVE",
"182 436 OFFCURVE",
"172 474 OFFCURVE",
"172 511 CURVE SMOOTH",
"172 595 OFFCURVE",
"213 645 OFFCURVE",
"290 645 CURVE SMOOTH",
"313 645 OFFCURVE",
"335 642 OFFCURVE",
"354 638 CURVE",
"359 631 LINE",
"441 613 LINE",
"490 660 LINE",
"405 668 OFFCURVE",
"360 693 OFFCURVE",
"278 693 CURVE SMOOTH",
"134 693 OFFCURVE",
"65 604 OFFCURVE",
"65 507 CURVE SMOOTH",
"65 434 OFFCURVE",
"105 397 OFFCURVE",
"158 397 CURVE SMOOTH"
);
},
{
closed = 1;
nodes = (
"642 -9 OFFCURVE",
"660 -5 OFFCURVE",
"671 0 CURVE",
"638 132 LINE",
"490 660 LINE",
"367 660 LINE",
"422 555 LINE",
"565 53 LINE SMOOTH",
"578 5 OFFCURVE",
"600 -9 OFFCURVE",
"628 -9 CURVE SMOOTH"
);
}
);
};
layerId = "1252CFB8-7EB2-4C2F-9C11-14383990C0AA";
paths = (
{
closed = 1;
nodes = (
"817 661 OFFCURVE",
"854 755 OFFCURVE",
"961 755 CURVE SMOOTH",
"967 755 OFFCURVE",
"974 754 OFFCURVE",
"979 753 CURVE",
"982 759 OFFCURVE",
"984 767 OFFCURVE",
"984 775 CURVE SMOOTH",
"984 812 OFFCURVE",
"956 845 OFFCURVE",
"911 845 CURVE SMOOTH",
"808 845 OFFCURVE",
"740 750 OFFCURVE",
"614 78 CURVE",
"666 -1 LINE"
);
},
{
closed = 1;
nodes = (
"250 -22 OFFCURVE",
"326 3 OFFCURVE",
"422 583 CURVE",
"371 660 LINE",
"257 117 OFFCURVE",
"228 51 OFFCURVE",
"103 51 CURVE",
"102 47 OFFCURVE",
"102 44 OFFCURVE",
"102 41 CURVE SMOOTH",
"102 6 OFFCURVE",
"131 -22 OFFCURVE",
"177 -22 CURVE SMOOTH"
);
},
{
closed = 1;
nodes = (
"161 399 OFFCURVE",
"174 401 OFFCURVE",
"186 406 CURVE",
"172 435 OFFCURVE",
"164 467 OFFCURVE",
"164 500 CURVE SMOOTH",
"164 593 OFFCURVE",
"211 643 OFFCURVE",
"293 643 CURVE SMOOTH",
"318 643 OFFCURVE",
"343 640 OFFCURVE",
"361 635 CURVE",
"366 626 LINE",
"441 616 LINE",
"490 660 LINE",
"421 666 OFFCURVE",
"362 691 OFFCURVE",
"284 691 CURVE SMOOTH",
"138 691 OFFCURVE",
"67 597 OFFCURVE",
"67 504 CURVE SMOOTH",
"67 436 OFFCURVE",
"98 399 OFFCURVE",
"149 399 CURVE SMOOTH"
);
},
{
closed = 1;
nodes = (
"639 -9 OFFCURVE",
"654 -6 OFFCURVE",
"666 -1 CURVE",
"633 132 LINE",
"490 660 LINE",
"371 660 LINE",
"427 555 LINE",
"570 53 LINE SMOOTH",
"582 9 OFFCURVE",
"599 -9 OFFCURVE",
"628 -9 CURVE SMOOTH"
);
}
);
width = 820;
},
{
anchors = (
{
name = bottom;
position = "{292, 0}";
},
{
name = top;
position = "{460, 660}";
}
);
layerId = "E87290C6-23CF-4B1A-9291-A4CEFD7391A8";
paths = (
{
closed = 1;
nodes = (
"902 503 OFFCURVE",
"966 702 OFFCURVE",
"1111 702 CURVE SMOOTH",
"1134 702 OFFCURVE",
"1156 696 OFFCURVE",
"1178 685 CURVE",
"1194 707 OFFCURVE",
"1202 733 OFFCURVE",
"1202 758 CURVE SMOOTH",
"1202 816 OFFCURVE",
"1161 871 OFFCURVE",
"1092 871 CURVE SMOOTH",
"1001 871 OFFCURVE",
"854 854 OFFCURVE",
"760 193 CURVE",
"823 0 LINE"
);
},
{
closed = 1;
nodes = (
"347 -26 OFFCURVE",
"445 106 OFFCURVE",
"471 507 CURVE",
"394 660 LINE",
"377 519 OFFCURVE",
"318 91 OFFCURVE",
"183 71 CURVE",
"178 61 OFFCURVE",
"175 50 OFFCURVE",
"175 39 CURVE SMOOTH",
"175 7 OFFCURVE",
"202 -26 OFFCURVE",
"244 -26 CURVE SMOOTH"
);
},
{
closed = 1;
nodes = (
"190 334 OFFCURVE",
"224 345 OFFCURVE",
"246 370 CURVE",
"222 418 OFFCURVE",
"218 449 OFFCURVE",
"218 489 CURVE SMOOTH",
"218 570 OFFCURVE",
"269 619 OFFCURVE",
"334 619 CURVE SMOOTH",
"349 619 OFFCURVE",
"366 616 OFFCURVE",
"384 610 CURVE",
"389 601 LINE",
"526 544 LINE",
"630 660 LINE",
"499 659 OFFCURVE",
"398 689 OFFCURVE",
"266 689 CURVE SMOOTH",
"91 689 OFFCURVE",
"18 578 OFFCURVE",
"18 482 CURVE SMOOTH",
"18 407 OFFCURVE",
"66 334 OFFCURVE",
"166 334 CURVE SMOOTH"
);
},
{
closed = 1;
nodes = (
"755 -17 OFFCURVE",
"796 -10 OFFCURVE",
"823 0 CURVE",
"770 211 LINE",
"630 660 LINE",
"373 660 LINE",
"457 431 LINE",
"536 154 LINE SMOOTH",
"563 63 OFFCURVE",
"610 -17 OFFCURVE",
"722 -17 CURVE SMOOTH"
);
}
);
width = 928;
}
);
leftKerningGroup = M;
note = N;
rightKerningGroup = H;
unicode = 004E;
},
{
glyphname = NJ;
layers = (
{
components = (
{
alignment = -1;
name = J.alt;
transform = "{1, 0, 0, 1, 820, 0}";
}
);
layerId = "1252CFB8-7EB2-4C2F-9C11-14383990C0AA";
paths = (
{
closed = 1;
nodes = (
"817 661 OFFCURVE",
"854 755 OFFCURVE",
"961 755 CURVE SMOOTH",
"967 755 OFFCURVE",
"974 754 OFFCURVE",
"979 753 CURVE",
"982 759 OFFCURVE",
"984 767 OFFCURVE",
"984 775 CURVE SMOOTH",
"984 812 OFFCURVE",
"956 845 OFFCURVE",
"911 845 CURVE SMOOTH",
"808 845 OFFCURVE",
"740 750 OFFCURVE",
"614 78 CURVE",
"666 -1 LINE"
);
},
{
closed = 1;
nodes = (
"250 -22 OFFCURVE",
"326 3 OFFCURVE",
"422 583 CURVE",
"371 660 LINE",
"257 117 OFFCURVE",
"228 51 OFFCURVE",
"103 51 CURVE",
"102 47 OFFCURVE",
"102 44 OFFCURVE",
"102 41 CURVE SMOOTH",
"102 6 OFFCURVE",
"131 -22 OFFCURVE",
"177 -22 CURVE SMOOTH"
);
},
{
closed = 1;
nodes = (
"161 399 OFFCURVE",
"174 401 OFFCURVE",
"186 406 CURVE",
"172 435 OFFCURVE",
"164 467 OFFCURVE",
"164 500 CURVE SMOOTH",
"164 593 OFFCURVE",
"211 643 OFFCURVE",
"293 643 CURVE SMOOTH",
"318 643 OFFCURVE",
"343 640 OFFCURVE",
"361 635 CURVE",
"366 626 LINE",
"441 616 LINE",
"490 660 LINE",
"421 666 OFFCURVE",
"362 691 OFFCURVE",
"284 691 CURVE SMOOTH",
"138 691 OFFCURVE",
"67 597 OFFCURVE",
"67 504 CURVE SMOOTH",
"67 436 OFFCURVE",
"98 399 OFFCURVE",
"149 399 CURVE SMOOTH"
);
},
{
closed = 1;
nodes = (
"639 -9 OFFCURVE",
"654 -6 OFFCURVE",
"666 -1 CURVE",
"633 132 LINE",
"490 660 LINE",
"371 660 LINE",
"427 555 LINE",
"570 53 LINE SMOOTH",
"582 9 OFFCURVE",
"599 -9 OFFCURVE",
"628 -9 CURVE SMOOTH"
);
}
);
width = 1064;
},
{
components = (
{
alignment = -1;
name = J.alt;
transform = "{1, 0, 0, 1, 935, 0}";
}
);
hints = (
{
horizontal = 1;
place = "{0, 21}";
target = up;
type = BottomGhost;
},
{
horizontal = 1;
place = "{792, -20}";
target = down;
type = TopGhost;
},
{
place = "{0, 1230}";
type = Stem;
},
{
horizontal = 1;
place = "{0, 21}";
target = up;
type = BottomGhost;
},
{
horizontal = 1;
place = "{792, -20}";
target = down;
type = TopGhost;
},
{
place = "{0, 820.8}";
type = Stem;
},
{
horizontal = 1;
place = "{792, -20}";
target = down;
type = TopGhost;
},
{
place = "{948, 549.6}";
type = Stem;
}
);
layerId = "E87290C6-23CF-4B1A-9291-A4CEFD7391A8";
paths = (
{
closed = 1;
nodes = (
"902 501 OFFCURVE",
"966 738 OFFCURVE",
"1111 738 CURVE SMOOTH",
"1134 738 OFFCURVE",
"1156 732 OFFCURVE",
"1178 721 CURVE",
"1194 743 OFFCURVE",
"1202 769 OFFCURVE",
"1202 794 CURVE SMOOTH",
"1202 852 OFFCURVE",
"1161 907 OFFCURVE",
"1092 907 CURVE SMOOTH",
"1001 907 OFFCURVE",
"854 853 OFFCURVE",
"760 194 CURVE",
"823 0 LINE"
);
},
{
closed = 1;
nodes = (
"352 -26 OFFCURVE",
"450 106 OFFCURVE",
"476 507 CURVE",
"399 660 LINE",
"382 519 OFFCURVE",
"323 91 OFFCURVE",
"188 71 CURVE",
"182 61 OFFCURVE",
"180 50 OFFCURVE",
"180 39 CURVE SMOOTH",
"180 7 OFFCURVE",
"207 -26 OFFCURVE",
"249 -26 CURVE SMOOTH"
);
},
{
closed = 1;
nodes = (
"190 334 OFFCURVE",
"224 345 OFFCURVE",
"246 370 CURVE",
"222 418 OFFCURVE",
"218 449 OFFCURVE",
"218 489 CURVE SMOOTH",
"218 570 OFFCURVE",
"269 619 OFFCURVE",
"334 619 CURVE SMOOTH",
"349 619 OFFCURVE",
"366 616 OFFCURVE",
"384 610 CURVE",
"389 601 LINE",
"526 544 LINE",
"630 660 LINE",
"499 659 OFFCURVE",
"398 689 OFFCURVE",
"266 689 CURVE SMOOTH",
"91 689 OFFCURVE",
"18 578 OFFCURVE",
"18 482 CURVE SMOOTH",
"18 407 OFFCURVE",
"66 334 OFFCURVE",
"166 334 CURVE SMOOTH"
);
},
{
closed = 1;
nodes = (
"755 -17 OFFCURVE",
"796 -10 OFFCURVE",
"823 0 CURVE",
"770 211 LINE",
"630 660 LINE",
"418 660 LINE",
"462 415 LINE",
"536 154 LINE SMOOTH",
"563 63 OFFCURVE",
"610 -17 OFFCURVE",
"722 -17 CURVE SMOOTH"
);
}
);
width = 1291;
}
);
leftKerningGroup = H;
note = uni01CA;
rightKerningGroup = J;
unicode = 01CA;
},
{
glyphname = Eng;
layers = (
{
anchors = (
{
name = bottom;
position = "{261, 0}";
},
{
name = top;
position = "{388, 660}";
}
);
background = {
paths = (
{
closed = 1;
nodes = (
"225 555 LINE",
"381 0 LINE",
"402 0 LINE",
"391 -39 OFFCURVE",
"367 -103 OFFCURVE",
"320 -120 CURVE",
"330 -141 OFFCURVE",
"355 -151 OFFCURVE",
"380 -151 CURVE SMOOTH",
"451 -151 OFFCURVE",
"482 -44 OFFCURVE",
"502 65 CURVE SMOOTH",
"610 660 LINE",
"518 660 LINE",
"430 130 LINE",
"290 660 LINE",
"161 660 LINE",
"38 0 LINE",
"132 0 LINE"
);
}
);
};
layerId = "1252CFB8-7EB2-4C2F-9C11-14383990C0AA";
paths = (
{
closed = 1;
nodes = (
"814 627 OFFCURVE",
"853 755 OFFCURVE",
"961 755 CURVE SMOOTH",
"969 755 OFFCURVE",
"978 753 OFFCURVE",
"983 751 CURVE",
"987 759 OFFCURVE",
"989 768 OFFCURVE",
"989 775 CURVE SMOOTH",
"989 811 OFFCURVE",
"960 845 OFFCURVE",
"911 845 CURVE SMOOTH",
"804 845 OFFCURVE",
"735 748 OFFCURVE",
"610 78 CURVE",
"671 0 LINE"
);
},
{
closed = 1;
nodes = (
"633 -153 OFFCURVE",
"658 -69 OFFCURVE",
"682 51 CURVE",
"593 52 LINE",
"581 2 OFFCURVE",
"562 -96 OFFCURVE",
"498 -117 CURVE",
"511 -141 OFFCURVE",
"538 -153 OFFCURVE",
"561 -153 CURVE SMOOTH"
);
},
{
closed = 1;
nodes = (
"252 -22 OFFCURVE",
"331 4 OFFCURVE",
"427 582 CURVE",
"365 660 LINE",
"256 137 OFFCURVE",
"233 51 OFFCURVE",
"98 51 CURVE",
"98 48 OFFCURVE",
"97 45 OFFCURVE",
"97 42 CURVE SMOOTH",
"97 7 OFFCURVE",
"128 -22 OFFCURVE",
"177 -22 CURVE SMOOTH"
);
},
{
closed = 1;
nodes = (
"172 397 OFFCURVE",
"187 400 OFFCURVE",
"200 406 CURVE",
"182 436 OFFCURVE",
"172 474 OFFCURVE",
"172 511 CURVE SMOOTH",
"172 595 OFFCURVE",
"213 645 OFFCURVE",
"290 645 CURVE SMOOTH",
"313 645 OFFCURVE",
"335 642 OFFCURVE",
"354 638 CURVE",
"359 631 LINE",
"441 613 LINE",
"490 660 LINE",
"405 668 OFFCURVE",
"360 693 OFFCURVE",
"278 693 CURVE SMOOTH",
"134 693 OFFCURVE",
"65 604 OFFCURVE",
"65 507 CURVE SMOOTH",
"65 434 OFFCURVE",
"105 397 OFFCURVE",
"158 397 CURVE SMOOTH"
);
},
{
closed = 1;
nodes = (
"671 0 LINE",
"638 132 LINE",
"490 660 LINE",
"367 660 LINE",
"422 555 LINE",
"584 -25 LINE"
);
}
);
width = 840;
},
{
anchors = (
{
name = bottom;
position = "{616, 0}";
},
{
name = top;
position = "{689, 684}";
}
);
hints = (
{
horizontal = 1;
place = "{0, 21}";
target = up;
type = BottomGhost;
},
{
horizontal = 1;
place = "{792, -20}";
target = down;
type = TopGhost;
},
{
place = "{0, 820.8}";
type = Stem;
},
{
horizontal = 1;
place = "{0, 21}";
target = up;
type = BottomGhost;
},
{
horizontal = 1;
place = "{792, -20}";
target = down;
type = TopGhost;
},
{
place = "{0, 820.8}";
type = Stem;
}
);
layerId = "E87290C6-23CF-4B1A-9291-A4CEFD7391A8";
paths = (
{
closed = 1;
nodes = (
"903 509 OFFCURVE",
"966 702 OFFCURVE",
"1111 702 CURVE SMOOTH",
"1133 702 OFFCURVE",
"1156 697 OFFCURVE",
"1177 685 CURVE",
"1193 707 OFFCURVE",
"1201 733 OFFCURVE",
"1201 758 CURVE SMOOTH",
"1201 816 OFFCURVE",
"1160 871 OFFCURVE",
"1092 871 CURVE SMOOTH",
"1002 871 OFFCURVE",
"855 855 OFFCURVE",
"761 193 CURVE",
"822 0 LINE"
);
},
{
closed = 1;
nodes = (
"761 -197 OFFCURVE",
"802 -127 OFFCURVE",
"824 10 CURVE",
"623 28 LINE",
"589 -102 OFFCURVE",
"558 -113 OFFCURVE",
"500 -137 CURVE",
"519 -171 OFFCURVE",
"562 -197 OFFCURVE",
"623 -197 CURVE SMOOTH"
);
},
{
closed = 1;
nodes = (
"347 -26 OFFCURVE",
"444 106 OFFCURVE",
"470 508 CURVE",
"395 660 LINE",
"377 515 OFFCURVE",
"317 91 OFFCURVE",
"184 71 CURVE",
"178 61 OFFCURVE",
"176 50 OFFCURVE",
"176 38 CURVE SMOOTH",
"176 7 OFFCURVE",
"202 -26 OFFCURVE",
"244 -26 CURVE SMOOTH"
);
},
{
closed = 1;
nodes = (
"188 335 OFFCURVE",
"222 345 OFFCURVE",
"243 370 CURVE",
"220 418 OFFCURVE",
"216 448 OFFCURVE",
"216 487 CURVE SMOOTH",
"216 570 OFFCURVE",
"268 619 OFFCURVE",
"334 619 CURVE SMOOTH",
"350 619 OFFCURVE",
"367 616 OFFCURVE",
"385 609 CURVE",
"390 600 LINE",
"526 545 LINE",
"630 660 LINE",
"502 658 OFFCURVE",
"398 688 OFFCURVE",
"267 688 CURVE SMOOTH",
"92 688 OFFCURVE",
"18 576 OFFCURVE",
"18 482 CURVE SMOOTH",
"18 408 OFFCURVE",
"64 335 OFFCURVE",
"164 335 CURVE SMOOTH"
);
},
{
closed = 1;
nodes = (
"822 0 LINE",
"769 211 LINE",
"630 660 LINE",
"374 660 LINE",
"458 441 LINE",
"631 -146 LINE"
);
}
);
width = 924;
}
);
leftKerningGroup = H;
note = Eng;
rightKerningGroup = N;
unicode = 014A;
},
{
glyphname = Nhookleft;
layers = (
{
anchors = (
{
name = bottom;
position = "{261, 0}";
},
{
name = top;
position = "{388, 660}";
}
);
background = {
paths = (
{
closed = 1;
nodes = (
"172 397 OFFCURVE",
"187 400 OFFCURVE",
"200 406 CURVE",
"182 436 OFFCURVE",
"172 474 OFFCURVE",
"172 511 CURVE SMOOTH",
"172 595 OFFCURVE",
"213 645 OFFCURVE",
"290 645 CURVE SMOOTH",
"365 645 OFFCURVE",
"420 613 OFFCURVE",
"441 613 CURVE",
"455 621 OFFCURVE",
"488 651 OFFCURVE",
"490 660 CURVE",
"405 668 OFFCURVE",
"360 693 OFFCURVE",
"278 693 CURVE SMOOTH",
"134 693 OFFCURVE",
"65 604 OFFCURVE",
"65 507 CURVE SMOOTH",
"65 434 OFFCURVE",
"105 397 OFFCURVE",
"158 397 CURVE SMOOTH"
);
},
{
closed = 1;
nodes = (
"638 132 LINE",
"490 660 LINE",
"367 660 LINE",
"422 555 LINE",
"580 0 LINE",
"671 0 LINE"
);
},
{
closed = 1;
nodes = (
"671 0 LINE",
"814 627 OFFCURVE",
"853 755 OFFCURVE",
"965 755 CURVE SMOOTH",
"971 755 OFFCURVE",
"977 755 OFFCURVE",
"983 754 CURVE",
"985 761 OFFCURVE",
"986 768 OFFCURVE",
"986 775 CURVE SMOOTH",
"986 811 OFFCURVE",
"960 845 OFFCURVE",
"911 845 CURVE SMOOTH",
"804 845 OFFCURVE",
"735 748 OFFCURVE",
"610 78 CURVE"
);
},
{
closed = 1;
nodes = (
"444 660 LINE",
"361 660 LINE",
"220 27 LINE SMOOTH",
"203 -41 OFFCURVE",
"156 -87 OFFCURVE",
"124 -96 CURVE",
"138 -141 OFFCURVE",
"175 -153 OFFCURVE",
"198 -153 CURVE SMOOTH",
"258 -153 OFFCURVE",
"281 -105 OFFCURVE",
"315 52 CURVE SMOOTH"
);
}
);
};
layerId = "1252CFB8-7EB2-4C2F-9C11-14383990C0AA";
paths = (
{
closed = 1;
nodes = (
"814 627 OFFCURVE",
"853 755 OFFCURVE",
"961 755 CURVE SMOOTH",
"969 755 OFFCURVE",
"978 753 OFFCURVE",
"983 751 CURVE",
"987 759 OFFCURVE",
"989 768 OFFCURVE",
"989 775 CURVE SMOOTH",
"989 811 OFFCURVE",
"960 845 OFFCURVE",
"911 845 CURVE SMOOTH",
"804 845 OFFCURVE",
"735 748 OFFCURVE",
"610 78 CURVE",
"671 0 LINE"
);
},
{
closed = 1;
nodes = (
"258 -153 OFFCURVE",
"282 -105 OFFCURVE",
"299 -25 CURVE SMOOTH",
"429 586 LINE",
"361 660 LINE",
"220 27 LINE SMOOTH",
"201 -57 OFFCURVE",
"172 -90 OFFCURVE",
"134 -96 CURVE",
"138 -141 OFFCURVE",
"175 -153 OFFCURVE",
"198 -153 CURVE SMOOTH"
);
},
{
closed = 1;
nodes = (
"172 397 OFFCURVE",
"187 400 OFFCURVE",
"200 406 CURVE",
"182 436 OFFCURVE",
"172 474 OFFCURVE",
"172 511 CURVE SMOOTH",
"172 595 OFFCURVE",
"213 645 OFFCURVE",
"290 645 CURVE SMOOTH",
"313 645 OFFCURVE",
"331 643 OFFCURVE",
"350 638 CURVE",
"355 631 LINE",
"441 613 LINE",
"490 660 LINE",
"405 668 OFFCURVE",
"360 693 OFFCURVE",
"278 693 CURVE SMOOTH",
"134 693 OFFCURVE",
"65 604 OFFCURVE",
"65 507 CURVE SMOOTH",
"65 434 OFFCURVE",
"105 397 OFFCURVE",
"158 397 CURVE SMOOTH"
);
},
{
closed = 1;
nodes = (
"642 -9 OFFCURVE",
"660 -5 OFFCURVE",
"671 0 CURVE",
"638 132 LINE",
"490 660 LINE",
"367 660 LINE",
"422 555 LINE",
"565 53 LINE SMOOTH",
"578 5 OFFCURVE",
"600 -9 OFFCURVE",
"628 -9 CURVE SMOOTH"
);
}
);
width = 837;
},
{
anchors = (
{
name = bottom;
position = "{333, 0}";
},
{
name = top;
position = "{460, 660}";
}
);
hints = (
{
horizontal = 1;
place = "{0, 21}";
target = up;
type = BottomGhost;
},
{
horizontal = 1;
place = "{792, -20}";
target = down;
type = TopGhost;
},
{
place = "{0, 820.8}";
type = Stem;
},
{
horizontal = 1;
place = "{792, -20}";
target = down;
type = TopGhost;
},
{
place = "{-144, 549.6}";
type = Stem;
}
);
layerId = "E87290C6-23CF-4B1A-9291-A4CEFD7391A8";
paths = (
{
closed = 1;
nodes = (
"903 509 OFFCURVE",
"966 702 OFFCURVE",
"1111 702 CURVE SMOOTH",
"1133 702 OFFCURVE",
"1156 697 OFFCURVE",
"1177 685 CURVE",
"1193 707 OFFCURVE",
"1201 733 OFFCURVE",
"1201 758 CURVE SMOOTH",
"1201 816 OFFCURVE",
"1160 871 OFFCURVE",
"1092 871 CURVE SMOOTH",
"1002 871 OFFCURVE",
"855 855 OFFCURVE",
"761 193 CURVE",
"822 0 LINE"
);
},
{
closed = 1;
nodes = (
"367 -197 OFFCURVE",
"401 -68 OFFCURVE",
"417 37 CURVE SMOOTH",
"489 521 LINE",
"401 660 LINE",
"302 73 LINE SMOOTH",
"278 -64 OFFCURVE",
"240 -126 OFFCURVE",
"158 -146 CURVE",
"169 -165 OFFCURVE",
"187 -197 OFFCURVE",
"248 -197 CURVE SMOOTH"
);
},
{
closed = 1;
nodes = (
"188 335 OFFCURVE",
"222 345 OFFCURVE",
"243 370 CURVE",
"220 418 OFFCURVE",
"216 448 OFFCURVE",
"216 487 CURVE SMOOTH",
"216 570 OFFCURVE",
"268 619 OFFCURVE",
"334 619 CURVE SMOOTH",
"350 619 OFFCURVE",
"368 615 OFFCURVE",
"386 609 CURVE",
"391 600 LINE",
"526 545 LINE",
"630 660 LINE",
"506 658 OFFCURVE",
"398 688 OFFCURVE",
"267 688 CURVE SMOOTH",
"92 688 OFFCURVE",
"18 576 OFFCURVE",
"18 482 CURVE SMOOTH",
"18 408 OFFCURVE",
"64 335 OFFCURVE",
"164 335 CURVE SMOOTH"
);
},
{
closed = 1;
nodes = (
"755 -17 OFFCURVE",
"794 -10 OFFCURVE",
"822 0 CURVE",
"769 211 LINE",
"630 660 LINE",
"374 660 LINE",
"458 431 LINE",
"537 154 LINE SMOOTH",
"564 64 OFFCURVE",
"610 -17 OFFCURVE",
"722 -17 CURVE SMOOTH"
);
}
);
width = 925;
}
);
leftKerningGroup = H;
rightKerningGroup = N;
unicode = 019D;
},
{
glyphname = Nj;
layers = (
{
background = {
paths = (
{
closed = 1;
nodes = (
"789 518 OFFCURVE",
"875 644 OFFCURVE",
"987 644 CURVE SMOOTH",
"1016 644 OFFCURVE",
"1040 632 OFFCURVE",
"1052 616 CURVE",
"1073 629 OFFCURVE",
"1084 657 OFFCURVE",
"1084 685 CURVE SMOOTH",
"1084 724 OFFCURVE",
"1055 759 OFFCURVE",
"987 759 CURVE SMOOTH",
"875 759 OFFCURVE",
"712 623 OFFCURVE",
"610 78 CURVE",
"671 0 LINE"
);
},
{
closed = 1;
nodes = (
"252 -22 OFFCURVE",
"331 4 OFFCURVE",
"427 582 CURVE",
"365 660 LINE",
"256 137 OFFCURVE",
"233 51 OFFCURVE",
"98 51 CURVE",
"98 48 OFFCURVE",
"97 45 OFFCURVE",
"97 42 CURVE SMOOTH",
"97 7 OFFCURVE",
"128 -22 OFFCURVE",
"177 -22 CURVE SMOOTH"
);
},
{
closed = 1;
nodes = (
"172 397 OFFCURVE",
"187 400 OFFCURVE",
"200 406 CURVE",
"182 436 OFFCURVE",
"172 474 OFFCURVE",
"172 511 CURVE SMOOTH",
"172 595 OFFCURVE",
"213 645 OFFCURVE",
"290 645 CURVE SMOOTH",
"313 645 OFFCURVE",
"335 642 OFFCURVE",
"354 638 CURVE",
"359 631 LINE",
"441 613 LINE",
"490 660 LINE",
"405 668 OFFCURVE",
"360 693 OFFCURVE",
"278 693 CURVE SMOOTH",
"134 693 OFFCURVE",
"65 604 OFFCURVE",
"65 507 CURVE SMOOTH",
"65 434 OFFCURVE",
"105 397 OFFCURVE",
"158 397 CURVE SMOOTH"
);
},
{
closed = 1;
nodes = (
"642 -9 OFFCURVE",
"660 -5 OFFCURVE",
"671 0 CURVE",
"638 132 LINE",
"490 660 LINE",
"367 660 LINE",
"422 555 LINE",
"565 53 LINE SMOOTH",
"578 5 OFFCURVE",
"600 -9 OFFCURVE",
"628 -9 CURVE SMOOTH"
);
},
{
closed = 1;
nodes = (
"1001 718 OFFCURVE",
"971 699 OFFCURVE",
"971 658 CURVE SMOOTH",
"971 619 OFFCURVE",
"999 600 OFFCURVE",
"1036 600 CURVE SMOOTH",
"1075 600 OFFCURVE",
"1106 619 OFFCURVE",
"1106 660 CURVE SMOOTH",
"1106 699 OFFCURVE",
"1077 718 OFFCURVE",
"1039 718 CURVE SMOOTH"
);
}
);
};
components = (
{
alignment = -1;
name = jdotless;
transform = "{1, 0, 0, 1, 820, 0}";
}
);
layerId = "1252CFB8-7EB2-4C2F-9C11-14383990C0AA";
paths = (
{
closed = 1;
nodes = (
"801 574 OFFCURVE",
"899 644 OFFCURVE",
"984 644 CURVE SMOOTH",
"1024 644 OFFCURVE",
"1047 630 OFFCURVE",
"1063 610 CURVE",
"1082 621 OFFCURVE",
"1092 644 OFFCURVE",
"1092 669 CURVE SMOOTH",
"1092 705 OFFCURVE",
"1063 747 OFFCURVE",
"993 747 CURVE SMOOTH",
"882 747 OFFCURVE",
"722 641 OFFCURVE",
"613 62 CURVE",
"666 -1 LINE"
);
},
{
closed = 1;
nodes = (
"250 -22 OFFCURVE",
"326 3 OFFCURVE",
"422 583 CURVE",
"371 660 LINE",
"257 117 OFFCURVE",
"228 51 OFFCURVE",
"103 51 CURVE",
"102 47 OFFCURVE",
"102 44 OFFCURVE",
"102 41 CURVE SMOOTH",
"102 6 OFFCURVE",
"131 -22 OFFCURVE",
"177 -22 CURVE SMOOTH"
);
},
{
closed = 1;
nodes = (
"161 399 OFFCURVE",
"174 401 OFFCURVE",
"186 406 CURVE",
"172 435 OFFCURVE",
"164 467 OFFCURVE",
"164 500 CURVE SMOOTH",
"164 593 OFFCURVE",
"211 643 OFFCURVE",
"293 643 CURVE SMOOTH",
"318 643 OFFCURVE",
"343 640 OFFCURVE",
"361 635 CURVE",
"366 626 LINE",
"441 616 LINE",
"490 660 LINE",
"421 666 OFFCURVE",
"362 691 OFFCURVE",
"284 691 CURVE SMOOTH",
"138 691 OFFCURVE",
"67 597 OFFCURVE",
"67 504 CURVE SMOOTH",
"67 436 OFFCURVE",
"98 399 OFFCURVE",
"149 399 CURVE SMOOTH"
);
},
{
closed = 1;
nodes = (
"639 -9 OFFCURVE",
"654 -6 OFFCURVE",
"666 -1 CURVE",
"633 132 LINE",
"490 660 LINE",
"371 660 LINE",
"427 555 LINE",
"570 53 LINE SMOOTH",
"582 9 OFFCURVE",
"599 -9 OFFCURVE",
"628 -9 CURVE SMOOTH"
);
}
);
width = 1082;
},
{
components = (
{
alignment = -1;
name = jdotless;
transform = "{1, 0, 0, 1, 928, 0}";
}
);
hints = (
{
horizontal = 1;
place = "{-240, 88.8}";
type = Stem;
},
{
horizontal = 1;
place = "{0, 21}";
target = up;
type = BottomGhost;
},
{
horizontal = 1;
place = "{636, -20}";
target = down;
type = TopGhost;
},
{
horizontal = 1;
place = "{708, 192}";
type = Stem;
},
{
place = "{960, 258}";
type = Stem;
},
{
horizontal = 1;
place = "{792, -20}";
target = down;
type = TopGhost;
},
{
horizontal = 1;
place = "{0, 21}";
target = up;
type = BottomGhost;
},
{
horizontal = 1;
place = "{792, -20}";
target = down;
type = TopGhost;
},
{
place = "{0, 820.8}";
type = Stem;
},
{
horizontal = 1;
place = "{-240, 88.8}";
type = Stem;
},
{
horizontal = 1;
place = "{636, -20}";
target = down;
type = TopGhost;
},
{
horizontal = 1;
place = "{708, 192}";
type = Stem;
},
{
place = "{1227.6, 258}";
type = Stem;
}
);
layerId = "E87290C6-23CF-4B1A-9291-A4CEFD7391A8";
paths = (
{
closed = 1;
nodes = (
"903 522 OFFCURVE",
"988 651 OFFCURVE",
"1150 651 CURVE SMOOTH",
"1166 651 OFFCURVE",
"1197 648 OFFCURVE",
"1217 640 CURVE",
"1237 667 OFFCURVE",
"1247 697 OFFCURVE",
"1247 724 CURVE SMOOTH",
"1247 787 OFFCURVE",
"1206 839 OFFCURVE",
"1114 839 CURVE SMOOTH",
"997 839 OFFCURVE",
"849 748 OFFCURVE",
"755 174 CURVE",
"823 0 LINE"
);
},
{
closed = 1;
nodes = (
"352 -26 OFFCURVE",
"450 106 OFFCURVE",
"476 507 CURVE",
"399 660 LINE",
"382 519 OFFCURVE",
"323 91 OFFCURVE",
"188 71 CURVE",
"182 61 OFFCURVE",
"180 50 OFFCURVE",
"180 39 CURVE SMOOTH",
"180 7 OFFCURVE",
"207 -26 OFFCURVE",
"249 -26 CURVE SMOOTH"
);
},
{
closed = 1;
nodes = (
"190 334 OFFCURVE",
"224 345 OFFCURVE",
"246 370 CURVE",
"222 418 OFFCURVE",
"218 449 OFFCURVE",
"218 489 CURVE SMOOTH",
"218 570 OFFCURVE",
"269 619 OFFCURVE",
"334 619 CURVE SMOOTH",
"349 619 OFFCURVE",
"366 616 OFFCURVE",
"384 610 CURVE",
"389 601 LINE",
"526 544 LINE",
"630 660 LINE",
"499 659 OFFCURVE",
"398 689 OFFCURVE",
"266 689 CURVE SMOOTH",
"91 689 OFFCURVE",
"18 578 OFFCURVE",
"18 482 CURVE SMOOTH",
"18 407 OFFCURVE",
"66 334 OFFCURVE",
"166 334 CURVE SMOOTH"
);
},
{
closed = 1;
nodes = (
"755 -17 OFFCURVE",
"796 -10 OFFCURVE",
"823 0 CURVE",
"770 211 LINE",
"630 660 LINE",
"397 660 LINE",
"462 416 LINE",
"536 154 LINE SMOOTH",
"563 63 OFFCURVE",
"610 -17 OFFCURVE",
"722 -17 CURVE SMOOTH"
);
}
);
width = 1239;
}
);
leftKerningGroup = M;
note = uni01CB;
rightKerningGroup = j;
unicode = 01CB;
},
{
glyphname = O;
layers = (
{
anchors = (
{
name = bottom;
position = "{223, 0}";
},
{
name = center;
position = "{318, 363}";
},
{
name = ogonek;
position = "{303, 0}";
},
{
name = top;
position = "{375, 707}";
},
{
name = topright;
position = "{436, 644}";
}
);
background = {
anchors = (
{
name = bottom;
position = "{207, 0}";
},
{
name = center;
position = "{305, 363}";
},
{
name = ogonek;
position = "{307, 0}";
},
{
name = top;
position = "{460, 707}";
},
{
name = topright;
position = "{516, 644}";
}
);
paths = (
{
closed = 1;
nodes = (
"455 -25 OFFCURVE",
"579 239 OFFCURVE",
"579 456 CURVE SMOOTH",
"579 600 OFFCURVE",
"523 660 OFFCURVE",
"439 660 CURVE SMOOTH",
"345 660 OFFCURVE",
"252 567 OFFCURVE",
"252 458 CURVE SMOOTH",
"252 383 OFFCURVE",
"299 360 OFFCURVE",
"331 360 CURVE SMOOTH",
"352 360 OFFCURVE",
"368 367 OFFCURVE",
"381 378 CURVE",
"364 398 OFFCURVE",
"348 420 OFFCURVE",
"348 477 CURVE SMOOTH",
"348 560 OFFCURVE",
"380 592 OFFCURVE",
"417 592 CURVE SMOOTH",
"447 592 OFFCURVE",
"471 565 OFFCURVE",
"471 470 CURVE SMOOTH",
"471 295 OFFCURVE",
"397 46 OFFCURVE",
"255 50 CURVE SMOOTH",
"183 52 OFFCURVE",
"145 109 OFFCURVE",
"147 227 CURVE SMOOTH",
"151 439 OFFCURVE",
"204 668 OFFCURVE",
"393 691 CURVE",
"393 695 LINE",
"382 698 OFFCURVE",
"371 700 OFFCURVE",
"353 700 CURVE SMOOTH",
"154 700 OFFCURVE",
"41 436 OFFCURVE",
"41 210 CURVE SMOOTH",
"41 57 OFFCURVE",
"95 -20 OFFCURVE",
"230 -22 CURVE SMOOTH"
);
}
);
};
layerId = "1252CFB8-7EB2-4C2F-9C11-14383990C0AA";
paths = (
{
closed = 1;
nodes = (
"448 -22 OFFCURVE",
"570 239 OFFCURVE",
"570 456 CURVE SMOOTH",
"570 589 OFFCURVE",
"523 660 OFFCURVE",
"436 660 CURVE SMOOTH",
"342 660 OFFCURVE",
"255 563 OFFCURVE",
"255 458 CURVE SMOOTH",
"255 399 OFFCURVE",
"285 360 OFFCURVE",
"328 360 CURVE SMOOTH",
"346 360 OFFCURVE",
"359 365 OFFCURVE",
"374 378 CURVE",
"354 400 OFFCURVE",
"339 422 OFFCURVE",
"339 477 CURVE SMOOTH",
"339 551 OFFCURVE",
"366 592 OFFCURVE",
"414 592 CURVE SMOOTH",
"456 592 OFFCURVE",
"474 553 OFFCURVE",
"474 470 CURVE SMOOTH",
"474 297 OFFCURVE",
"401 50 OFFCURVE",
"255 50 CURVE SMOOTH",
"177 50 OFFCURVE",
"138 106 OFFCURVE",
"138 218 CURVE SMOOTH",
"138 383 OFFCURVE",
"174 661 OFFCURVE",
"384 690 CURVE",
"384 696 LINE",
"374 699 OFFCURVE",
"365 700 OFFCURVE",
"350 700 CURVE SMOOTH",
"157 700 OFFCURVE",
"44 437 OFFCURVE",
"44 210 CURVE SMOOTH",
"44 52 OFFCURVE",
"103 -22 OFFCURVE",
"230 -22 CURVE SMOOTH"
);
}
);
width = 583;
},
{
anchors = (
{
name = bottom;
position = "{289, 0}";
},
{
name = center;
position = "{366, 363}";
},
{
name = ogonek;
position = "{409, 0}";
},
{
name = top;
position = "{477, 707}";
},
{
name = topright;
position = "{533, 644}";
}
);
hints = (
{
horizontal = 1;
place = "{-16.8, 92.4}";
type = Stem;
},
{
horizontal = 1;
place = "{739.2, 91.2}";
type = Stem;
},
{
place = "{33.6, 267.6}";
type = Stem;
},
{
place = "{547.2, 267.6}";
type = Stem;
}
);
layerId = "E87290C6-23CF-4B1A-9291-A4CEFD7391A8";
paths = (
{
closed = 1;
nodes = (
"612 -22 OFFCURVE",
"756 235 OFFCURVE",
"751 427 CURVE SMOOTH",
"748 558 OFFCURVE",
"681 661 OFFCURVE",
"539 661 CURVE SMOOTH",
"367 661 OFFCURVE",
"302 510 OFFCURVE",
"303 404 CURVE SMOOTH",
"304 317 OFFCURVE",
"351 287 OFFCURVE",
"407 287 CURVE SMOOTH",
"444 287 OFFCURVE",
"484 306 OFFCURVE",
"508 342 CURVE",
"476 351 OFFCURVE",
"463 400 OFFCURVE",
"461 448 CURVE SMOOTH",
"460 519 OFFCURVE",
"480 605 OFFCURVE",
"520 605 CURVE SMOOTH",
"547 605 OFFCURVE",
"557 566 OFFCURVE",
"558 514 CURVE SMOOTH",
"562 364 OFFCURVE",
"474 51 OFFCURVE",
"341 51 CURVE SMOOTH",
"279 51 OFFCURVE",
"244 99 OFFCURVE",
"244 248 CURVE SMOOTH",
"244 522 OFFCURVE",
"310 653 OFFCURVE",
"485 692 CURVE",
"485 692 LINE",
"460 698 OFFCURVE",
"437 700 OFFCURVE",
"416 700 CURVE SMOOTH",
"185 700 OFFCURVE",
"26 502 OFFCURVE",
"26 253 CURVE SMOOTH",
"26 71 OFFCURVE",
"127 -22 OFFCURVE",
"310 -22 CURVE SMOOTH"
);
}
);
width = 767;
}
);
leftKerningGroup = O;
note = O;
rightKerningGroup = O;
unicode = 004F;
},
{
glyphname = Ohorntilde;
layers = (
{
anchors = (
{
name = _top;
position = "{466, 707}";
}
);
background = {
paths = (
{
closed = 1;
nodes = (
"460 657 LINE",
"436 674 OFFCURVE",
"401 680 OFFCURVE",
"362 680 CURVE SMOOTH",
"119 680 OFFCURVE",
"27 405 OFFCURVE",
"27 207 CURVE SMOOTH",
"27 62 OFFCURVE",
"72 -20 OFFCURVE",
"206 -20 CURVE SMOOTH",
"453 -20 OFFCURVE",
"541 261 OFFCURVE",
"541 454 CURVE SMOOTH",
"541 529 OFFCURVE",
"528 588 OFFCURVE",
"496 629 CURVE"
);
},
{
closed = 1;
nodes = (
"131 387 OFFCURVE",
"196 610 OFFCURVE",
"333 610 CURVE SMOOTH",
"411 610 OFFCURVE",
"438 550 OFFCURVE",
"438 465 CURVE SMOOTH",
"438 271 OFFCURVE",
"371 51 OFFCURVE",
"235 51 CURVE SMOOTH",
"157 51 OFFCURVE",
"131 111 OFFCURVE",
"131 196 CURVE SMOOTH"
);
},
{
closed = 1;
nodes = (
"486 618 LINE",
"571 612 OFFCURVE",
"637 680 OFFCURVE",
"637 746 CURVE SMOOTH",
"637 772 OFFCURVE",
"621 793 OFFCURVE",
"584 793 CURVE SMOOTH",
"558 793 OFFCURVE",
"540 780 OFFCURVE",
"534 768 CURVE",
"545 754 OFFCURVE",
"550 738 OFFCURVE",
"550 722 CURVE SMOOTH",
"550 681 OFFCURVE",
"518 659 OFFCURVE",
"480 659 CURVE SMOOTH",
"465 659 OFFCURVE",
"448 663 OFFCURVE",
"432 669 CURVE"
);
}
);
};
components = (
{
name = Ohorn;
},
{
alignment = -1;
name = tilde.case;
transform = "{1, 0, 0, 1, 174, 47}";
}
);
layerId = "1252CFB8-7EB2-4C2F-9C11-14383990C0AA";
width = 595;
},
{
anchors = (
{
name = _top;
position = "{466, 707}";
}
);
components = (
{
name = Ohorn;
},
{
alignment = -1;
name = tilde.case;
transform = "{1, 0, 0, 1, 209, 47}";
}
);
hints = (
{
horizontal = 1;
place = "{888, 128.4}";
type = Stem;
},
{
place = "{277.2, 464.4}";
type = Stem;
},
{
horizontal = 1;
place = "{866.4, 129.6}";
type = Stem;
},
{
horizontal = 1;
place = "{-24, 85.2}";
type = Stem;
},
{
horizontal = 1;
place = "{732, 84}";
type = Stem;
},
{
place = "{26.4, 260.4}";
type = Stem;
},
{
place = "{540, 260.4}";
type = Stem;
},
{
horizontal = 1;
place = "{888, 128.4}";
type = Stem;
},
{
place = "{285.6, 464.4}";
type = Stem;
},
{
horizontal = 1;
place = "{866.4, 129.6}";
type = Stem;
},
{
horizontal = 1;
place = "{944.4, 128.4}";
type = Stem;
},
{
place = "{349.2, 464.4}";
type = Stem;
},
{
horizontal = 1;
place = "{922.8, 129.6}";
type = Stem;
}
);
layerId = "E87290C6-23CF-4B1A-9291-A4CEFD7391A8";
width = 764;
}
);
leftKerningGroup = O;
rightKerningGroup = O02;
unicode = 1EE0;
},
{
glyphname = Oslash;
layers = (
{
anchors = (
{
name = _center;
position = "{294, 363}";
}
);
background = {
paths = (
{
closed = 1;
nodes = (
"72 160 LINE",
"-39 36 LINE SMOOTH",
"-50 22 OFFCURVE",
"-55 9 OFFCURVE",
"-55 -5 CURVE SMOOTH",
"-54 -25 OFFCURVE",
"-43 -43 OFFCURVE",
"-18 -43 CURVE",
"-7 -24 OFFCURVE",
"-1 -15 OFFCURVE",
"21 10 CURVE",
"117 116 LINE"
);
},
{
closed = 1;
nodes = (
"466 597 LINE",
"72 160 LINE",
"117 116 LINE",
"513 551 LINE"
);
},
{
closed = 1;
nodes = (
"513 551 LINE",
"594 640 LINE SMOOTH",
"606 654 OFFCURVE",
"612 668 OFFCURVE",
"612 679 CURVE SMOOTH",
"612 705 OFFCURVE",
"588 721 OFFCURVE",
"574 721 CURVE",
"561 702 OFFCURVE",
"550 690 OFFCURVE",
"532 670 CURVE",
"466 597 LINE"
);
}
);
};
components = (
{
name = O;
}
);
layerId = "1252CFB8-7EB2-4C2F-9C11-14383990C0AA";
paths = (
{
closed = 1;
nodes = (
"-7 -24 OFFCURVE",
"-1 -15 OFFCURVE",
"21 10 CURVE SMOOTH",
"117 116 LINE",
"72 160 LINE",
"-39 36 LINE SMOOTH",
"-50 22 OFFCURVE",
"-55 9 OFFCURVE",
"-55 -5 CURVE SMOOTH",
"-54 -25 OFFCURVE",
"-43 -43 OFFCURVE",
"-18 -43 CURVE"
);
},
{
closed = 1;
nodes = (
"551 618 LINE SMOOTH",
"581 650 OFFCURVE",
"608 679 OFFCURVE",
"608 704 CURVE SMOOTH",
"608 730 OFFCURVE",
"585 749 OFFCURVE",
"564 752 CURVE",
"558 730 OFFCURVE",
"535 700 OFFCURVE",
"517 680 CURVE SMOOTH",
"446 602 LINE",
"493 556 LINE"
);
}
);
width = 595;
},
{
anchors = (
{
name = _center;
position = "{383, 363}";
}
);
components = (
{
alignment = -1;
name = O;
}
);
hints = (
{
horizontal = 1;
place = "{-24, 85.2}";
type = Stem;
},
{
horizontal = 1;
place = "{732, 84}";
type = Stem;
},
{
horizontal = 1;
place = "{865.2, -20}";
target = down;
type = TopGhost;
},
{
place = "{26.4, 260.4}";
type = Stem;
},
{
place = "{525.6, 273.6}";
type = Stem;
},
{
horizontal = 1;
place = "{-24, 85.2}";
type = Stem;
},
{
horizontal = 1;
place = "{732, 84}";
type = Stem;
},
{
place = "{26.4, 260.4}";
type = Stem;
},
{
place = "{540, 260.4}";
type = Stem;
},
{
horizontal = 1;
place = "{-12, 85.2}";
type = Stem;
},
{
horizontal = 1;
place = "{744, 84}";
type = Stem;
},
{
horizontal = 1;
place = "{877.2, -20}";
target = down;
type = TopGhost;
},
{
place = "{31.2, 260.4}";
type = Stem;
},
{
place = "{530.4, 273.6}";
type = Stem;
},
{
horizontal = 1;
place = "{-12, 85.2}";
type = Stem;
},
{
horizontal = 1;
place = "{744, 84}";
type = Stem;
},
{
horizontal = 1;
place = "{877.2, -20}";
target = down;
type = TopGhost;
},
{
place = "{31.2, 260.4}";
type = Stem;
},
{
place = "{530.4, 273.6}";
type = Stem;
}
);
layerId = "E87290C6-23CF-4B1A-9291-A4CEFD7391A8";
paths = (
{
closed = 1;
nodes = (
"109 -26 OFFCURVE",
"133 7 OFFCURVE",
"158 33 CURVE SMOOTH",
"215 98 LINE",
"140 172 LINE",
"62 83 LINE SMOOTH",
"46 65 OFFCURVE",
"36 40 OFFCURVE",
"36 15 CURVE SMOOTH",
"37 -24 OFFCURVE",
"63 -49 OFFCURVE",
"97 -49 CURVE"
);
},
{
closed = 1;
nodes = (
"696 637 LINE SMOOTH",
"709 654 OFFCURVE",
"716 672 OFFCURVE",
"716 692 CURVE SMOOTH",
"716 728 OFFCURVE",
"687 763 OFFCURVE",
"656 763 CURVE",
"640 738 OFFCURVE",
"629 725 OFFCURVE",
"601 693 CURVE SMOOTH",
"544 628 LINE",
"633 566 LINE"
);
}
);
width = 764;
}
);
leftKerningGroup = O;
note = Oslash;
rightKerningGroup = O02;
unicode = 00D8;
},
{
glyphname = OE;
layers = (
{
anchors = (
{
name = center;
position = "{308, 363}";
}
);
background = {
paths = (
{
closed = 1;
nodes = (
"578 621 LINE",
"634 604 OFFCURVE",
"712 585 OFFCURVE",
"777 585 CURVE SMOOTH",
"851 585 OFFCURVE",
"878 627 OFFCURVE",
"878 664 CURVE SMOOTH",
"878 680 OFFCURVE",
"871 695 OFFCURVE",
"861 707 CURVE",
"824 672 OFFCURVE",
"786 670 OFFCURVE",
"733 670 CURVE SMOOTH",
"701 670 OFFCURVE",
"669 674 OFFCURVE",
"385 679 CURVE"
);
},
{
closed = 1;
nodes = (
"138 680 OFFCURVE",
"46 405 OFFCURVE",
"46 207 CURVE SMOOTH",
"46 62 OFFCURVE",
"91 -22 OFFCURVE",
"225 -22 CURVE SMOOTH",
"322 -22 OFFCURVE",
"395 22 OFFCURVE",
"447 87 CURVE",
"465 160 OFFCURVE",
"492 258 OFFCURVE",
"552 350 CURVE",
"513 535 OFFCURVE",
"548 680 OFFCURVE",
"381 680 CURVE SMOOTH"
);
},
{
closed = 1;
nodes = (
"440 610 OFFCURVE",
"457 566 OFFCURVE",
"457 465 CURVE SMOOTH",
"457 271 OFFCURVE",
"390 49 OFFCURVE",
"254 49 CURVE SMOOTH",
"176 49 OFFCURVE",
"150 111 OFFCURVE",
"150 196 CURVE SMOOTH",
"150 387 OFFCURVE",
"215 610 OFFCURVE",
"352 610 CURVE SMOOTH"
);
},
{
closed = 1;
nodes = (
"699 -22 OFFCURVE",
"792 33 OFFCURVE",
"792 86 CURVE SMOOTH",
"792 97 OFFCURVE",
"788 109 OFFCURVE",
"778 120 CURVE",
"735 80 OFFCURVE",
"675 53 OFFCURVE",
"617 53 CURVE SMOOTH",
"549 53 OFFCURVE",
"496 87 OFFCURVE",
"496 170 CURVE SMOOTH",
"496 236 OFFCURVE",
"533 285 OFFCURVE",
"593 323 CURVE",
"620 315 OFFCURVE",
"652 307 OFFCURVE",
"697 307 CURVE SMOOTH",
"757 307 OFFCURVE",
"782 345 OFFCURVE",
"768 379 CURVE",
"735 375 OFFCURVE",
"690 375 OFFCURVE",
"672 375 CURVE SMOOTH",
"591 376 LINE",
"562 400 OFFCURVE",
"550 445 OFFCURVE",
"550 489 CURVE SMOOTH",
"550 535 OFFCURVE",
"560 595 OFFCURVE",
"579 646 CURVE",
"439 673 LINE",
"475 618 OFFCURVE",
"465 544 OFFCURVE",
"465 479 CURVE SMOOTH",
"465 428 OFFCURVE",
"482 381 OFFCURVE",
"529 353 CURVE",
"442 299 OFFCURVE",
"452 224 OFFCURVE",
"392 84 CURVE",
"421 14 OFFCURVE",
"496 -22 OFFCURVE",
"601 -22 CURVE SMOOTH"
);
}
);
};
layerId = "1252CFB8-7EB2-4C2F-9C11-14383990C0AA";
paths = (
{
closed = 1;
nodes = (
"302 -22 OFFCURVE",
"364 6 OFFCURVE",
"412 50 CURVE",
"449 2 OFFCURVE",
"515 -22 OFFCURVE",
"601 -22 CURVE SMOOTH",
"699 -22 OFFCURVE",
"792 33 OFFCURVE",
"792 86 CURVE SMOOTH",
"792 97 OFFCURVE",
"788 109 OFFCURVE",
"778 120 CURVE",
"735 77 OFFCURVE",
"675 50 OFFCURVE",
"617 50 CURVE SMOOTH",
"547 50 OFFCURVE",
"496 82 OFFCURVE",
"495 168 CURVE SMOOTH",
"494 234 OFFCURVE",
"521 285 OFFCURVE",
"549 323 CURVE",
"608 315 OFFCURVE",
"652 307 OFFCURVE",
"697 307 CURVE SMOOTH",
"746 307 OFFCURVE",
"772 332 OFFCURVE",
"772 360 CURVE SMOOTH",
"772 367 OFFCURVE",
"771 373 OFFCURVE",
"768 379 CURVE",
"735 375 OFFCURVE",
"690 375 OFFCURVE",
"672 375 CURVE SMOOTH",
"554 376 LINE",
"547 400 OFFCURVE",
"543 445 OFFCURVE",
"546 489 CURVE SMOOTH",
"549 528 OFFCURVE",
"558 578 OFFCURVE",
"592 617 CURVE",
"650 599 OFFCURVE",
"721 585 OFFCURVE",
"777 585 CURVE SMOOTH",
"851 585 OFFCURVE",
"878 627 OFFCURVE",
"878 664 CURVE SMOOTH",
"878 680 OFFCURVE",
"871 695 OFFCURVE",
"861 707 CURVE",
"824 672 OFFCURVE",
"739 670 OFFCURVE",
"665 670 CURVE SMOOTH",
"617 670 OFFCURVE",
"504 680 OFFCURVE",
"381 680 CURVE SMOOTH",
"138 680 OFFCURVE",
"46 405 OFFCURVE",
"46 207 CURVE SMOOTH",
"46 62 OFFCURVE",
"91 -22 OFFCURVE",
"225 -22 CURVE SMOOTH"
);
},
{
closed = 1;
nodes = (
"173 49 OFFCURVE",
"146 111 OFFCURVE",
"145 196 CURVE SMOOTH",
"144 279 OFFCURVE",
"156 367 OFFCURVE",
"181 441 CURVE SMOOTH",
"215 538 OFFCURVE",
"270 610 OFFCURVE",
"351 610 CURVE SMOOTH",
"436 610 OFFCURVE",
"463 559 OFFCURVE",
"464 474 CURVE SMOOTH",
"464 432 OFFCURVE",
"459 381 OFFCURVE",
"449 324 CURVE SMOOTH",
"425 178 OFFCURVE",
"362 49 OFFCURVE",
"254 49 CURVE SMOOTH"
);
}
);
width = 861;
},
{
anchors = (
{
name = center;
position = "{356, 347}";
}
);
hints = (
{
horizontal = 1;
place = "{-24, 85.2}";
type = Stem;
},
{
horizontal = 1;
place = "{330, 134.4}";
type = Stem;
},
{
horizontal = 1;
place = "{732, 84}";
type = Stem;
},
{
place = "{26.4, 260.4}";
type = Stem;
},
{
horizontal = 1;
place = "{674.4, 117.6}";
type = Stem;
},
{
horizontal = 1;
place = "{642, 150}";
type = Stem;
}
);
layerId = "E87290C6-23CF-4B1A-9291-A4CEFD7391A8";
paths = (
{
closed = 1;
nodes = (
"364 -22 OFFCURVE",
"443 -6 OFFCURVE",
"495 46 CURVE",
"516 8 OFFCURVE",
"567 -22 OFFCURVE",
"641 -22 CURVE SMOOTH",
"743 -22 OFFCURVE",
"848 34 OFFCURVE",
"848 135 CURVE SMOOTH",
"848 164 OFFCURVE",
"834 187 OFFCURVE",
"810 196 CURVE",
"769 155 OFFCURVE",
"723 134 OFFCURVE",
"677 134 CURVE SMOOTH",
"614 134 OFFCURVE",
"592 174 OFFCURVE",
"592 209 CURVE SMOOTH",
"592 233 OFFCURVE",
"604 263 OFFCURVE",
"629 283 CURVE",
"658 273 OFFCURVE",
"686 269 OFFCURVE",
"708 269 CURVE SMOOTH",
"772 269 OFFCURVE",
"815 295 OFFCURVE",
"815 364 CURVE SMOOTH",
"815 371 OFFCURVE",
"814 379 OFFCURVE",
"814 389 CURVE",
"805 388 OFFCURVE",
"787 388 OFFCURVE",
"762 388 CURVE SMOOTH",
"640 389 LINE",
"639 399 OFFCURVE",
"639 404 OFFCURVE",
"638 412 CURVE SMOOTH",
"638 458 OFFCURVE",
"649 510 OFFCURVE",
"677 544 CURVE",
"708 517 OFFCURVE",
"757 501 OFFCURVE",
"803 501 CURVE SMOOTH",
"863 501 OFFCURVE",
"922 524 OFFCURVE",
"922 594 CURVE SMOOTH",
"922 621 OFFCURVE",
"906 659 OFFCURVE",
"877 675 CURVE",
"780 664 OFFCURVE",
"715 658 OFFCURVE",
"660 658 CURVE SMOOTH",
"533 658 OFFCURVE",
"473 680 OFFCURVE",
"407 680 CURVE SMOOTH",
"162 680 OFFCURVE",
"18 497 OFFCURVE",
"18 263 CURVE SMOOTH",
"18 68 OFFCURVE",
"119 -22 OFFCURVE",
"292 -22 CURVE SMOOTH"
);
},
{
closed = 1;
nodes = (
"263 51 OFFCURVE",
"259 85 OFFCURVE",
"259 125 CURVE SMOOTH",
"259 166 OFFCURVE",
"266 240 OFFCURVE",
"270 287 CURVE SMOOTH",
"297 518 OFFCURVE",
"336 610 OFFCURVE",
"406 610 CURVE SMOOTH",
"444 610 OFFCURVE",
"449 575 OFFCURVE",
"448 534 CURVE SMOOTH",
"448 485 OFFCURVE",
"440 404 OFFCURVE",
"433 353 CURVE SMOOTH",
"405 132 OFFCURVE",
"367 51 OFFCURVE",
"302 51 CURVE SMOOTH"
);
}
);
width = 878;
}
);
leftKerningGroup = O;
note = OE;
rightKerningGroup = E;
unicode = 0152;
},
{
glyphname = P;
layers = (
{
background = {
paths = (
{
closed = 1;
nodes = (
"116 0 LINE",
"233 596 LINE",
"262 601 OFFCURVE",
"288 604 OFFCURVE",
"306 604 CURVE SMOOTH",
"378 604 OFFCURVE",
"398 563 OFFCURVE",
"398 494 CURVE SMOOTH",
"398 372 OFFCURVE",
"333 319 OFFCURVE",
"243 322 CURVE",
"232 323 OFFCURVE",
"225 323 OFFCURVE",
"217 325 CURVE",
"225 287 OFFCURVE",
"272 278 OFFCURVE",
"308 278 CURVE SMOOTH",
"433 278 OFFCURVE",
"508 378 OFFCURVE",
"508 504 CURVE SMOOTH",
"508 637 OFFCURVE",
"427 670 OFFCURVE",
"315 670 CURVE SMOOTH",
"269 670 OFFCURVE",
"182 664 OFFCURVE",
"150 660 CURVE",
"23 0 LINE"
);
},
{
closed = 1;
nodes = (
"498 -22 OFFCURVE",
"667 38 OFFCURVE",
"675 197 CURVE SMOOTH",
"679 275 OFFCURVE",
"632 326 OFFCURVE",
"558 346 CURVE",
"653 378 OFFCURVE",
"698 442 OFFCURVE",
"698 516 CURVE SMOOTH",
"698 620 OFFCURVE",
"605 680 OFFCURVE",
"436 680 CURVE SMOOTH",
"194 680 OFFCURVE",
"51 555 OFFCURVE",
"51 415 CURVE SMOOTH",
"51 344 OFFCURVE",
"85 304 OFFCURVE",
"131 304 CURVE SMOOTH",
"150 304 OFFCURVE",
"167 309 OFFCURVE",
"179 319 CURVE",
"158 355 OFFCURVE",
"151 380 OFFCURVE",
"151 416 CURVE SMOOTH",
"151 571 OFFCURVE",
"289 621 OFFCURVE",
"417 621 CURVE SMOOTH",
"538 621 OFFCURVE",
"601 587 OFFCURVE",
"601 512 CURVE SMOOTH",
"601 431 OFFCURVE",
"558 372 OFFCURVE",
"434 370 CURVE SMOOTH",
"380 369 LINE",
"398 457 LINE SMOOTH",
"405 489 OFFCURVE",
"411 528 OFFCURVE",
"446 545 CURVE",
"442 563 OFFCURVE",
"424 580 OFFCURVE",
"390 580 CURVE SMOOTH",
"339 580 OFFCURVE",
"319 551 OFFCURVE",
"308 493 CURVE SMOOTH",
"237 128 LINE SMOOTH",
"226 71 OFFCURVE",
"208 39 OFFCURVE",
"189 13 CURVE",
"219 -4 OFFCURVE",
"273 -22 OFFCURVE",
"359 -22 CURVE SMOOTH"
);
}
);
};
layerId = "1252CFB8-7EB2-4C2F-9C11-14383990C0AA";
paths = (
{
closed = 1;
nodes = (
"550 260 OFFCURVE",
"684 355 OFFCURVE",
"684 490 CURVE SMOOTH",
"684 605 OFFCURVE",
"589 680 OFFCURVE",
"427 680 CURVE SMOOTH",
"200 680 OFFCURVE",
"53 552 OFFCURVE",
"53 409 CURVE SMOOTH",
"53 342 OFFCURVE",
"85 304 OFFCURVE",
"130 304 CURVE SMOOTH",
"149 304 OFFCURVE",
"166 309 OFFCURVE",
"179 319 CURVE",
"160 353 OFFCURVE",
"153 377 OFFCURVE",
"153 409 CURVE SMOOTH",
"153 570 OFFCURVE",
"296 624 OFFCURVE",
"407 624 CURVE SMOOTH",
"517 624 OFFCURVE",
"587 576 OFFCURVE",
"587 486 CURVE SMOOTH",
"587 409 OFFCURVE",
"538 315 OFFCURVE",
"389 315 CURVE SMOOTH",
"362 315 LINE",
"348 261 LINE",
"353 260 OFFCURVE",
"375 260 OFFCURVE",
"385 260 CURVE SMOOTH"
);
},
{
closed = 1;
nodes = (
"263 -12 OFFCURVE",
"303 8 OFFCURVE",
"312 52 CURVE SMOOTH",
"395 457 LINE SMOOTH",
"402 489 OFFCURVE",
"408 528 OFFCURVE",
"443 545 CURVE",
"439 563 OFFCURVE",
"421 580 OFFCURVE",
"387 580 CURVE SMOOTH",
"343 580 OFFCURVE",
"319 551 OFFCURVE",
"308 493 CURVE SMOOTH",
"231 101 LINE SMOOTH",
"223 62 OFFCURVE",
"204 18 OFFCURVE",
"184 1 CURVE",
"200 -8 OFFCURVE",
"218 -12 OFFCURVE",
"230 -12 CURVE SMOOTH"
);
}
);
width = 652;
},
{
hints = (
{
horizontal = 1;
place = "{0, 21}";
target = up;
type = BottomGhost;
},
{
horizontal = 1;
place = "{325.2, 69.6}";
type = Stem;
},
{
horizontal = 1;
place = "{720, 79.2}";
type = Stem;
},
{
place = "{552, 231.6}";
type = Stem;
}
);
layerId = "E87290C6-23CF-4B1A-9291-A4CEFD7391A8";
paths = (
{
closed = 1;
nodes = (
"682 204 OFFCURVE",
"852 296 OFFCURVE",
"852 456 CURVE SMOOTH",
"852 624 OFFCURVE",
"660 691 OFFCURVE",
"440 691 CURVE SMOOTH",
"237 691 OFFCURVE",
"7 612 OFFCURVE",
"7 429 CURVE SMOOTH",
"7 354 OFFCURVE",
"57 281 OFFCURVE",
"156 281 CURVE SMOOTH",
"179 281 OFFCURVE",
"213 291 OFFCURVE",
"234 315 CURVE",
"212 363 OFFCURVE",
"207 395 OFFCURVE",
"207 435 CURVE SMOOTH",
"207 553 OFFCURVE",
"331 624 OFFCURVE",
"445 624 CURVE SMOOTH",
"546 624 OFFCURVE",
"639 582 OFFCURVE",
"639 461 CURVE SMOOTH",
"639 362 OFFCURVE",
"574 275 OFFCURVE",
"480 275 CURVE SMOOTH",
"445 275 LINE",
"433 209 LINE",
"460 205 OFFCURVE",
"484 204 OFFCURVE",
"510 204 CURVE SMOOTH"
);
},
{
closed = 1;
nodes = (
"403 -24 OFFCURVE",
"434 38 OFFCURVE",
"457 161 CURVE SMOOTH",
"508 421 LINE SMOOTH",
"520 482 OFFCURVE",
"527 504 OFFCURVE",
"558 517 CURVE",
"554 552 OFFCURVE",
"501 573 OFFCURVE",
"447 573 CURVE SMOOTH",
"324 573 OFFCURVE",
"288 513 OFFCURVE",
"267 409 CURVE SMOOTH",
"215 147 LINE SMOOTH",
"200 68 OFFCURVE",
"199 49 OFFCURVE",
"165 36 CURVE",
"166 -1 OFFCURVE",
"219 -24 OFFCURVE",
"278 -24 CURVE SMOOTH"
);
}
);
width = 860;
}
);
leftKerningGroup = H;
leftMetricsKey = H;
note = P;
rightKerningGroup = P;
unicode = 0050;
},
{
glyphname = Thorn;
layers = (
{
components = (
{
name = I;
}
);
layerId = "1252CFB8-7EB2-4C2F-9C11-14383990C0AA";
paths = (
{
closed = 1;
nodes = (
"598 150 OFFCURVE",
"683 253 OFFCURVE",
"683 368 CURVE SMOOTH",
"683 500 OFFCURVE",
"572 537 OFFCURVE",
"458 537 CURVE SMOOTH",
"444 537 OFFCURVE",
"430 536 OFFCURVE",
"416 535 CURVE",
"403 464 LINE",
"424 470 OFFCURVE",
"446 473 OFFCURVE",
"470 473 CURVE SMOOTH",
"550 473 OFFCURVE",
"588 439 OFFCURVE",
"588 372 CURVE SMOOTH",
"588 263 OFFCURVE",
"527 201 OFFCURVE",
"421 201 CURVE SMOOTH",
"413 201 OFFCURVE",
"409 201 OFFCURVE",
"404 201 CURVE",
"412 162 OFFCURVE",
"449 150 OFFCURVE",
"485 150 CURVE SMOOTH"
);
}
);
width = 679;
},
{
components = (
{
alignment = -1;
name = I;
}
);
hints = (
{
horizontal = 1;
place = "{0, 21}";
target = up;
type = BottomGhost;
},
{
horizontal = 1;
place = "{171.6, 69.6}";
type = Stem;
},
{
horizontal = 1;
place = "{566.4, 225.6}";
type = Stem;
},
{
place = "{523.2, 231.6}";
type = Stem;
},
{
horizontal = 1;
place = "{0, 241.2}";
type = Stem;
},
{
horizontal = 1;
place = "{566.4, 79.2}";
type = Stem;
}
);
layerId = "E87290C6-23CF-4B1A-9291-A4CEFD7391A8";
paths = (
{
closed = 1;
nodes = (
"743 142 OFFCURVE",
"846 221 OFFCURVE",
"846 360 CURVE SMOOTH",
"846 512 OFFCURVE",
"722 538 OFFCURVE",
"556 538 CURVE SMOOTH",
"546 538 OFFCURVE",
"531 538 OFFCURVE",
"522 537 CURVE",
"509 470 LINE",
"516 471 OFFCURVE",
"531 472 OFFCURVE",
"541 472 CURVE SMOOTH",
"603 472 OFFCURVE",
"634 445 OFFCURVE",
"634 371 CURVE SMOOTH",
"634 280 OFFCURVE",
"581 217 OFFCURVE",
"500 203 CURVE SMOOTH",
"492 202 OFFCURVE",
"482 201 OFFCURVE",
"474 201 CURVE",
"491 156 OFFCURVE",
"545 142 OFFCURVE",
"604 142 CURVE SMOOTH"
);
}
);
width = 798;
}
);
leftKerningGroup = H;
leftMetricsKey = H;
note = Thorn;
rightKerningGroup = Thorn;
unicode = 00DE;
},
{
glyphname = Q;
layers = (
{
anchors = (
{
name = center;
position = "{305, 297}";
}
);
background = {
paths = (
{
closed = 1;
nodes = (
"674 -241 OFFCURVE",
"716 -203 OFFCURVE",
"716 -155 CURVE SMOOTH",
"716 -142 OFFCURVE",
"713 -133 OFFCURVE",
"708 -127 CURVE",
"680 -135 OFFCURVE",
"649 -139 OFFCURVE",
"611 -139 CURVE SMOOTH",
"484 -139 OFFCURVE",
"349 -57 OFFCURVE",
"276 -31 CURVE",
"190 6 LINE",
"156 5 OFFCURVE",
"120 10 OFFCURVE",
"100 10 CURVE SMOOTH",
"64 10 OFFCURVE",
"40 -10 OFFCURVE",
"40 -40 CURVE SMOOTH",
"40 -49 OFFCURVE",
"42 -60 OFFCURVE",
"48 -72 CURVE",
"60 -68 OFFCURVE",
"77 -64 OFFCURVE",
"107 -64 CURVE SMOOTH",
"245 -64 OFFCURVE",
"442 -241 OFFCURVE",
"593 -241 CURVE SMOOTH"
);
},
{
closed = 1;
nodes = (
"271 -38 LINE",
"466 -1 OFFCURVE",
"579 193 OFFCURVE",
"579 432 CURVE SMOOTH",
"579 623 OFFCURVE",
"492 682 OFFCURVE",
"371 682 CURVE SMOOTH",
"170 682 OFFCURVE",
"47 431 OFFCURVE",
"47 210 CURVE SMOOTH",
"47 97 OFFCURVE",
"105 36 OFFCURVE",
"197 36 CURVE SMOOTH",
"280 36 OFFCURVE",
"369 123 OFFCURVE",
"364 226 CURVE SMOOTH",
"364 292 OFFCURVE",
"328 324 OFFCURVE",
"288 324 CURVE SMOOTH",
"268 324 OFFCURVE",
"245 316 OFFCURVE",
"234 301 CURVE",
"260 280 OFFCURVE",
"274 232 OFFCURVE",
"274 189 CURVE SMOOTH",
"274 142 OFFCURVE",
"257 99 OFFCURVE",
"221 99 CURVE SMOOTH",
"178 99 OFFCURVE",
"151 130 OFFCURVE",
"151 221 CURVE SMOOTH",
"151 381 OFFCURVE",
"219 610 OFFCURVE",
"358 610 CURVE SMOOTH",
"424 610 OFFCURVE",
"471 581 OFFCURVE",
"471 435 CURVE SMOOTH",
"471 363 OFFCURVE",
"457 282 OFFCURVE",
"444 232 CURVE SMOOTH",
"406 91 OFFCURVE",
"309 6 OFFCURVE",
"190 6 CURVE"
);
},
{
closed = 1;
nodes = (
"674 -241 OFFCURVE",
"716 -203 OFFCURVE",
"716 -155 CURVE SMOOTH",
"716 -142 OFFCURVE",
"713 -133 OFFCURVE",
"708 -127 CURVE",
"680 -135 OFFCURVE",
"649 -139 OFFCURVE",
"611 -139 CURVE SMOOTH",
"490 -139 OFFCURVE",
"361 -64 OFFCURVE",
"286 -35 CURVE",
"472 9 OFFCURVE",
"579 199 OFFCURVE",
"579 432 CURVE SMOOTH",
"579 623 OFFCURVE",
"492 682 OFFCURVE",
"371 682 CURVE SMOOTH",
"170 682 OFFCURVE",
"47 431 OFFCURVE",
"47 221 CURVE SMOOTH",
"47 108 OFFCURVE",
"103 45 OFFCURVE",
"193 45 CURVE SMOOTH",
"280 45 OFFCURVE",
"348 132 OFFCURVE",
"348 228 CURVE SMOOTH",
"348 292 OFFCURVE",
"313 324 OFFCURVE",
"275 324 CURVE SMOOTH",
"256 324 OFFCURVE",
"233 316 OFFCURVE",
"223 301 CURVE",
"248 283 OFFCURVE",
"261 242 OFFCURVE",
"261 202 CURVE SMOOTH",
"261 147 OFFCURVE",
"243 108 OFFCURVE",
"204 108 CURVE SMOOTH",
"175 108 OFFCURVE",
"151 144 OFFCURVE",
"151 221 CURVE SMOOTH",
"151 381 OFFCURVE",
"219 610 OFFCURVE",
"358 610 CURVE SMOOTH",
"424 610 OFFCURVE",
"471 581 OFFCURVE",
"471 435 CURVE SMOOTH",
"471 363 OFFCURVE",
"457 282 OFFCURVE",
"444 232 CURVE SMOOTH",
"406 91 OFFCURVE",
"309 6 OFFCURVE",
"190 6 CURVE SMOOTH",
"156 5 OFFCURVE",
"120 10 OFFCURVE",
"100 10 CURVE SMOOTH",
"64 10 OFFCURVE",
"40 -10 OFFCURVE",
"40 -40 CURVE SMOOTH",
"40 -49 OFFCURVE",
"42 -60 OFFCURVE",
"48 -72 CURVE",
"60 -68 OFFCURVE",
"77 -64 OFFCURVE",
"107 -64 CURVE SMOOTH",
"245 -64 OFFCURVE",
"442 -241 OFFCURVE",
"593 -241 CURVE SMOOTH"
);
}
);
};
layerId = "1252CFB8-7EB2-4C2F-9C11-14383990C0AA";
paths = (
{
closed = 1;
nodes = (
"646 -231 OFFCURVE",
"687 -197 OFFCURVE",
"688 -159 CURVE SMOOTH",
"688 -148 OFFCURVE",
"686 -138 OFFCURVE",
"683 -132 CURVE",
"657 -139 OFFCURVE",
"625 -143 OFFCURVE",
"589 -143 CURVE SMOOTH",
"465 -143 OFFCURVE",
"336 -65 OFFCURVE",
"256 -37 CURVE",
"447 5 OFFCURVE",
"566 200 OFFCURVE",
"566 450 CURVE SMOOTH",
"566 607 OFFCURVE",
"503 682 OFFCURVE",
"371 682 CURVE SMOOTH",
"173 682 OFFCURVE",
"41 426 OFFCURVE",
"41 212 CURVE SMOOTH",
"41 107 OFFCURVE",
"91 45 OFFCURVE",
"176 45 CURVE SMOOTH",
"257 45 OFFCURVE",
"330 132 OFFCURVE",
"330 234 CURVE SMOOTH",
"330 288 OFFCURVE",
"304 324 OFFCURVE",
"266 324 CURVE SMOOTH",
"245 324 OFFCURVE",
"227 316 OFFCURVE",
"218 300 CURVE",
"241 282 OFFCURVE",
"254 251 OFFCURVE",
"254 211 CURVE SMOOTH",
"254 144 OFFCURVE",
"232 108 OFFCURVE",
"189 108 CURVE SMOOTH",
"153 108 OFFCURVE",
"133 145 OFFCURVE",
"133 211 CURVE SMOOTH",
"133 370 OFFCURVE",
"208 610 OFFCURVE",
"356 610 CURVE SMOOTH",
"438 610 OFFCURVE",
"471 564 OFFCURVE",
"471 450 CURVE SMOOTH",
"471 389 OFFCURVE",
"459 302 OFFCURVE",
"438 232 CURVE SMOOTH",
"397 93 OFFCURVE",
"295 6 OFFCURVE",
"172 6 CURVE SMOOTH",
"138 5 OFFCURVE",
"101 10 OFFCURVE",
"82 10 CURVE SMOOTH",
"49 10 OFFCURVE",
"28 2 OFFCURVE",
"27 -29 CURVE SMOOTH",
"27 -39 OFFCURVE",
"30 -51 OFFCURVE",
"33 -59 CURVE",
"49 -55 OFFCURVE",
"67 -53 OFFCURVE",
"88 -53 CURVE SMOOTH",
"230 -53 OFFCURVE",
"421 -231 OFFCURVE",
"569 -231 CURVE SMOOTH"
);
}
);
width = 584;
},
{
anchors = (
{
name = center;
position = "{346, 314}";
}
);
hints = (
{
horizontal = 1;
place = "{-15.6, 21}";
target = up;
type = BottomGhost;
},
{
horizontal = 1;
place = "{99.6, 80.4}";
type = Stem;
},
{
horizontal = 1;
place = "{732, 84}";
type = Stem;
},
{
place = "{34.8, 259.2}";
type = Stem;
},
{
place = "{548.4, 260.4}";
type = Stem;
},
{
horizontal = 1;
place = "{-220.8, 176.4}";
type = Stem;
}
);
layerId = "E87290C6-23CF-4B1A-9291-A4CEFD7391A8";
paths = (
{
closed = 1;
nodes = (
"810 -274 OFFCURVE",
"881 -209 OFFCURVE",
"881 -143 CURVE SMOOTH",
"881 -122 OFFCURVE",
"874 -101 OFFCURVE",
"861 -80 CURVE",
"819 -95 OFFCURVE",
"776 -100 OFFCURVE",
"734 -100 CURVE SMOOTH",
"579 -100 OFFCURVE",
"416 -33 OFFCURVE",
"329 -8 CURVE",
"471 6 OFFCURVE",
"724 117 OFFCURVE",
"724 409 CURVE SMOOTH",
"724 588 OFFCURVE",
"611 680 OFFCURVE",
"430 680 CURVE SMOOTH",
"189 680 OFFCURVE",
"23 493 OFFCURVE",
"23 274 CURVE SMOOTH",
"23 126 OFFCURVE",
"126 83 OFFCURVE",
"218 83 CURVE SMOOTH",
"364 83 OFFCURVE",
"445 200 OFFCURVE",
"445 295 CURVE SMOOTH",
"445 359 OFFCURVE",
"408 390 OFFCURVE",
"360 390 CURVE SMOOTH",
"324 390 OFFCURVE",
"286 374 OFFCURVE",
"261 340 CURVE",
"277 317 OFFCURVE",
"286 274 OFFCURVE",
"286 239 CURVE SMOOTH",
"286 204 OFFCURVE",
"276 170 OFFCURVE",
"255 170 CURVE SMOOTH",
"243 170 OFFCURVE",
"227 198 OFFCURVE",
"227 263 CURVE SMOOTH",
"227 423 OFFCURVE",
"305 609 OFFCURVE",
"423 609 CURVE SMOOTH",
"494 609 OFFCURVE",
"517 545 OFFCURVE",
"517 425 CURVE SMOOTH",
"517 339 OFFCURVE",
"496 246 OFFCURVE",
"468 192 CURVE SMOOTH",
"423 111 OFFCURVE",
"359 41 OFFCURVE",
"226 41 CURVE SMOOTH",
"206 41 OFFCURVE",
"167 46 OFFCURVE",
"147 46 CURVE SMOOTH",
"47 46 OFFCURVE",
"-1 2 OFFCURVE",
"-1 -45 CURVE SMOOTH",
"-1 -65 OFFCURVE",
"10 -88 OFFCURVE",
"28 -112 CURVE",
"59 -92 OFFCURVE",
"92 -84 OFFCURVE",
"126 -84 CURVE SMOOTH",
"286 -84 OFFCURVE",
"475 -274 OFFCURVE",
"694 -274 CURVE SMOOTH"
);
}
);
width = 741;
}
);
leftKerningGroup = O;
note = Q;
rightKerningGroup = O;
unicode = 0051;
},
{
glyphname = R;
layers = (
{
anchors = (
{
name = bottom;
position = "{209, 0}";
},
{
name = top;
position = "{345, 660}";
}
);
background = {
paths = (
{
closed = 1;
nodes = (
"25 0 LINE",
"120 0 LINE",
"236 595 LINE",
"255 600 OFFCURVE",
"276 604 OFFCURVE",
"298 604 CURVE SMOOTH",
"373 604 OFFCURVE",
"405 564 OFFCURVE",
"405 485 CURVE SMOOTH",
"405 385 OFFCURVE",
"356 321 OFFCURVE",
"252 321 CURVE SMOOTH",
"239 321 OFFCURVE",
"236 321 OFFCURVE",
"221 322 CURVE",
"318 64 OFFCURVE",
"366 -19 OFFCURVE",
"444 -19 CURVE SMOOTH",
"473 -19 OFFCURVE",
"504 -6 OFFCURVE",
"513 29 CURVE",
"475 47 OFFCURVE",
"413 121 OFFCURVE",
"345 277 CURVE",
"449 293 OFFCURVE",
"513 386 OFFCURVE",
"513 504 CURVE SMOOTH",
"513 637 OFFCURVE",
"433 670 OFFCURVE",
"309 670 CURVE SMOOTH",
"257 670 OFFCURVE",
"185 664 OFFCURVE",
"153 660 CURVE"
);
},
{
closed = 1;
nodes = (
"498 -22 OFFCURVE",
"667 38 OFFCURVE",
"675 197 CURVE SMOOTH",
"679 275 OFFCURVE",
"632 326 OFFCURVE",
"558 346 CURVE",
"653 378 OFFCURVE",
"698 442 OFFCURVE",
"698 516 CURVE SMOOTH",
"698 620 OFFCURVE",
"605 680 OFFCURVE",
"436 680 CURVE SMOOTH",
"194 680 OFFCURVE",
"51 555 OFFCURVE",
"51 415 CURVE SMOOTH",
"51 344 OFFCURVE",
"85 304 OFFCURVE",
"131 304 CURVE SMOOTH",
"150 304 OFFCURVE",
"167 309 OFFCURVE",
"179 319 CURVE",
"158 355 OFFCURVE",
"151 380 OFFCURVE",
"151 416 CURVE SMOOTH",
"151 571 OFFCURVE",
"289 621 OFFCURVE",
"417 621 CURVE SMOOTH",
"538 621 OFFCURVE",
"601 587 OFFCURVE",
"601 512 CURVE SMOOTH",
"601 431 OFFCURVE",
"558 372 OFFCURVE",
"434 370 CURVE SMOOTH",
"380 369 LINE",
"398 457 LINE SMOOTH",
"405 489 OFFCURVE",
"411 528 OFFCURVE",
"446 545 CURVE",
"442 563 OFFCURVE",
"424 580 OFFCURVE",
"390 580 CURVE SMOOTH",
"339 580 OFFCURVE",
"319 551 OFFCURVE",
"308 493 CURVE SMOOTH",
"237 128 LINE SMOOTH",
"226 71 OFFCURVE",
"208 39 OFFCURVE",
"189 13 CURVE",
"219 -4 OFFCURVE",
"273 -22 OFFCURVE",
"359 -22 CURVE SMOOTH"
);
}
);
};
layerId = "1252CFB8-7EB2-4C2F-9C11-14383990C0AA";
paths = (
{
closed = 1;
nodes = (
"589 290 OFFCURVE",
"685 378 OFFCURVE",
"685 498 CURVE SMOOTH",
"685 598 OFFCURVE",
"599 680 OFFCURVE",
"415 680 CURVE SMOOTH",
"200 680 OFFCURVE",
"53 552 OFFCURVE",
"53 409 CURVE SMOOTH",
"53 342 OFFCURVE",
"85 304 OFFCURVE",
"130 304 CURVE SMOOTH",
"149 304 OFFCURVE",
"166 309 OFFCURVE",
"179 319 CURVE",
"160 353 OFFCURVE",
"153 377 OFFCURVE",
"153 409 CURVE SMOOTH",
"153 570 OFFCURVE",
"296 624 OFFCURVE",
"395 624 CURVE SMOOTH",
"541 624 OFFCURVE",
"587 559 OFFCURVE",
"587 487 CURVE SMOOTH",
"587 408 OFFCURVE",
"542 329 OFFCURVE",
"414 317 CURVE",
"450 266 LINE"
);
},
{
closed = 1;
nodes = (
"266 -12 OFFCURVE",
"305 8 OFFCURVE",
"314 52 CURVE SMOOTH",
"397 457 LINE SMOOTH",
"404 489 OFFCURVE",
"410 528 OFFCURVE",
"445 545 CURVE",
"441 563 OFFCURVE",
"423 580 OFFCURVE",
"390 580 CURVE SMOOTH",
"339 580 OFFCURVE",
"319 551 OFFCURVE",
"308 493 CURVE SMOOTH",
"231 101 LINE SMOOTH",
"223 62 OFFCURVE",
"204 18 OFFCURVE",
"184 1 CURVE",
"200 -8 OFFCURVE",
"218 -12 OFFCURVE",
"233 -12 CURVE SMOOTH"
);
},
{
closed = 1;
nodes = (
"689 -112 OFFCURVE",
"711 -96 OFFCURVE",
"720 -71 CURVE",
"603 -27 OFFCURVE",
"568 235 OFFCURVE",
"495 279 CURVE",
"414 317 LINE",
"464 235 OFFCURVE",
"527 20 OFFCURVE",
"559 -41 CURVE SMOOTH",
"593 -104 OFFCURVE",
"622 -112 OFFCURVE",
"657 -112 CURVE SMOOTH"
);
}
);
width = 676;
},
{
anchors = (
{
name = bottom;
position = "{538, 0}";
},
{
name = top;
position = "{533, 696}";
}
);
hints = (
{
horizontal = 1;
place = "{0, 21}";
target = up;
type = BottomGhost;
},
{
horizontal = 1;
place = "{720, 78}";
type = Stem;
},
{
place = "{535.2, 232.8}";
type = Stem;
},
{
horizontal = 1;
place = "{-24, 21}";
target = up;
type = BottomGhost;
}
);
layerId = "E87290C6-23CF-4B1A-9291-A4CEFD7391A8";
paths = (
{
closed = 1;
nodes = (
"743 230 OFFCURVE",
"897 325 OFFCURVE",
"897 455 CURVE SMOOTH",
"897 588 OFFCURVE",
"768 690 OFFCURVE",
"471 690 CURVE SMOOTH",
"250 690 OFFCURVE",
"7 613 OFFCURVE",
"7 429 CURVE SMOOTH",
"7 354 OFFCURVE",
"57 281 OFFCURVE",
"156 281 CURVE SMOOTH",
"179 281 OFFCURVE",
"213 291 OFFCURVE",
"234 315 CURVE",
"212 363 OFFCURVE",
"207 395 OFFCURVE",
"207 435 CURVE SMOOTH",
"207 557 OFFCURVE",
"328 625 OFFCURVE",
"453 625 CURVE SMOOTH",
"560 625 OFFCURVE",
"670 575 OFFCURVE",
"670 455 CURVE SMOOTH",
"670 366 OFFCURVE",
"612 291 OFFCURVE",
"522 293 CURVE",
"616 213 LINE"
);
},
{
closed = 1;
nodes = (
"405 -24 OFFCURVE",
"436 38 OFFCURVE",
"459 161 CURVE SMOOTH",
"505 402 LINE SMOOTH",
"520 479 OFFCURVE",
"524 502 OFFCURVE",
"555 515 CURVE",
"551 550 OFFCURVE",
"499 570 OFFCURVE",
"444 570 CURVE SMOOTH",
"322 570 OFFCURVE",
"289 510 OFFCURVE",
"265 390 CURVE SMOOTH",
"218 147 LINE SMOOTH",
"203 68 OFFCURVE",
"202 49 OFFCURVE",
"167 36 CURVE",
"169 -1 OFFCURVE",
"222 -24 OFFCURVE",
"280 -24 CURVE SMOOTH"
);
},
{
closed = 1;
nodes = (
"851 -143 OFFCURVE",
"907 -101 OFFCURVE",
"923 -37 CURVE",
"835 -35 OFFCURVE",
"771 159 OFFCURVE",
"698 242 CURVE",
"522 293 LINE",
"572 139 OFFCURVE",
"575 32 OFFCURVE",
"615 -51 CURVE SMOOTH",
"642 -105 OFFCURVE",
"686 -143 OFFCURVE",
"772 -143 CURVE SMOOTH"
);
}
);
width = 893;
}
);
leftKerningGroup = H;
leftMetricsKey = H;
note = R;
rightKerningGroup = R;
unicode = 0052;
},
{
glyphname = S;
layers = (
{
anchors = (
{
name = bottom;
position = "{214, 0}";
},
{
name = top;
position = "{317, 660}";
}
);
background = {
paths = (
{
closed = 0;
nodes = (
"120 487 LINE",
"120 394 OFFCURVE",
"190 344 OFFCURVE",
"250 297 CURVE SMOOTH",
"301 255 OFFCURVE",
"348 214 OFFCURVE",
"348 158 CURVE"
);
},
{
closed = 0;
nodes = (
"433 182 LINE",
"433 272 OFFCURVE",
"367 323 OFFCURVE",
"310 368 CURVE SMOOTH",
"256 410 OFFCURVE",
"208 453 OFFCURVE",
"208 515 CURVE"
);
}
);
};
layerId = "1252CFB8-7EB2-4C2F-9C11-14383990C0AA";
paths = (
{
closed = 1;
nodes = (
"315 -22 OFFCURVE",
"435 53 OFFCURVE",
"435 182 CURVE SMOOTH",
"435 270 OFFCURVE",
"374 321 OFFCURVE",
"314 367 CURVE SMOOTH",
"262 407 OFFCURVE",
"208 451 OFFCURVE",
"208 515 CURVE SMOOTH",
"208 576 OFFCURVE",
"255 617 OFFCURVE",
"321 617 CURVE SMOOTH",
"380 617 OFFCURVE",
"405 591 OFFCURVE",
"405 551 CURVE SMOOTH",
"405 522 OFFCURVE",
"387 496 OFFCURVE",
"370 489 CURVE",
"375 474 OFFCURVE",
"394 464 OFFCURVE",
"421 464 CURVE SMOOTH",
"469 464 OFFCURVE",
"504 509 OFFCURVE",
"504 570 CURVE SMOOTH",
"504 634 OFFCURVE",
"446 680 OFFCURVE",
"349 680 CURVE SMOOTH",
"226 680 OFFCURVE",
"120 610 OFFCURVE",
"120 487 CURVE SMOOTH",
"120 396 OFFCURVE",
"185 347 OFFCURVE",
"247 298 CURVE SMOOTH",
"296 258 OFFCURVE",
"344 216 OFFCURVE",
"344 158 CURVE SMOOTH",
"344 84 OFFCURVE",
"281 40 OFFCURVE",
"212 40 CURVE SMOOTH",
"155 40 OFFCURVE",
"107 60 OFFCURVE",
"107 111 CURVE SMOOTH",
"107 149 OFFCURVE",
"128 164 OFFCURVE",
"154 164 CURVE SMOOTH",
"159 164 OFFCURVE",
"166 164 OFFCURVE",
"172 162 CURVE",
"173 169 OFFCURVE",
"175 177 OFFCURVE",
"175 184 CURVE SMOOTH",
"175 215 OFFCURVE",
"154 237 OFFCURVE",
"114 237 CURVE SMOOTH",
"58 237 OFFCURVE",
"11 194 OFFCURVE",
"11 119 CURVE SMOOTH",
"11 30 OFFCURVE",
"83 -22 OFFCURVE",
"200 -22 CURVE SMOOTH"
);
}
);
width = 487;
},
{
anchors = (
{
name = bottom;
position = "{214, 0}";
},
{
name = top;
position = "{317, 660}";
}
);
associatedMasterId = "1252CFB8-7EB2-4C2F-9C11-14383990C0AA";
layerId = "007D2B47-E369-49E1-BFEF-4BB30A1C76FB";
name = "Jan 14 20, 11:39";
paths = (
{
closed = 0;
nodes = (
"120 487 LINE",
"120 394 OFFCURVE",
"190 344 OFFCURVE",
"250 297 CURVE SMOOTH",
"301 255 OFFCURVE",
"348 214 OFFCURVE",
"348 158 CURVE"
);
},
{
closed = 0;
nodes = (
"433 182 LINE",
"433 272 OFFCURVE",
"367 323 OFFCURVE",
"310 368 CURVE SMOOTH",
"256 410 OFFCURVE",
"208 453 OFFCURVE",
"208 515 CURVE"
);
}
);
width = 487;
},
{
anchors = (
{
name = bottom;
position = "{226, 0}";
},
{
name = top;
position = "{383, 696}";
}
);
hints = (
{
horizontal = 1;
place = "{-24, 81.6}";
type = Stem;
},
{
horizontal = 1;
place = "{740.4, 75.6}";
type = Stem;
},
{
place = "{-2.4, 205.2}";
type = Stem;
},
{
place = "{500.4, 196.8}";
type = Stem;
},
{
place = "{75.6, 236.4}";
type = Stem;
},
{
place = "{388.8, 242.4}";
type = Stem;
},
{
horizontal = 1;
place = "{-24, 81.6}";
type = Stem;
},
{
horizontal = 1;
place = "{740.4, 75.6}";
type = Stem;
},
{
place = "{-2.4, 205.2}";
type = Stem;
},
{
place = "{500.4, 196.8}";
type = Stem;
},
{
place = "{75.6, 236.4}";
type = Stem;
},
{
place = "{388.8, 242.4}";
type = Stem;
},
{
horizontal = 1;
place = "{-24, 81.6}";
type = Stem;
},
{
horizontal = 1;
place = "{740.4, 75.6}";
type = Stem;
},
{
place = "{-2.4, 205.2}";
type = Stem;
},
{
place = "{500.4, 196.8}";
type = Stem;
},
{
place = "{75.6, 236.4}";
type = Stem;
},
{
place = "{388.8, 242.4}";
type = Stem;
},
{
horizontal = 1;
place = "{-24, 81.6}";
type = Stem;
},
{
horizontal = 1;
place = "{740.4, 75.6}";
type = Stem;
},
{
place = "{-2.4, 205.2}";
type = Stem;
},
{
place = "{500.4, 196.8}";
type = Stem;
},
{
place = "{75.6, 236.4}";
type = Stem;
},
{
place = "{388.8, 242.4}";
type = Stem;
}
);
layerId = "E87290C6-23CF-4B1A-9291-A4CEFD7391A8";
paths = (
{
closed = 1;
nodes = (
"371 -20 OFFCURVE",
"550 61 OFFCURVE",
"550 225 CURVE SMOOTH",
"550 323 OFFCURVE",
"492 375 OFFCURVE",
"432 417 CURVE SMOOTH",
"366 462 OFFCURVE",
"302 493 OFFCURVE",
"302 552 CURVE SMOOTH",
"302 593 OFFCURVE",
"329 617 OFFCURVE",
"359 617 CURVE SMOOTH",
"408 617 OFFCURVE",
"421 584 OFFCURVE",
"421 539 CURVE SMOOTH",
"421 518 OFFCURVE",
"417 492 OFFCURVE",
"408 463 CURVE",
"428 458 OFFCURVE",
"449 456 OFFCURVE",
"468 456 CURVE SMOOTH",
"530 456 OFFCURVE",
"596 487 OFFCURVE",
"596 564 CURVE SMOOTH",
"596 654 OFFCURVE",
"492 680 OFFCURVE",
"378 680 CURVE SMOOTH",
"237 680 OFFCURVE",
"79 611 OFFCURVE",
"79 480 CURVE SMOOTH",
"79 403 OFFCURVE",
"127 355 OFFCURVE",
"181 315 CURVE SMOOTH",
"250 263 OFFCURVE",
"326 220 OFFCURVE",
"326 138 CURVE SMOOTH",
"326 71 OFFCURVE",
"285 50 OFFCURVE",
"248 50 CURVE SMOOTH",
"197 50 OFFCURVE",
"179 86 OFFCURVE",
"179 116 CURVE SMOOTH",
"179 144 OFFCURVE",
"198 174 OFFCURVE",
"231 174 CURVE SMOOTH",
"242 174 OFFCURVE",
"252 171 OFFCURVE",
"263 167 CURVE",
"265 175 OFFCURVE",
"266 183 OFFCURVE",
"266 190 CURVE SMOOTH",
"266 251 OFFCURVE",
"207 295 OFFCURVE",
"137 295 CURVE SMOOTH",
"47 295 OFFCURVE",
"-5 223 OFFCURVE",
"-5 153 CURVE SMOOTH",
"-5 73 OFFCURVE",
"59 -20 OFFCURVE",
"218 -20 CURVE SMOOTH"
);
}
);
width = 599;
}
);
leftKerningGroup = S;
note = S;
rightKerningGroup = S;
unicode = 0053;
},
{
glyphname = Germandbls;
layers = (
{
background = {
paths = (
{
closed = 1;
nodes = (
"24 0 LINE",
"128 46 LINE",
"183 332 LINE SMOOTH",
"217 509 OFFCURVE",
"272 619 OFFCURVE",
"414 619 CURVE SMOOTH",
"459 619 OFFCURVE",
"498 609 OFFCURVE",
"540 581 CURVE",
"404 506 OFFCURVE",
"384 442 OFFCURVE",
"384 395 CURVE SMOOTH",
"384 261 OFFCURVE",
"564 241 OFFCURVE",
"564 130 CURVE SMOOTH",
"564 63 OFFCURVE",
"500 42 OFFCURVE",
"452 42 CURVE SMOOTH",
"403 42 OFFCURVE",
"365 65 OFFCURVE",
"365 114 CURVE SMOOTH",
"365 132 OFFCURVE",
"371 167 OFFCURVE",
"381 189 CURVE",
"370 197 OFFCURVE",
"351 202 OFFCURVE",
"332 202 CURVE SMOOTH",
"288 202 OFFCURVE",
"243 176 OFFCURVE",
"243 113 CURVE SMOOTH",
"243 27 OFFCURVE",
"327 -22 OFFCURVE",
"432 -22 CURVE SMOOTH",
"550 -22 OFFCURVE",
"658 39 OFFCURVE",
"658 152 CURVE SMOOTH",
"658 298 OFFCURVE",
"477 326 OFFCURVE",
"477 412 CURVE SMOOTH",
"477 442 OFFCURVE",
"488 503 OFFCURVE",
"675 580 CURVE",
"627 640 OFFCURVE",
"547 680 OFFCURVE",
"433 680 CURVE SMOOTH",
"250 680 OFFCURVE",
"137 578 OFFCURVE",
"88 330 CURVE SMOOTH"
);
},
{
closed = 1;
nodes = (
"79 -153 OFFCURVE",
"107 -66 OFFCURVE",
"129 52 CURVE",
"29 27 LINE",
"24 2 OFFCURVE",
"6 -96 OFFCURVE",
"-48 -117 CURVE",
"-38 -141 OFFCURVE",
"-16 -153 OFFCURVE",
"7 -153 CURVE SMOOTH"
);
}
);
};
layerId = "1252CFB8-7EB2-4C2F-9C11-14383990C0AA";
paths = (
{
closed = 1;
nodes = (
"559 -22 OFFCURVE",
"658 39 OFFCURVE",
"658 152 CURVE SMOOTH",
"658 298 OFFCURVE",
"477 326 OFFCURVE",
"477 412 CURVE SMOOTH",
"477 442 OFFCURVE",
"488 503 OFFCURVE",
"675 580 CURVE",
"627 640 OFFCURVE",
"547 680 OFFCURVE",
"433 680 CURVE SMOOTH",
"250 680 OFFCURVE",
"137 578 OFFCURVE",
"88 330 CURVE SMOOTH",
"30 32 LINE",
"126 34 LINE",
"183 332 LINE SMOOTH",
"217 509 OFFCURVE",
"272 619 OFFCURVE",
"414 619 CURVE SMOOTH",
"459 619 OFFCURVE",
"498 609 OFFCURVE",
"540 581 CURVE",
"404 506 OFFCURVE",
"384 442 OFFCURVE",
"384 395 CURVE SMOOTH",
"384 261 OFFCURVE",
"564 241 OFFCURVE",
"564 130 CURVE SMOOTH",
"564 63 OFFCURVE",
"508 40 OFFCURVE",
"461 40 CURVE SMOOTH",
"410 40 OFFCURVE",
"365 60 OFFCURVE",
"365 119 CURVE SMOOTH",
"365 142 OFFCURVE",
"371 167 OFFCURVE",
"384 184 CURVE",
"370 197 OFFCURVE",
"351 202 OFFCURVE",
"335 202 CURVE SMOOTH",
"300 202 OFFCURVE",
"258 176 OFFCURVE",
"258 113 CURVE SMOOTH",
"258 27 OFFCURVE",
"337 -22 OFFCURVE",
"445 -22 CURVE SMOOTH"
);
},
{
closed = 1;
nodes = (
"79 -153 OFFCURVE",
"106 -73 OFFCURVE",
"128 45 CURVE",
"32 42 LINE",
"24 2 OFFCURVE",
"6 -96 OFFCURVE",
"-48 -117 CURVE",
"-38 -141 OFFCURVE",
"-16 -153 OFFCURVE",
"7 -153 CURVE SMOOTH"
);
}
);
width = 714;
},
{
hints = (
{
horizontal = 1;
place = "{0, 21}";
target = up;
type = BottomGhost;
},
{
horizontal = 1;
place = "{760.8, 55.2}";
type = Stem;
},
{
place = "{439.2, 240}";
type = Stem;
},
{
horizontal = 1;
place = "{-24, 81.6}";
type = Stem;
},
{
place = "{319.2, 157.2}";
type = Stem;
},
{
place = "{615.6, 236.4}";
type = Stem;
},
{
horizontal = 1;
place = "{0, 214.8}";
type = Stem;
}
);
layerId = "E87290C6-23CF-4B1A-9291-A4CEFD7391A8";
paths = (
{
closed = 1;
nodes = (
"578 -20 OFFCURVE",
"720 68 OFFCURVE",
"720 214 CURVE SMOOTH",
"720 359 OFFCURVE",
"584 358 OFFCURVE",
"584 436 CURVE SMOOTH",
"584 525 OFFCURVE",
"754 587 OFFCURVE",
"740 581 CURVE",
"689 646 OFFCURVE",
"607 680 OFFCURVE",
"463 680 CURVE SMOOTH",
"281 680 OFFCURVE",
"102 628 OFFCURVE",
"44 331 CURVE SMOOTH",
"-23 -5 LINE",
"218 -1 LINE",
"292 373 LINE SMOOTH",
"327 535 OFFCURVE",
"378 637 OFFCURVE",
"473 637 CURVE SMOOTH",
"525 637 OFFCURVE",
"560 609 OFFCURVE",
"574 582 CURVE",
"475 532 OFFCURVE",
"362 456 OFFCURVE",
"362 336 CURVE SMOOTH",
"362 203 OFFCURVE",
"503 194 OFFCURVE",
"503 123 CURVE SMOOTH",
"503 105 OFFCURVE",
"492 50 OFFCURVE",
"439 50 CURVE SMOOTH",
"408 50 OFFCURVE",
"403 73 OFFCURVE",
"403 100 CURVE SMOOTH",
"403 122 OFFCURVE",
"408 141 OFFCURVE",
"414 162 CURVE",
"395 171 OFFCURVE",
"375 174 OFFCURVE",
"357 174 CURVE SMOOTH",
"298 174 OFFCURVE",
"268 132 OFFCURVE",
"268 82 CURVE SMOOTH",
"268 -9 OFFCURVE",
"366 -20 OFFCURVE",
"425 -20 CURVE SMOOTH"
);
},
{
closed = 1;
nodes = (
"162 -161 OFFCURVE",
"197 -105 OFFCURVE",
"222 16 CURVE",
"-21 5 LINE",
"-38 -83 OFFCURVE",
"-40 -94 OFFCURVE",
"-67 -106 CURVE",
"-64 -140 OFFCURVE",
"-8 -161 OFFCURVE",
"49 -161 CURVE SMOOTH"
);
}
);
width = 764;
}
);
note = uni1E9E;
unicode = 1E9E;
},
{
glyphname = Schwa;
layers = (
{
layerId = "1252CFB8-7EB2-4C2F-9C11-14383990C0AA";
paths = (
{
closed = 1;
nodes = (
"407 -26 OFFCURVE",
"518 226 OFFCURVE",
"518 444 CURVE SMOOTH",
"518 596 OFFCURVE",
"454 680 OFFCURVE",
"338 680 CURVE SMOOTH",
"209 680 OFFCURVE",
"138 600 OFFCURVE",
"136 533 CURVE SMOOTH",
"136 518 OFFCURVE",
"141 502 OFFCURVE",
"147 495 CURVE",
"177 557 OFFCURVE",
"239 601 OFFCURVE",
"311 601 CURVE SMOOTH",
"407 601 OFFCURVE",
"427 526 OFFCURVE",
"427 421 CURVE SMOOTH",
"427 399 OFFCURVE",
"424 375 OFFCURVE",
"420 341 CURVE",
"399 342 OFFCURVE",
"361 345 OFFCURVE",
"345 345 CURVE SMOOTH",
"199 347 OFFCURVE",
"55 274 OFFCURVE",
"55 122 CURVE SMOOTH",
"55 27 OFFCURVE",
"108 -26 OFFCURVE",
"205 -26 CURVE SMOOTH"
);
},
{
closed = 1;
nodes = (
"175 38 OFFCURVE",
"151 65 OFFCURVE",
"151 118 CURVE SMOOTH",
"151 234 OFFCURVE",
"234 287 OFFCURVE",
"413 287 CURVE",
"394 201 OFFCURVE",
"331 38 OFFCURVE",
"224 38 CURVE SMOOTH"
);
}
);
width = 561;
},
{
hints = (
{
horizontal = 1;
place = "{-31.2, 66}";
type = Stem;
},
{
horizontal = 1;
place = "{362.4, 54}";
type = Stem;
},
{
horizontal = 1;
place = "{633.6, 182.4}";
type = Stem;
},
{
place = "{-18, 208.8}";
type = Stem;
},
{
place = "{422.4, 258}";
type = Stem;
}
);
layerId = "E87290C6-23CF-4B1A-9291-A4CEFD7391A8";
paths = (
{
closed = 1;
nodes = (
"443 -26 OFFCURVE",
"577 167 OFFCURVE",
"577 391 CURVE SMOOTH",
"577 592 OFFCURVE",
"486 680 OFFCURVE",
"332 680 CURVE SMOOTH",
"201 680 OFFCURVE",
"59 616 OFFCURVE",
"59 495 CURVE SMOOTH",
"59 468 OFFCURVE",
"67 449 OFFCURVE",
"88 434 CURVE",
"122 487 OFFCURVE",
"192 513 OFFCURVE",
"247 513 CURVE SMOOTH",
"313 513 OFFCURVE",
"337 476 OFFCURVE",
"337 405 CURVE SMOOTH",
"337 389 OFFCURVE",
"335 367 OFFCURVE",
"332 348 CURVE",
"311 348 OFFCURVE",
"295 347 OFFCURVE",
"274 346 CURVE SMOOTH",
"62 331 OFFCURVE",
"-29 250 OFFCURVE",
"-29 128 CURVE SMOOTH",
"-29 -3 OFFCURVE",
"68 -26 OFFCURVE",
"168 -26 CURVE SMOOTH"
);
},
{
closed = 1;
nodes = (
"167 27 OFFCURVE",
"161 59 OFFCURVE",
"161 102 CURVE SMOOTH",
"162 215 OFFCURVE",
"228 305 OFFCURVE",
"324 305 CURVE",
"290 91 OFFCURVE",
"240 27 OFFCURVE",
"198 27 CURVE SMOOTH"
);
}
);
width = 595;
}
);
note = uni018F;
rightKerningGroup = O;
unicode = 018F;
},
{
glyphname = T;
layers = (
{
anchors = (
{
name = bottom;
position = "{155, 0}";
},
{
name = center;
position = "{218, 366}";
},
{
name = top;
position = "{275, 660}";
}
);
background = {
paths = (
{
closed = 1;
nodes = (
"507 659 CURVE SMOOTH",
"452 659 OFFCURVE",
"376 660 OFFCURVE",
"275 660 CURVE SMOOTH",
"230 660 OFFCURVE",
"172 656 OFFCURVE",
"172 610 CURVE SMOOTH",
"172 593 OFFCURVE",
"179 575 OFFCURVE",
"189 564 CURVE",
"207 575 OFFCURVE",
"250 578 OFFCURVE",
"270 578 CURVE SMOOTH",
"334 578 LINE",
"233 65 LINE SMOOTH",
"232 59 OFFCURVE",
"232 56 OFFCURVE",
"232 36 CURVE SMOOTH",
"232 3 OFFCURVE",
"242 -20 OFFCURVE",
"281 -20 CURVE SMOOTH",
"303 -20 OFFCURVE",
"321 -14 OFFCURVE",
"339 2 CURVE",
"329 17 OFFCURVE",
"327 31 OFFCURVE",
"327 42 CURVE SMOOTH",
"327 55 OFFCURVE",
"330 73 OFFCURVE",
"331 80 CURVE SMOOTH",
"431 578 LINE",
"525 578 LINE SMOOTH",
"573 578 OFFCURVE",
"604 596 OFFCURVE",
"604 628 CURVE SMOOTH",
"604 638 OFFCURVE",
"602 649 OFFCURVE",
"596 662 CURVE",
"578 660 OFFCURVE",
"547 659 OFFCURVE"
);
},
{
closed = 1;
nodes = (
"168 397 OFFCURVE",
"183 400 OFFCURVE",
"196 406 CURVE",
"178 436 OFFCURVE",
"168 474 OFFCURVE",
"168 511 CURVE SMOOTH",
"168 595 OFFCURVE",
"209 660 OFFCURVE",
"310 660 CURVE SMOOTH",
"337 660 OFFCURVE",
"378 647 OFFCURVE",
"407 637 CURVE",
"409 633 LINE",
"472 610 OFFCURVE",
"522 585 OFFCURVE",
"589 585 CURVE SMOOTH",
"656 585 OFFCURVE",
"681 627 OFFCURVE",
"681 664 CURVE SMOOTH",
"681 680 OFFCURVE",
"675 695 OFFCURVE",
"666 707 CURVE",
"632 672 OFFCURVE",
"598 670 OFFCURVE",
"550 670 CURVE SMOOTH",
"462 670 OFFCURVE",
"382 703 OFFCURVE",
"286 703 CURVE SMOOTH",
"130 703 OFFCURVE",
"61 604 OFFCURVE",
"61 507 CURVE SMOOTH",
"61 434 OFFCURVE",
"101 397 OFFCURVE",
"154 397 CURVE SMOOTH"
);
},
{
closed = 1;
nodes = (
"307 -21 OFFCURVE",
"336 0 OFFCURVE",
"348 63 CURVE SMOOTH",
"463 644 LINE",
"387 644 OFFCURVE",
"359 602 OFFCURVE",
"342 516 CURVE SMOOTH",
"260 91 LINE SMOOTH",
"250 41 OFFCURVE",
"235 15 OFFCURVE",
"213 -1 CURVE",
"221 -15 OFFCURVE",
"241 -21 OFFCURVE",
"261 -21 CURVE SMOOTH"
);
}
);
};
layerId = "1252CFB8-7EB2-4C2F-9C11-14383990C0AA";
paths = (
{
closed = 1;
nodes = (
"158 397 OFFCURVE",
"176 400 OFFCURVE",
"189 405 CURVE",
"171 436 OFFCURVE",
"163 472 OFFCURVE",
"164 511 CURVE SMOOTH",
"166 605 OFFCURVE",
"216 660 OFFCURVE",
"297 660 CURVE SMOOTH",
"339 660 OFFCURVE",
"372 652 OFFCURVE",
"411 638 CURVE",
"412 635 LINE",
"493 605 OFFCURVE",
"541 585 OFFCURVE",
"590 585 CURVE SMOOTH",
"655 585 OFFCURVE",
"681 626 OFFCURVE",
"681 664 CURVE SMOOTH",
"681 679 OFFCURVE",
"676 694 OFFCURVE",
"669 704 CURVE",
"636 672 OFFCURVE",
"600 670 OFFCURVE",
"551 670 CURVE SMOOTH",
"461 670 OFFCURVE",
"377 703 OFFCURVE",
"273 703 CURVE SMOOTH",
"134 703 OFFCURVE",
"68 605 OFFCURVE",
"66 516 CURVE SMOOTH",
"64 441 OFFCURVE",
"95 397 OFFCURVE",
"146 397 CURVE SMOOTH"
);
},
{
closed = 1;
nodes = (
"307 -21 OFFCURVE",
"336 0 OFFCURVE",
"348 63 CURVE SMOOTH",
"463 644 LINE",
"387 644 OFFCURVE",
"359 602 OFFCURVE",
"342 516 CURVE SMOOTH",
"260 91 LINE SMOOTH",
"250 41 OFFCURVE",
"235 15 OFFCURVE",
"213 -1 CURVE",
"221 -15 OFFCURVE",
"241 -21 OFFCURVE",
"261 -21 CURVE SMOOTH"
);
}
);
width = 559;
},
{
anchors = (
{
name = bottom;
position = "{359, 0}";
},
{
name = center;
position = "{433, 282}";
},
{
name = top;
position = "{501, 696}";
}
);
hints = (
{
horizontal = 1;
place = "{-24, 21}";
target = up;
type = BottomGhost;
},
{
horizontal = 1;
place = "{648, 144}";
type = Stem;
},
{
place = "{92.4, 246}";
type = Stem;
},
{
horizontal = 1;
place = "{804, -20}";
target = down;
type = TopGhost;
}
);
layerId = "E87290C6-23CF-4B1A-9291-A4CEFD7391A8";
paths = (
{
closed = 1;
nodes = (
"194 353 OFFCURVE",
"228 363 OFFCURVE",
"249 388 CURVE",
"226 436 OFFCURVE",
"222 466 OFFCURVE",
"222 505 CURVE SMOOTH",
"221 585 OFFCURVE",
"264 624 OFFCURVE",
"327 624 CURVE SMOOTH",
"346 624 OFFCURVE",
"361 626 OFFCURVE",
"387 615 CURVE",
"389 604 LINE",
"443 562 OFFCURVE",
"527 489 OFFCURVE",
"660 489 CURVE SMOOTH",
"751 489 OFFCURVE",
"794 560 OFFCURVE",
"794 624 CURVE SMOOTH",
"794 666 OFFCURVE",
"778 704 OFFCURVE",
"746 723 CURVE",
"704 683 OFFCURVE",
"652 669 OFFCURVE",
"594 669 CURVE SMOOTH",
"498 669 OFFCURVE",
"399 704 OFFCURVE",
"272 704 CURVE SMOOTH",
"96 704 OFFCURVE",
"21 594 OFFCURVE",
"22 498 CURVE SMOOTH",
"22 424 OFFCURVE",
"70 353 OFFCURVE",
"170 353 CURVE SMOOTH"
);
},
{
closed = 1;
nodes = (
"419 -22 OFFCURVE",
"452 43 OFFCURVE",
"474 159 CURVE SMOOTH",
"566 663 LINE",
"405 644 OFFCURVE",
"319 574 OFFCURVE",
"294 439 CURVE SMOOTH",
"238 149 LINE SMOOTH",
"225 75 OFFCURVE",
"222 50 OFFCURVE",
"188 36 CURVE",
"191 1 OFFCURVE",
"243 -22 OFFCURVE",
"301 -22 CURVE SMOOTH"
);
}
);
width = 693;
}
);
leftKerningGroup = H;
note = T;
rightKerningGroup = T;
unicode = 0054;
},
{
glyphname = U;
layers = (
{
anchors = (
{
name = bottom;
position = "{411, 0}";
},
{
name = ogonek;
position = "{680, 0}";
},
{
name = top;
position = "{537, 660}";
},
{
name = topright;
position = "{598, 662}";
}
);
background = {
paths = (
{
closed = 1;
nodes = (
"245 137 LINE",
"245 37 OFFCURVE",
"300 -21 OFFCURVE",
"402 -21 CURVE SMOOTH",
"468 -21 OFFCURVE",
"526 16 OFFCURVE",
"567 70 CURVE",
"575 22 OFFCURVE",
"601 -22 OFFCURVE",
"651 -22 CURVE SMOOTH",
"676 -22 OFFCURVE",
"702 -6 OFFCURVE",
"708 22 CURVE",
"667 26 OFFCURVE",
"646 47 OFFCURVE",
"646 99 CURVE SMOOTH",
"646 119 OFFCURVE",
"649 145 OFFCURVE",
"660 201 CURVE SMOOTH",
"750 669 LINE",
"737 676 OFFCURVE",
"724 679 OFFCURVE",
"713 679 CURVE SMOOTH",
"678 679 OFFCURVE",
"652 649 OFFCURVE",
"644 604 CURVE SMOOTH",
"592 300 LINE SMOOTH",
"562 124 OFFCURVE",
"514 52 OFFCURVE",
"429 52 CURVE SMOOTH",
"372 52 OFFCURVE",
"339 88 OFFCURVE",
"339 143 CURVE"
);
},
{
closed = 1;
nodes = (
"339 143 LINE",
"339 239 OFFCURVE",
"405 469 OFFCURVE",
"405 576 CURVE SMOOTH",
"405 649 OFFCURVE",
"370 703 OFFCURVE",
"264 703 CURVE SMOOTH",
"118 703 OFFCURVE",
"49 604 OFFCURVE",
"49 507 CURVE SMOOTH",
"49 434 OFFCURVE",
"89 397 OFFCURVE",
"142 397 CURVE SMOOTH",
"156 397 OFFCURVE",
"171 400 OFFCURVE",
"184 406 CURVE",
"166 436 OFFCURVE",
"156 474 OFFCURVE",
"156 511 CURVE SMOOTH",
"156 595 OFFCURVE",
"197 655 OFFCURVE",
"253 655 CURVE SMOOTH",
"293 655 OFFCURVE",
"314 640 OFFCURVE",
"314 582 CURVE SMOOTH",
"314 484 OFFCURVE",
"245 246 OFFCURVE",
"245 137 CURVE"
);
}
);
};
layerId = "1252CFB8-7EB2-4C2F-9C11-14383990C0AA";
paths = (
{
closed = 1;
nodes = (
"468 -22 OFFCURVE",
"526 16 OFFCURVE",
"567 70 CURVE",
"575 22 OFFCURVE",
"601 -22 OFFCURVE",
"651 -22 CURVE SMOOTH",
"676 -22 OFFCURVE",
"702 -6 OFFCURVE",
"708 22 CURVE",
"667 26 OFFCURVE",
"646 47 OFFCURVE",
"646 99 CURVE SMOOTH",
"646 119 OFFCURVE",
"649 145 OFFCURVE",
"660 201 CURVE SMOOTH",
"750 669 LINE",
"737 676 OFFCURVE",
"724 679 OFFCURVE",
"713 679 CURVE SMOOTH",
"678 679 OFFCURVE",
"650 649 OFFCURVE",
"642 604 CURVE SMOOTH",
"590 300 LINE SMOOTH",
"560 124 OFFCURVE",
"512 52 OFFCURVE",
"429 52 CURVE SMOOTH",
"369 52 OFFCURVE",
"336 88 OFFCURVE",
"336 143 CURVE SMOOTH",
"336 252 OFFCURVE",
"426 450 OFFCURVE",
"426 571 CURVE SMOOTH",
"426 643 OFFCURVE",
"391 703 OFFCURVE",
"274 703 CURVE SMOOTH",
"133 703 OFFCURVE",
"65 606 OFFCURVE",
"65 507 CURVE SMOOTH",
"65 439 OFFCURVE",
"99 397 OFFCURVE",
"152 397 CURVE SMOOTH",
"166 397 OFFCURVE",
"177 400 OFFCURVE",
"189 405 CURVE",
"170 437 OFFCURVE",
"160 474 OFFCURVE",
"160 511 CURVE SMOOTH",
"160 596 OFFCURVE",
"203 655 OFFCURVE",
"266 655 CURVE SMOOTH",
"312 655 OFFCURVE",
"339 635 OFFCURVE",
"339 577 CURVE SMOOTH",
"339 458 OFFCURVE",
"246 259 OFFCURVE",
"246 137 CURVE SMOOTH",
"246 37 OFFCURVE",
"301 -22 OFFCURVE",
"402 -22 CURVE SMOOTH"
);
}
);
width = 755;
},
{
anchors = (
{
name = bottom;
position = "{417, 0}";
},
{
name = ogonek;
position = "{686, 0}";
},
{
name = top;
position = "{543, 660}";
},
{
name = topright;
position = "{604, 662}";
}
);
associatedMasterId = "1252CFB8-7EB2-4C2F-9C11-14383990C0AA";
background = {
paths = (
{
closed = 1;
nodes = (
"251 137 LINE",
"251 37 OFFCURVE",
"306 -21 OFFCURVE",
"408 -21 CURVE SMOOTH",
"474 -21 OFFCURVE",
"532 16 OFFCURVE",
"573 70 CURVE",
"581 22 OFFCURVE",
"607 -22 OFFCURVE",
"657 -22 CURVE SMOOTH",
"682 -22 OFFCURVE",
"708 -6 OFFCURVE",
"714 22 CURVE",
"673 26 OFFCURVE",
"652 47 OFFCURVE",
"652 99 CURVE SMOOTH",
"652 119 OFFCURVE",
"655 145 OFFCURVE",
"666 201 CURVE SMOOTH",
"756 669 LINE",
"743 676 OFFCURVE",
"730 679 OFFCURVE",
"719 679 CURVE SMOOTH",
"684 679 OFFCURVE",
"658 649 OFFCURVE",
"650 604 CURVE SMOOTH",
"598 300 LINE SMOOTH",
"568 124 OFFCURVE",
"520 52 OFFCURVE",
"435 52 CURVE SMOOTH",
"378 52 OFFCURVE",
"345 88 OFFCURVE",
"345 143 CURVE"
);
},
{
closed = 1;
nodes = (
"345 143 LINE",
"345 239 OFFCURVE",
"411 469 OFFCURVE",
"411 576 CURVE SMOOTH",
"411 649 OFFCURVE",
"376 703 OFFCURVE",
"270 703 CURVE SMOOTH",
"124 703 OFFCURVE",
"55 604 OFFCURVE",
"55 507 CURVE SMOOTH",
"55 434 OFFCURVE",
"95 397 OFFCURVE",
"148 397 CURVE SMOOTH",
"162 397 OFFCURVE",
"177 400 OFFCURVE",
"190 406 CURVE",
"172 436 OFFCURVE",
"162 474 OFFCURVE",
"162 511 CURVE SMOOTH",
"162 595 OFFCURVE",
"203 655 OFFCURVE",
"259 655 CURVE SMOOTH",
"299 655 OFFCURVE",
"320 640 OFFCURVE",
"320 582 CURVE SMOOTH",
"320 484 OFFCURVE",
"251 246 OFFCURVE",
"251 137 CURVE"
);
}
);
};
layerId = "09272C18-0EF0-4919-9E96-DD20960D3829";
name = " ";
paths = (
{
closed = 0;
nodes = (
"280 703 LINE",
"139 703 OFFCURVE",
"71 606 OFFCURVE",
"71 507 CURVE SMOOTH",
"71 439 OFFCURVE",
"105 397 OFFCURVE",
"158 397 CURVE SMOOTH",
"172 397 OFFCURVE",
"183 400 OFFCURVE",
"195 405 CURVE",
"176 437 OFFCURVE",
"166 474 OFFCURVE",
"166 511 CURVE SMOOTH",
"166 596 OFFCURVE",
"209 655 OFFCURVE",
"272 655 CURVE"
);
}
);
width = 761;
},
{
anchors = (
{
name = bottom;
position = "{496, 0}";
},
{
name = ogonek;
position = "{806, 0}";
},
{
name = top;
position = "{659, 696}";
},
{
name = topright;
position = "{825, 661}";
}
);
hints = (
{
horizontal = 1;
place = "{-24, 110.4}";
type = Stem;
},
{
horizontal = 1;
place = "{792, -20}";
target = down;
type = TopGhost;
},
{
place = "{31.2, 265.2}";
type = Stem;
}
);
layerId = "E87290C6-23CF-4B1A-9291-A4CEFD7391A8";
paths = (
{
closed = 1;
nodes = (
"510 -20 OFFCURVE",
"598 6 OFFCURVE",
"652 66 CURVE",
"663 3 OFFCURVE",
"711 -20 OFFCURVE",
"763 -20 CURVE SMOOTH",
"816 -20 OFFCURVE",
"876 5 OFFCURVE",
"913 45 CURVE",
"876 52 OFFCURVE",
"866 87 OFFCURVE",
"866 124 CURVE SMOOTH",
"866 141 OFFCURVE",
"869 157 OFFCURVE",
"870 167 CURVE SMOOTH",
"964 661 LINE",
"928 671 OFFCURVE",
"894 678 OFFCURVE",
"864 678 CURVE SMOOTH",
"782 678 OFFCURVE",
"726 635 OFFCURVE",
"706 524 CURVE SMOOTH",
"648 208 LINE SMOOTH",
"638 159 OFFCURVE",
"590 84 OFFCURVE",
"532 84 CURVE SMOOTH",
"512 84 OFFCURVE",
"486 107 OFFCURVE",
"486 154 CURVE SMOOTH",
"486 270 OFFCURVE",
"560 432 OFFCURVE",
"560 551 CURVE SMOOTH",
"560 673 OFFCURVE",
"452 721 OFFCURVE",
"335 721 CURVE SMOOTH",
"137 721 OFFCURVE",
"48 600 OFFCURVE",
"48 500 CURVE SMOOTH",
"48 423 OFFCURVE",
"99 353 OFFCURVE",
"194 353 CURVE SMOOTH",
"218 353 OFFCURVE",
"253 363 OFFCURVE",
"274 388 CURVE",
"252 436 OFFCURVE",
"248 466 OFFCURVE",
"248 505 CURVE SMOOTH",
"248 586 OFFCURVE",
"271 641 OFFCURVE",
"309 641 CURVE SMOOTH",
"332 641 OFFCURVE",
"347 625 OFFCURVE",
"347 583 CURVE SMOOTH",
"347 463 OFFCURVE",
"257 275 OFFCURVE",
"257 148 CURVE SMOOTH",
"257 35 OFFCURVE",
"333 -20 OFFCURVE",
"434 -20 CURVE SMOOTH"
);
}
);
width = 991;
}
);
leftKerningGroup = H;
note = U;
rightKerningGroup = U;
unicode = 0055;
},
{
glyphname = Uhorn;
layers = (
{
anchors = (
{
name = bottom;
position = "{399, 0}";
},
{
name = ogonek;
position = "{682, 0}";
},
{
name = top;
position = "{523, 690}";
},
{
name = topright;
position = "{535, 661}";
}
);
background = {
paths = (
{
closed = 1;
nodes = (
"682 -22 OFFCURVE",
"708 -6 OFFCURVE",
"714 22 CURVE",
"673 26 OFFCURVE",
"652 47 OFFCURVE",
"652 99 CURVE SMOOTH",
"652 119 OFFCURVE",
"655 145 OFFCURVE",
"666 201 CURVE SMOOTH",
"754 660 LINE",
"660 660 LINE",
"598 300 LINE SMOOTH",
"568 124 OFFCURVE",
"520 52 OFFCURVE",
"435 52 CURVE SMOOTH",
"378 52 OFFCURVE",
"345 88 OFFCURVE",
"345 143 CURVE SMOOTH",
"345 239 OFFCURVE",
"421 469 OFFCURVE",
"421 576 CURVE SMOOTH",
"421 649 OFFCURVE",
"386 703 OFFCURVE",
"280 703 CURVE SMOOTH",
"134 703 OFFCURVE",
"65 604 OFFCURVE",
"65 507 CURVE SMOOTH",
"65 434 OFFCURVE",
"105 397 OFFCURVE",
"158 397 CURVE SMOOTH",
"172 397 OFFCURVE",
"187 400 OFFCURVE",
"200 406 CURVE",
"182 436 OFFCURVE",
"172 474 OFFCURVE",
"172 511 CURVE SMOOTH",
"172 595 OFFCURVE",
"213 655 OFFCURVE",
"269 655 CURVE SMOOTH",
"309 655 OFFCURVE",
"330 640 OFFCURVE",
"330 582 CURVE SMOOTH",
"330 484 OFFCURVE",
"251 246 OFFCURVE",
"251 137 CURVE SMOOTH",
"251 37 OFFCURVE",
"306 -21 OFFCURVE",
"408 -21 CURVE SMOOTH",
"474 -21 OFFCURVE",
"532 16 OFFCURVE",
"573 70 CURVE",
"581 22 OFFCURVE",
"607 -22 OFFCURVE",
"657 -22 CURVE SMOOTH"
);
}
);
};
layerId = "1252CFB8-7EB2-4C2F-9C11-14383990C0AA";
paths = (
{
closed = 1;
nodes = (
"468 -22 OFFCURVE",
"526 16 OFFCURVE",
"567 70 CURVE",
"575 22 OFFCURVE",
"601 -22 OFFCURVE",
"651 -22 CURVE SMOOTH",
"676 -22 OFFCURVE",
"702 -6 OFFCURVE",
"708 22 CURVE",
"667 26 OFFCURVE",
"646 47 OFFCURVE",
"646 99 CURVE SMOOTH",
"646 119 OFFCURVE",
"649 145 OFFCURVE",
"660 201 CURVE SMOOTH",
"748 660 LINE",
"652 660 LINE",
"590 300 LINE SMOOTH",
"560 124 OFFCURVE",
"512 52 OFFCURVE",
"429 52 CURVE SMOOTH",
"369 52 OFFCURVE",
"336 88 OFFCURVE",
"336 143 CURVE SMOOTH",
"336 252 OFFCURVE",
"426 450 OFFCURVE",
"426 571 CURVE SMOOTH",
"426 643 OFFCURVE",
"391 703 OFFCURVE",
"274 703 CURVE SMOOTH",
"133 703 OFFCURVE",
"65 606 OFFCURVE",
"65 507 CURVE SMOOTH",
"65 439 OFFCURVE",
"99 397 OFFCURVE",
"152 397 CURVE SMOOTH",
"166 397 OFFCURVE",
"177 400 OFFCURVE",
"189 405 CURVE",
"170 437 OFFCURVE",
"160 474 OFFCURVE",
"160 511 CURVE SMOOTH",
"160 596 OFFCURVE",
"203 655 OFFCURVE",
"266 655 CURVE SMOOTH",
"312 655 OFFCURVE",
"339 635 OFFCURVE",
"339 577 CURVE SMOOTH",
"339 458 OFFCURVE",
"246 259 OFFCURVE",
"246 137 CURVE SMOOTH",
"246 37 OFFCURVE",
"301 -22 OFFCURVE",
"402 -22 CURVE SMOOTH"
);
},
{
closed = 1;
nodes = (
"831 618 OFFCURVE",
"892 684 OFFCURVE",
"892 747 CURVE SMOOTH",
"892 773 OFFCURVE",
"876 794 OFFCURVE",
"839 794 CURVE SMOOTH",
"813 794 OFFCURVE",
"796 781 OFFCURVE",
"790 769 CURVE",
"800 756 OFFCURVE",
"806 744 OFFCURVE",
"806 727 CURVE SMOOTH",
"806 668 OFFCURVE",
"753 660 OFFCURVE",
"694 660 CURVE",
"689 628 LINE",
"702 622 OFFCURVE",
"725 618 OFFCURVE",
"751 618 CURVE SMOOTH"
);
}
);
width = 761;
},
{
anchors = (
{
name = bottom;
position = "{517, 0}";
},
{
name = ogonek;
position = "{806, 0}";
},
{
name = top;
position = "{673, 690}";
},
{
name = topright;
position = "{704, 661}";
}
);
hints = (
{
horizontal = 1;
place = "{-24, 110.4}";
type = Stem;
},
{
horizontal = 1;
place = "{792, -20}";
target = down;
type = TopGhost;
},
{
place = "{31.2, 265.2}";
type = Stem;
},
{
horizontal = 1;
place = "{-24, 110.4}";
type = Stem;
},
{
horizontal = 1;
place = "{792, -20}";
target = down;
type = TopGhost;
},
{
place = "{31.2, 265.2}";
type = Stem;
}
);
layerId = "E87290C6-23CF-4B1A-9291-A4CEFD7391A8";
paths = (
{
closed = 1;
nodes = (
"510 -20 OFFCURVE",
"598 6 OFFCURVE",
"652 66 CURVE",
"663 3 OFFCURVE",
"711 -20 OFFCURVE",
"763 -20 CURVE SMOOTH",
"816 -20 OFFCURVE",
"876 5 OFFCURVE",
"913 45 CURVE",
"876 52 OFFCURVE",
"866 87 OFFCURVE",
"866 124 CURVE SMOOTH",
"866 141 OFFCURVE",
"869 157 OFFCURVE",
"870 167 CURVE SMOOTH",
"964 660 LINE",
"730 660 LINE",
"648 208 LINE SMOOTH",
"638 159 OFFCURVE",
"590 84 OFFCURVE",
"532 84 CURVE SMOOTH",
"512 84 OFFCURVE",
"486 107 OFFCURVE",
"486 154 CURVE SMOOTH",
"486 270 OFFCURVE",
"560 432 OFFCURVE",
"560 551 CURVE SMOOTH",
"560 673 OFFCURVE",
"452 721 OFFCURVE",
"335 721 CURVE SMOOTH",
"137 721 OFFCURVE",
"48 600 OFFCURVE",
"48 500 CURVE SMOOTH",
"48 423 OFFCURVE",
"99 353 OFFCURVE",
"194 353 CURVE SMOOTH",
"218 353 OFFCURVE",
"253 363 OFFCURVE",
"274 388 CURVE",
"252 436 OFFCURVE",
"248 466 OFFCURVE",
"248 505 CURVE SMOOTH",
"248 586 OFFCURVE",
"271 641 OFFCURVE",
"309 641 CURVE SMOOTH",
"332 641 OFFCURVE",
"347 625 OFFCURVE",
"347 583 CURVE SMOOTH",
"347 463 OFFCURVE",
"257 275 OFFCURVE",
"257 148 CURVE SMOOTH",
"257 35 OFFCURVE",
"333 -20 OFFCURVE",
"434 -20 CURVE SMOOTH"
);
},
{
closed = 1;
nodes = (
"1053 596 OFFCURVE",
"1124 668 OFFCURVE",
"1124 749 CURVE SMOOTH",
"1124 791 OFFCURVE",
"1097 808 OFFCURVE",
"1059 808 CURVE SMOOTH",
"1033 808 OFFCURVE",
"1002 798 OFFCURVE",
"981 774 CURVE",
"991 764 OFFCURVE",
"994 750 OFFCURVE",
"994 734 CURVE SMOOTH",
"994 686 OFFCURVE",
"957 660 OFFCURVE",
"896 660 CURVE",
"856 620 LINE",
"876 608 OFFCURVE",
"917 596 OFFCURVE",
"948 596 CURVE SMOOTH"
);
}
);
width = 990;
}
);
leftKerningGroup = H;
rightKerningGroup = U;
unicode = 01AF;
},
{
glyphname = V;
layers = (
{
layerId = "1252CFB8-7EB2-4C2F-9C11-14383990C0AA";
paths = (
{
closed = 1;
nodes = (
"307 -11 OFFCURVE",
"533 384 OFFCURVE",
"540 631 CURVE SMOOTH",
"542 707 OFFCURVE",
"522 740 OFFCURVE",
"477 740 CURVE SMOOTH",
"454 740 OFFCURVE",
"428 723 OFFCURVE",
"418 699 CURVE",
"432 675 OFFCURVE",
"445 645 OFFCURVE",
"441 564 CURVE SMOOTH",
"433 413 OFFCURVE",
"312 135 OFFCURVE",
"174 80 CURVE",
"170 80 LINE",
"177 147 OFFCURVE",
"184 222 OFFCURVE",
"187 295 CURVE SMOOTH",
"195 543 OFFCURVE",
"160 680 OFFCURVE",
"91 680 CURVE SMOOTH",
"66 680 OFFCURVE",
"38 664 OFFCURVE",
"20 643 CURVE",
"60 605 OFFCURVE",
"111 529 OFFCURVE",
"100 229 CURVE SMOOTH",
"98 159 OFFCURVE",
"93 89 OFFCURVE",
"84 -8 CURVE",
"88 -10 OFFCURVE",
"100 -11 OFFCURVE",
"109 -11 CURVE SMOOTH"
);
}
);
width = 524;
},
{
hints = (
{
horizontal = 1;
place = "{0, 21}";
target = up;
type = BottomGhost;
},
{
horizontal = 1;
place = "{816, -20}";
target = down;
type = TopGhost;
},
{
place = "{8.4, 751.2}";
type = Stem;
},
{
horizontal = 1;
place = "{0, 147.6}";
type = Stem;
},
{
horizontal = 1;
place = "{792, -20}";
target = down;
type = TopGhost;
}
);
layerId = "E87290C6-23CF-4B1A-9291-A4CEFD7391A8";
paths = (
{
closed = 1;
nodes = (
"425 -9 OFFCURVE",
"654 403 OFFCURVE",
"653 609 CURVE SMOOTH",
"652 685 OFFCURVE",
"622 740 OFFCURVE",
"551 740 CURVE SMOOTH",
"506 740 OFFCURVE",
"457 713 OFFCURVE",
"440 667 CURVE",
"481 626 OFFCURVE",
"498 565 OFFCURVE",
"499 506 CURVE SMOOTH",
"500 364 OFFCURVE",
"419 202 OFFCURVE",
"293 132 CURVE",
"291 132 LINE",
"303 245 OFFCURVE",
"314 354 OFFCURVE",
"313 445 CURVE SMOOTH",
"311 578 OFFCURVE",
"280 680 OFFCURVE",
"147 680 CURVE SMOOTH",
"85 680 OFFCURVE",
"25 647 OFFCURVE",
"4 615 CURVE",
"54 577 OFFCURVE",
"93 517 OFFCURVE",
"95 237 CURVE SMOOTH",
"96 172 OFFCURVE",
"94 93 OFFCURVE",
"90 2 CURVE",
"114 -5 OFFCURVE",
"137 -9 OFFCURVE",
"161 -9 CURVE SMOOTH"
);
}
);
width = 626;
}
);
leftKerningGroup = V;
note = V;
rightKerningGroup = V;
unicode = 0056;
},
{
glyphname = W;
layers = (
{
anchors = (
{
name = top;
position = "{422, 690}";
}
);
background = {
paths = (
{
closed = 1;
nodes = (
"108 -11 OFFCURVE",
"118 -11 CURVE SMOOTH",
"306 -11 OFFCURVE",
"463 287 OFFCURVE",
"463 517 CURVE SMOOTH",
"463 542 OFFCURVE",
"461 567 OFFCURVE",
"457 591 CURVE SMOOTH",
"444 666 OFFCURVE",
"412 681 OFFCURVE",
"378 681 CURVE SMOOTH",
"350 681 OFFCURVE",
"324 662 OFFCURVE",
"315 628 CURVE",
"348 577 OFFCURVE",
"363 510 OFFCURVE",
"363 439 CURVE SMOOTH",
"363 291 OFFCURVE",
"295 128 OFFCURVE",
"178 80 CURVE",
"183 147 OFFCURVE",
"187 222 OFFCURVE",
"187 295 CURVE SMOOTH",
"187 492 OFFCURVE",
"161 680 OFFCURVE",
"75 680 CURVE SMOOTH",
"48 680 OFFCURVE",
"20 663 OFFCURVE",
"3 643 CURVE",
"44 606 OFFCURVE",
"97 530 OFFCURVE",
"97 229 CURVE SMOOTH",
"97 159 OFFCURVE",
"95 89 OFFCURVE",
"89 -9 CURVE",
"99 -11 OFFCURVE"
);
},
{
closed = 1;
nodes = (
"377 489 LINE",
"386 448 OFFCURVE",
"390 378 OFFCURVE",
"390 299 CURVE SMOOTH",
"390 201 OFFCURVE",
"384 88 OFFCURVE",
"372 -9 CURVE",
"384 -11 OFFCURVE",
"395 -12 OFFCURVE",
"407 -12 CURVE SMOOTH",
"634 -12 OFFCURVE",
"782 357 OFFCURVE",
"782 572 CURVE SMOOTH",
"782 661 OFFCURVE",
"757 724 OFFCURVE",
"702 724 CURVE SMOOTH",
"674 724 OFFCURVE",
"649 707 OFFCURVE",
"637 660 CURVE",
"667 618 OFFCURVE",
"681 561 OFFCURVE",
"681 498 CURVE SMOOTH",
"681 331 OFFCURVE",
"587 126 OFFCURVE",
"461 80 CURVE",
"474 172 OFFCURVE",
"487 269 OFFCURVE",
"487 366 CURVE SMOOTH",
"487 466 OFFCURVE",
"473 566 OFFCURVE",
"430 660 CURVE"
);
}
);
};
layerId = "1252CFB8-7EB2-4C2F-9C11-14383990C0AA";
paths = (
{
closed = 1;
nodes = (
"205 -12 OFFCURVE",
"329 88 OFFCURVE",
"399 213 CURVE",
"405 213 LINE",
"393 141 OFFCURVE",
"384 63 OFFCURVE",
"372 -9 CURVE",
"374 -10 OFFCURVE",
"380 -12 OFFCURVE",
"388 -12 CURVE SMOOTH",
"624 -12 OFFCURVE",
"822 401 OFFCURVE",
"822 633 CURVE SMOOTH",
"822 699 OFFCURVE",
"800 738 OFFCURVE",
"762 738 CURVE SMOOTH",
"735 738 OFFCURVE",
"705 720 OFFCURVE",
"694 694 CURVE",
"713 664 OFFCURVE",
"722 625 OFFCURVE",
"722 575 CURVE SMOOTH",
"722 395 OFFCURVE",
"597 130 OFFCURVE",
"462 78 CURVE",
"458 78 LINE",
"476 193 OFFCURVE",
"495 361 OFFCURVE",
"495 468 CURVE SMOOTH",
"495 608 OFFCURVE",
"469 681 OFFCURVE",
"422 681 CURVE SMOOTH",
"395 681 OFFCURVE",
"374 661 OFFCURVE",
"361 645 CURVE",
"392 594 OFFCURVE",
"407 537 OFFCURVE",
"407 466 CURVE SMOOTH",
"406 301 OFFCURVE",
"307 144 OFFCURVE",
"164 80 CURVE",
"160 80 LINE",
"173 178 OFFCURVE",
"183 306 OFFCURVE",
"183 399 CURVE SMOOTH",
"183 582 OFFCURVE",
"150 680 OFFCURVE",
"92 680 CURVE SMOOTH",
"67 680 OFFCURVE",
"39 664 OFFCURVE",
"20 643 CURVE",
"55 610 OFFCURVE",
"96 549 OFFCURVE",
"96 338 CURVE SMOOTH",
"96 247 OFFCURVE",
"85 101 OFFCURVE",
"73 -9 CURVE",
"76 -10 OFFCURVE",
"84 -12 OFFCURVE",
"94 -12 CURVE SMOOTH"
);
}
);
width = 808;
},
{
anchors = (
{
name = top;
position = "{565, 690}";
}
);
hints = (
{
horizontal = 1;
place = "{-7.2, 140.4}";
type = Stem;
},
{
horizontal = 1;
place = "{808.8, -20}";
target = down;
type = TopGhost;
},
{
place = "{1.2, 1182}";
type = Stem;
},
{
horizontal = 1;
place = "{784.8, -20}";
target = down;
type = TopGhost;
}
);
layerId = "E87290C6-23CF-4B1A-9291-A4CEFD7391A8";
paths = (
{
closed = 1;
nodes = (
"278 -10 OFFCURVE",
"403 70 OFFCURVE",
"497 212 CURVE",
"499 212 LINE",
"502 160 OFFCURVE",
"502 49 OFFCURVE",
"496 2 CURVE",
"524 -4 OFFCURVE",
"549 -7 OFFCURVE",
"574 -7 CURVE SMOOTH",
"834 -7 OFFCURVE",
"1028 389 OFFCURVE",
"1028 604 CURVE SMOOTH",
"1028 703 OFFCURVE",
"973 739 OFFCURVE",
"917 739 CURVE SMOOTH",
"865 739 OFFCURVE",
"812 707 OFFCURVE",
"796 658 CURVE",
"840 617 OFFCURVE",
"859 551 OFFCURVE",
"859 478 CURVE SMOOTH",
"859 334 OFFCURVE",
"784 170 OFFCURVE",
"678 114 CURVE",
"676 114 LINE",
"688 191 OFFCURVE",
"698 309 OFFCURVE",
"698 373 CURVE SMOOTH",
"698 607 OFFCURVE",
"654 681 OFFCURVE",
"537 681 CURVE SMOOTH",
"491 681 OFFCURVE",
"446 649 OFFCURVE",
"437 605 CURVE",
"464 581 OFFCURVE",
"475 542 OFFCURVE",
"475 500 CURVE SMOOTH",
"476 377 OFFCURVE",
"392 198 OFFCURVE",
"290 114 CURVE",
"288 114 LINE",
"305 251 OFFCURVE",
"315 370 OFFCURVE",
"315 446 CURVE SMOOTH",
"315 623 OFFCURVE",
"256 680 OFFCURVE",
"154 680 CURVE SMOOTH",
"92 680 OFFCURVE",
"31 647 OFFCURVE",
"9 615 CURVE",
"62 578 OFFCURVE",
"92 520 OFFCURVE",
"92 279 CURVE SMOOTH",
"92 192 OFFCURVE",
"90 105 OFFCURVE",
"85 2 CURVE",
"111 -5 OFFCURVE",
"136 -10 OFFCURVE",
"161 -10 CURVE SMOOTH"
);
}
);
width = 1007;
}
);
leftKerningGroup = V;
note = W;
rightKerningGroup = V;
unicode = 0057;
},
{
glyphname = X;
layers = (
{
background = {
paths = (
{
closed = 1;
nodes = (
"761 -110 OFFCURVE",
"793 -87 OFFCURVE",
"797 -60 CURVE",
"724 -48 OFFCURVE",
"625 81 OFFCURVE",
"549 297 CURVE SMOOTH",
"432 630 OFFCURVE",
"396 705 OFFCURVE",
"283 705 CURVE SMOOTH",
"198 705 OFFCURVE",
"90 630 OFFCURVE",
"90 485 CURVE SMOOTH",
"90 418 OFFCURVE",
"132 357 OFFCURVE",
"193 357 CURVE SMOOTH",
"204 357 OFFCURVE",
"214 361 OFFCURVE",
"225 370 CURVE",
"204 390 OFFCURVE",
"174 436 OFFCURVE",
"173 500 CURVE SMOOTH",
"172 594 OFFCURVE",
"212 648 OFFCURVE",
"262 648 CURVE SMOOTH",
"334 648 OFFCURVE",
"356 556 OFFCURVE",
"466 253 CURVE SMOOTH",
"577 -52 OFFCURVE",
"633 -110 OFFCURVE",
"723 -110 CURVE SMOOTH"
);
},
{
closed = 1;
nodes = (
"252 -22 OFFCURVE",
"275 -13 OFFCURVE",
"294 2 CURVE",
"281 22 OFFCURVE",
"277 40 OFFCURVE",
"277 54 CURVE SMOOTH",
"279 132 OFFCURVE",
"381 251 OFFCURVE",
"478 302 CURVE",
"452 378 LINE",
"214 215 OFFCURVE",
"169 105 OFFCURVE",
"168 38 CURVE SMOOTH",
"167 4 OFFCURVE",
"192 -22 OFFCURVE",
"226 -22 CURVE SMOOTH"
);
},
{
closed = 1;
nodes = (
"706 438 OFFCURVE",
"776 571 OFFCURVE",
"777 666 CURVE SMOOTH",
"778 708 OFFCURVE",
"755 735 OFFCURVE",
"725 735 CURVE SMOOTH",
"703 735 OFFCURVE",
"677 724 OFFCURVE",
"656 700 CURVE",
"664 686 OFFCURVE",
"666 669 OFFCURVE",
"665 645 CURVE SMOOTH",
"665 596 OFFCURVE",
"647 487 OFFCURVE",
"496 384 CURVE",
"525 313 LINE"
);
}
);
};
layerId = "1252CFB8-7EB2-4C2F-9C11-14383990C0AA";
paths = (
{
closed = 1;
nodes = (
"756 -110 OFFCURVE",
"785 -90 OFFCURVE",
"789 -60 CURVE",
"716 -47 OFFCURVE",
"613 93 OFFCURVE",
"541 297 CURVE SMOOTH",
"424 633 OFFCURVE",
"389 705 OFFCURVE",
"283 705 CURVE SMOOTH",
"198 705 OFFCURVE",
"90 630 OFFCURVE",
"90 485 CURVE SMOOTH",
"90 418 OFFCURVE",
"132 357 OFFCURVE",
"193 357 CURVE SMOOTH",
"204 357 OFFCURVE",
"214 361 OFFCURVE",
"225 370 CURVE",
"204 390 OFFCURVE",
"174 436 OFFCURVE",
"173 500 CURVE SMOOTH",
"172 594 OFFCURVE",
"212 648 OFFCURVE",
"262 648 CURVE SMOOTH",
"335 648 OFFCURVE",
"357 554 OFFCURVE",
"467 253 CURVE SMOOTH",
"570 -31 OFFCURVE",
"644 -110 OFFCURVE",
"723 -110 CURVE SMOOTH"
);
},
{
closed = 1;
nodes = (
"252 -22 OFFCURVE",
"269 -14 OFFCURVE",
"287 2 CURVE",
"275 22 OFFCURVE",
"269 37 OFFCURVE",
"269 54 CURVE SMOOTH",
"271 127 OFFCURVE",
"367 244 OFFCURVE",
"471 300 CURVE",
"447 371 LINE",
"221 215 OFFCURVE",
"177 106 OFFCURVE",
"176 38 CURVE SMOOTH",
"175 4 OFFCURVE",
"197 -22 OFFCURVE",
"226 -22 CURVE SMOOTH"
);
},
{
closed = 1;
nodes = (
"678 425 OFFCURVE",
"768 544 OFFCURVE",
"771 656 CURVE SMOOTH",
"772 691 OFFCURVE",
"753 720 OFFCURVE",
"720 720 CURVE SMOOTH",
"692 720 OFFCURVE",
"676 708 OFFCURVE",
"659 690 CURVE",
"669 674 OFFCURVE",
"671 662 OFFCURVE",
"670 635 CURVE SMOOTH",
"668 587 OFFCURVE",
"655 491 OFFCURVE",
"503 386 CURVE",
"530 320 LINE"
);
}
);
width = 751;
},
{
hints = (
{
horizontal = 1;
place = "{0, 21}";
target = up;
type = BottomGhost;
},
{
horizontal = 1;
place = "{814.8, -20}";
target = down;
type = TopGhost;
},
{
place = "{-82.8, 831.6}";
type = Stem;
},
{
horizontal = 1;
place = "{-24, 21}";
target = up;
type = BottomGhost;
},
{
horizontal = 1;
place = "{792, -20}";
target = down;
type = TopGhost;
}
);
layerId = "E87290C6-23CF-4B1A-9291-A4CEFD7391A8";
paths = (
{
closed = 1;
nodes = (
"782 -144 OFFCURVE",
"816 -97 OFFCURVE",
"835 -50 CURVE",
"700 -7 OFFCURVE",
"614 232 OFFCURVE",
"563 422 CURVE SMOOTH",
"531 549 OFFCURVE",
"479 705 OFFCURVE",
"297 705 CURVE SMOOTH",
"158 705 OFFCURVE",
"12 625 OFFCURVE",
"12 474 CURVE SMOOTH",
"12 399 OFFCURVE",
"58 331 OFFCURVE",
"156 331 CURVE SMOOTH",
"180 331 OFFCURVE",
"215 341 OFFCURVE",
"237 365 CURVE",
"214 404 OFFCURVE",
"199 485 OFFCURVE",
"199 544 CURVE SMOOTH",
"200 583 OFFCURVE",
"205 618 OFFCURVE",
"228 618 CURVE SMOOTH",
"280 618 OFFCURVE",
"341 405 OFFCURVE",
"384 267 CURVE SMOOTH",
"440 93 OFFCURVE",
"502 -144 OFFCURVE",
"689 -144 CURVE SMOOTH"
);
},
{
closed = 1;
nodes = (
"269 -22 OFFCURVE",
"318 -2 OFFCURVE",
"345 40 CURVE",
"334 53 OFFCURVE",
"330 68 OFFCURVE",
"330 84 CURVE SMOOTH",
"330 152 OFFCURVE",
"409 230 OFFCURVE",
"473 269 CURVE",
"429 360 LINE",
"214 240 OFFCURVE",
"128 128 OFFCURVE",
"128 57 CURVE SMOOTH",
"128 6 OFFCURVE",
"168 -22 OFFCURVE",
"226 -22 CURVE SMOOTH"
);
},
{
closed = 1;
nodes = (
"766 484 OFFCURVE",
"844 566 OFFCURVE",
"843 661 CURVE SMOOTH",
"843 713 OFFCURVE",
"796 738 OFFCURVE",
"746 738 CURVE SMOOTH",
"704 738 OFFCURVE",
"654 719 OFFCURVE",
"628 677 CURVE",
"638 662 OFFCURVE",
"643 645 OFFCURVE",
"644 630 CURVE SMOOTH",
"644 569 OFFCURVE",
"577 472 OFFCURVE",
"525 414 CURVE",
"568 321 LINE"
);
}
);
width = 789;
}
);
leftKerningGroup = X;
note = X;
rightKerningGroup = X;
unicode = 0058;
},
{
glyphname = Y;
layers = (
{
anchors = (
{
name = bottom;
position = "{92, 0}";
},
{
name = top;
position = "{282, 660}";
}
);
layerId = "1252CFB8-7EB2-4C2F-9C11-14383990C0AA";
paths = (
{
closed = 1;
nodes = (
"127 -190 OFFCURVE",
"149 -181 OFFCURVE",
"169 -162 CURVE",
"128 -126 OFFCURVE",
"110 -93 OFFCURVE",
"111 -53 CURVE SMOOTH",
"113 28 OFFCURVE",
"195 113 OFFCURVE",
"289 206 CURVE SMOOTH",
"405 322 OFFCURVE",
"512 465 OFFCURVE",
"515 633 CURVE SMOOTH",
"516 697 OFFCURVE",
"493 739 OFFCURVE",
"457 739 CURVE SMOOTH",
"432 739 OFFCURVE",
"407 729 OFFCURVE",
"394 709 CURVE",
"408 674 OFFCURVE",
"417 647 OFFCURVE",
"417 604 CURVE SMOOTH",
"417 454 OFFCURVE",
"325 339 OFFCURVE",
"216 222 CURVE SMOOTH",
"124 124 OFFCURVE",
"22 40 OFFCURVE",
"21 -84 CURVE SMOOTH",
"20 -143 OFFCURVE",
"55 -190 OFFCURVE",
"100 -190 CURVE SMOOTH"
);
},
{
closed = 1;
nodes = (
"175 135 LINE",
"182 178 OFFCURVE",
"197 275 OFFCURVE",
"198 384 CURVE SMOOTH",
"198 564 OFFCURVE",
"148 680 OFFCURVE",
"69 680 CURVE SMOOTH",
"45 680 OFFCURVE",
"27 667 OFFCURVE",
"8 642 CURVE",
"90 566 OFFCURVE",
"116 466 OFFCURVE",
"116 301 CURVE SMOOTH",
"116 233 OFFCURVE",
"112 178 OFFCURVE",
"107 135 CURVE"
);
}
);
width = 468;
},
{
anchors = (
{
name = bottom;
position = "{216, 0}";
},
{
name = top;
position = "{336, 745}";
}
);
hints = (
{
horizontal = 1;
place = "{0, 21}";
target = up;
type = BottomGhost;
},
{
horizontal = 1;
place = "{816, -20}";
target = down;
type = TopGhost;
},
{
place = "{28.8, 751.2}";
type = Stem;
}
);
layerId = "E87290C6-23CF-4B1A-9291-A4CEFD7391A8";
paths = (
{
closed = 1;
nodes = (
"216 -186 OFFCURVE",
"264 -171 OFFCURVE",
"307 -133 CURVE",
"261 -97 OFFCURVE",
"237 -62 OFFCURVE",
"238 -17 CURVE SMOOTH",
"243 63 OFFCURVE",
"350 147 OFFCURVE",
"453 255 CURVE SMOOTH",
"550 356 OFFCURVE",
"648 475 OFFCURVE",
"654 613 CURVE SMOOTH",
"658 704 OFFCURVE",
"603 739 OFFCURVE",
"543 739 CURVE SMOOTH",
"499 739 OFFCURVE",
"449 717 OFFCURVE",
"412 674 CURVE",
"434 649 OFFCURVE",
"442 609 OFFCURVE",
"441 566 CURVE SMOOTH",
"435 450 OFFCURVE",
"351 278 OFFCURVE",
"256 203 CURVE SMOOTH",
"90 86 OFFCURVE",
"39 12 OFFCURVE",
"35 -58 CURVE SMOOTH",
"32 -132 OFFCURVE",
"85 -186 OFFCURVE",
"165 -186 CURVE SMOOTH"
);
},
{
closed = 1;
nodes = (
"303 135 LINE",
"320 290 OFFCURVE",
"318 394 OFFCURVE",
"307 468 CURVE SMOOTH",
"287 618 OFFCURVE",
"212 680 OFFCURVE",
"136 680 CURVE SMOOTH",
"89 680 OFFCURVE",
"41 659 OFFCURVE",
"9 619 CURVE",
"48 601 OFFCURVE",
"94 436 OFFCURVE",
"117 266 CURVE SMOOTH",
"123 223 OFFCURVE",
"129 176 OFFCURVE",
"131 127 CURVE"
);
}
);
width = 602;
}
);
leftKerningGroup = Y;
note = Y;
rightKerningGroup = Y;
unicode = 0059;
},
